KleiExtBld.ufo
<glyph name="exclam" format="1">
  <advance width="316"/>
  <unicode hex="0021"/>
  <outline>
    <contour>
      <point x="162.077" y="-18" type="curve" smooth="yes"/>
      <point x="108.736" y="-18"/>
      <point x="65.4922" y="24.249"/>
      <point x="65.4922" y="76.3613" type="curve" smooth="yes"/>
      <point x="65.4922" y="128.475"/>
      <point x="108.735" y="170.725"/>
      <point x="162.077" y="170.725" type="curve" smooth="yes"/>
      <point x="215.418" y="170.725"/>
      <point x="258.664" y="128.475"/>
      <point x="258.664" y="76.3613" type="curve" smooth="yes"/>
      <point x="258.664" y="24.249"/>
      <point x="215.418" y="-18"/>
    </contour>
    <contour>
      <point x="248.507" y="689.865" type="curve"/>
      <point x="227.5" y="243.685" type="line"/>
      <point x="226.64" y="227.037"/>
      <point x="192.951" y="206.117"/>
      <point x="164.169" y="205.713" type="curve" smooth="yes"/>
      <point x="164.007" y="205.709" type="line"/>
      <point x="163.844" y="205.712" type="line" smooth="yes"/>
      <point x="134.371" y="206.102"/>
      <point x="100.492" y="226.541"/>
      <point x="99.5156" y="243.65" type="curve"/>
      <point x="76.5068" y="689.851" type="line"/>
      <point x="76.5068" y="723.152"/>
      <point x="117.623" y="751.434"/>
      <point x="162.929" y="751.434" type="curve" smooth="yes"/>
      <point x="208.62" y="751.434"/>
      <point x="248.507" y="722.652"/>
    </contour>
  </outline>
</glyph>
<glyph name="quotedbl" format="1">
  <advance width="384"/>
  <unicode hex="0022"/>
  <outline>
    <contour>
      <point x="270.391" y="727.962" type="curve" smooth="yes"/>
      <point x="286.703" y="727.962" type="line" smooth="yes"/>
      <point x="319.892" y="727.962"/>
      <point x="341.932" y="707.406"/>
      <point x="341.932" y="679.869" type="curve" smooth="yes"/>
      <point x="341.932" y="677.62"/>
      <point x="341.33" y="671.247"/>
      <point x="340.17" y="667.52" type="curve"/>
      <point x="321.361" y="515.176" type="line"/>
      <point x="321.361" y="515.176"/>
      <point x="309.846" y="494"/>
      <point x="294.591" y="494" type="curve" smooth="yes"/>
      <point x="262.5" y="494" type="line" smooth="yes"/>
      <point x="246.517" y="494"/>
      <point x="236.816" y="502.718"/>
      <point x="235.48" y="517.199" type="curve"/>
      <point x="216.738" y="669.011" type="line"/>
      <point x="216.738" y="675.97" type="line" smooth="yes"/>
      <point x="216.738" y="702.788"/>
      <point x="238.675" y="727.962"/>
    </contour>
    <contour>
      <point x="102.891" y="727.962" type="curve" smooth="yes"/>
      <point x="119.203" y="727.962" type="line" smooth="yes"/>
      <point x="152.392" y="727.962"/>
      <point x="174.432" y="707.406"/>
      <point x="174.432" y="679.869" type="curve" smooth="yes"/>
      <point x="174.432" y="677.62"/>
      <point x="173.83" y="671.247"/>
      <point x="172.67" y="667.52" type="curve"/>
      <point x="153.861" y="515.176" type="line"/>
      <point x="153.861" y="515.176"/>
      <point x="142.346" y="494"/>
      <point x="127.091" y="494" type="curve" smooth="yes"/>
      <point x="95" y="494" type="line" smooth="yes"/>
      <point x="79.0166" y="494"/>
      <point x="69.3164" y="502.718"/>
      <point x="67.9805" y="517.199" type="curve"/>
      <point x="49.2383" y="669.011" type="line"/>
      <point x="49.2383" y="675.97" type="line" smooth="yes"/>
      <point x="49.2383" y="702.788"/>
      <point x="71.1748" y="727.962"/>
    </contour>
  </outline>
</glyph>
<glyph name="numbersign" format="1">
  <advance width="735"/>
  <unicode hex="0023"/>
  <outline>
    <contour>
      <point x="326" y="737.333" type="curve" smooth="yes"/>
      <point x="388" y="737.333" type="line" smooth="yes"/>
      <point x="393.338" y="737.333"/>
      <point x="405" y="733.122"/>
      <point x="405" y="721" type="curve" smooth="yes"/>
      <point x="405" y="717.166" type="line"/>
      <point x="365.894" y="555" type="line"/>
      <point x="452.49" y="555" type="line"/>
      <point x="492.196" y="719.645" type="line"/>
      <point x="492.196" y="719.645"/>
      <point x="502.55" y="737.333"/>
      <point x="511" y="737.333" type="curve" smooth="yes"/>
      <point x="573" y="737.333" type="line" smooth="yes"/>
      <point x="578.338" y="737.333"/>
      <point x="590" y="733.122"/>
      <point x="590" y="721" type="curve" smooth="yes"/>
      <point x="590" y="717.166" type="line"/>
      <point x="550.894" y="555" type="line"/>
      <point x="675" y="555" type="line" smooth="yes"/>
      <point x="680.725" y="555"/>
      <point x="692" y="552.316"/>
      <point x="692" y="541" type="curve" smooth="yes"/>
      <point x="692" y="526.31"/>
      <point x="681.221" y="506.902"/>
      <point x="676.641" y="492.869" type="curve" smooth="yes"/>
      <point x="674.238" y="485.662"/>
      <point x="667.875" y="476"/>
      <point x="657" y="476" type="curve" smooth="yes"/>
      <point x="531.518" y="476" type="line"/>
      <point x="488.881" y="296" type="line"/>
      <point x="624" y="296" type="line" smooth="yes"/>
      <point x="629.725" y="296"/>
      <point x="641" y="293.316"/>
      <point x="641" y="282" type="curve" smooth="yes"/>
      <point x="641" y="264.577"/>
      <point x="630.72" y="247.04"/>
      <point x="625.66" y="231.844" type="curve" smooth="yes"/>
      <point x="622.815" y="223.312"/>
      <point x="615.348" y="217"/>
      <point x="606" y="217" type="curve" smooth="yes"/>
      <point x="469.518" y="217" type="line"/>
      <point x="422.993" y="22.1406" type="line"/>
      <point x="422.219" y="11.9551"/>
      <point x="414.015" y="3"/>
      <point x="405" y="3" type="curve" smooth="yes"/>
      <point x="341" y="3" type="line" smooth="yes"/>
      <point x="331.373" y="3"/>
      <point x="325" y="13.373"/>
      <point x="325" y="23" type="curve" smooth="yes"/>
      <point x="325" y="23.8291" type="line"/>
      <point x="371.119" y="217" type="line"/>
      <point x="284.518" y="217" type="line"/>
      <point x="237.993" y="22.1406" type="line"/>
      <point x="237.219" y="11.9551"/>
      <point x="229.015" y="3"/>
      <point x="220" y="3" type="curve" smooth="yes"/>
      <point x="156" y="3" type="line" smooth="yes"/>
      <point x="146.373" y="3"/>
      <point x="140" y="13.373"/>
      <point x="140" y="23" type="curve" smooth="yes"/>
      <point x="140" y="23.8291" type="line"/>
      <point x="186.119" y="217" type="line"/>
      <point x="67" y="217" type="line" smooth="yes"/>
      <point x="59.9922" y="217"/>
      <point x="50" y="221.445"/>
      <point x="50" y="232" type="curve" smooth="yes"/>
      <point x="50" y="233.136"/>
      <point x="50.4629" y="236.571"/>
      <point x="51.9893" y="240.301" type="curve"/>
      <point x="64.3291" y="281.122" type="line"/>
      <point x="67.1934" y="289.718"/>
      <point x="74.6494" y="296"/>
      <point x="84" y="296" type="curve" smooth="yes"/>
      <point x="205.482" y="296" type="line"/>
      <point x="248.119" y="476" type="line"/>
      <point x="118" y="476" type="line" smooth="yes"/>
      <point x="110.992" y="476"/>
      <point x="101" y="480.445"/>
      <point x="101" y="491" type="curve" smooth="yes"/>
      <point x="101" y="492.229"/>
      <point x="101.36" y="495.358"/>
      <point x="103.054" y="499.591" type="curve"/>
      <point x="115.329" y="540.125" type="line"/>
      <point x="118.193" y="548.716"/>
      <point x="125.649" y="555"/>
      <point x="135" y="555" type="curve" smooth="yes"/>
      <point x="267.49" y="555" type="line"/>
      <point x="307.196" y="719.645" type="line"/>
      <point x="307.196" y="719.645"/>
      <point x="317.55" y="737.333"/>
    </contour>
    <contour>
      <point x="346.518" y="476" type="line"/>
      <point x="303.881" y="296" type="line"/>
      <point x="390.482" y="296" type="line"/>
      <point x="433.119" y="476" type="line"/>
    </contour>
  </outline>
</glyph>
<glyph name="dollar" format="1">
  <advance width="613"/>
  <unicode hex="0024"/>
  <outline>
    <contour>
      <point x="351.959" y="259.724" type="curve"/>
      <point x="343.795" y="188.087"/>
      <point x="334.575" y="143.239"/>
      <point x="329.138" y="93.0469" type="curve"/>
      <point x="375.834" y="97.9229"/>
      <point x="402.305" y="129.741"/>
      <point x="402.305" y="178.957" type="curve" smooth="yes"/>
      <point x="402.305" y="223.731"/>
      <point x="381.459" y="244.326"/>
    </contour>
    <contour>
      <point x="393.24" y="649.138" type="line" smooth="yes"/>
      <point x="391.396" y="635.106"/>
      <point x="389.591" y="621.482"/>
      <point x="387.488" y="606.06" type="curve"/>
      <point x="448.577" y="598.877"/>
      <point x="515.961" y="576.253"/>
      <point x="515.961" y="553.979" type="curve" smooth="yes"/>
      <point x="515.961" y="543.502"/>
      <point x="495.563" y="485.313"/>
      <point x="474.948" y="485.313" type="curve" smooth="yes"/>
      <point x="454.373" y="485.313"/>
      <point x="430.212" y="537.303"/>
      <point x="386" y="555" type="curve"/>
      <point x="377.972" y="494.204"/>
      <point x="372.821" y="452.364"/>
      <point x="365" y="387" type="curve"/>
      <point x="446.421" y="340.164"/>
      <point x="549.283" y="294.062"/>
      <point x="549.283" y="211.976" type="curve" smooth="yes"/>
      <point x="549.283" y="60.9033"/>
      <point x="419.984" y="27.8815"/>
      <point x="317.931" y="22.2539" type="curve"/>
      <point x="314.052" y="-13.3564"/>
      <point x="313.665" y="-22.4482"/>
      <point x="313.205" y="-26.7705" type="curve"/>
      <point x="302.927" y="-42.5596"/>
      <point x="287.947" y="-46.9424"/>
      <point x="273.26" y="-46.9424" type="curve" smooth="yes"/>
      <point x="262.335" y="-46.9424"/>
      <point x="251.371" y="-44.2734"/>
      <point x="243.849" y="-38.0469" type="curve" smooth="yes"/>
      <point x="240.852" y="-35.5664" type="line"/>
      <point x="241.405" y="-31.9287" type="line" smooth="yes"/>
      <point x="244.722" y="-10.1211"/>
      <point x="247.137" y="6.41797"/>
      <point x="250.066" y="28.6465" type="curve"/>
      <point x="171.164" y="46.749"/>
      <point x="102.56" y="102.652"/>
      <point x="102.56" y="137.254" type="curve" smooth="yes"/>
      <point x="102.56" y="159.011"/>
      <point x="131.61" y="215.787"/>
      <point x="150.217" y="215.787" type="curve" smooth="yes"/>
      <point x="167.647" y="215.787"/>
      <point x="196.006" y="138.586"/>
      <point x="257" y="108" type="curve"/>
      <point x="268.104" y="195.287"/>
      <point x="274.06" y="226.181"/>
      <point x="282.361" y="296.922" type="curve"/>
      <point x="210.703" y="336.013"/>
      <point x="100.485" y="378.454"/>
      <point x="100.485" y="461.93" type="curve" smooth="yes"/>
      <point x="100.485" y="554.975"/>
      <point x="200.328" y="611.011"/>
      <point x="318.695" y="619.241" type="curve"/>
      <point x="320.203" y="637.605"/>
      <point x="321.4" y="652.622"/>
      <point x="322.75" y="670" type="curve" smooth="yes"/>
      <point x="322.773" y="670" type="line"/>
      <point x="322.83" y="670" type="line" smooth="yes"/>
      <point x="325.356" y="673.526"/>
      <point x="346.481" y="674.557"/>
      <point x="357.399" y="674.557" type="curve" smooth="yes"/>
      <point x="373.089" y="674.557"/>
      <point x="392.25" y="664.998"/>
      <point x="393.281" y="650.493" type="curve" smooth="yes"/>
      <point x="393.329" y="649.813" type="line"/>
    </contour>
    <contour>
      <point x="293.822" y="421.481" type="curve"/>
      <point x="299.452" y="474.695"/>
      <point x="304.981" y="511.741"/>
      <point x="309.556" y="564.803" type="curve"/>
      <point x="265.808" y="561.752"/>
      <point x="248.877" y="519.978"/>
      <point x="248.877" y="490.554" type="curve" smooth="yes"/>
      <point x="248.877" y="457.114"/>
      <point x="264.531" y="433.925"/>
    </contour>
  </outline>
</glyph>
<glyph name="percent" format="1">
  <advance width="944"/>
  <unicode hex="0025"/>
  <outline>
    <contour>
      <point x="245.182" y="607" type="curve" smooth="yes"/>
      <point x="208.394" y="607"/>
      <point x="179" y="542.019"/>
      <point x="179" y="449" type="curve" smooth="yes"/>
      <point x="179" y="355.999"/>
      <point x="208.405" y="291"/>
      <point x="245.182" y="291" type="curve" smooth="yes"/>
      <point x="280.944" y="291"/>
      <point x="312.443" y="356.032"/>
      <point x="312.443" y="449" type="curve" smooth="yes"/>
      <point x="312.443" y="541.952"/>
      <point x="280.934" y="607"/>
    </contour>
    <contour>
      <point x="245.182" y="249" type="curve" smooth="yes"/>
      <point x="141.637" y="249"/>
      <point x="62" y="322.086"/>
      <point x="62" y="449" type="curve" smooth="yes"/>
      <point x="62" y="575.914"/>
      <point x="141.637" y="649"/>
      <point x="245.182" y="649" type="curve" smooth="yes"/>
      <point x="349.906" y="649"/>
      <point x="430.354" y="575.858"/>
      <point x="430.354" y="449" type="curve" smooth="yes"/>
      <point x="430.354" y="322.142"/>
      <point x="349.906" y="249"/>
    </contour>
    <contour>
      <point x="707.818" y="342" type="curve" smooth="yes"/>
      <point x="672.056" y="342"/>
      <point x="640.557" y="276.968"/>
      <point x="640.557" y="184" type="curve" smooth="yes"/>
      <point x="640.557" y="91.0479"/>
      <point x="672.066" y="26"/>
      <point x="707.818" y="26" type="curve" smooth="yes"/>
      <point x="743.581" y="26"/>
      <point x="774" y="91.0322"/>
      <point x="774" y="184" type="curve" smooth="yes"/>
      <point x="774" y="276.952"/>
      <point x="743.571" y="342"/>
    </contour>
    <contour>
      <point x="707.818" y="-16" type="curve" smooth="yes"/>
      <point x="603.134" y="-16"/>
      <point x="521.621" y="57.0859"/>
      <point x="521.621" y="184" type="curve" smooth="yes"/>
      <point x="521.621" y="310.914"/>
      <point x="603.134" y="384"/>
      <point x="707.818" y="384" type="curve" smooth="yes"/>
      <point x="811.363" y="384"/>
      <point x="891" y="310.914"/>
      <point x="891" y="184" type="curve" smooth="yes"/>
      <point x="891" y="57.0859"/>
      <point x="811.363" y="-16"/>
    </contour>
    <contour>
      <point x="694.081" y="717.217" type="curve"/>
      <point x="726" y="694" type="line" smooth="yes"/>
      <point x="730.489" y="691.42"/>
      <point x="734.866" y="686.887"/>
      <point x="734.866" y="680.332" type="curve" smooth="yes"/>
      <point x="732.582" y="671.175" type="line"/>
      <point x="287.536" y="-64.709" type="line"/>
      <point x="284.429" y="-69.7607"/>
      <point x="278.996" y="-70.8271"/>
      <point x="275.203" y="-70.8271" type="curve" smooth="yes"/>
      <point x="265.799" y="-70.8271"/>
      <point x="239.689" y="-51.4355"/>
      <point x="233.354" y="-48.127" type="curve" smooth="yes"/>
      <point x="228.182" y="-45.1523"/>
      <point x="225.104" y="-39.9023"/>
      <point x="225.104" y="-34.3926" type="curve" smooth="yes"/>
      <point x="225.104" y="-31.0566"/>
      <point x="226.188" y="-28.1055"/>
      <point x="227.587" y="-25.4238" type="curve" smooth="yes"/>
      <point x="671.706" y="710.705" type="line"/>
      <point x="674.601" y="715.329"/>
      <point x="679.627" y="719.123"/>
      <point x="686.09" y="719.123" type="curve" smooth="yes"/>
      <point x="689.934" y="719.123"/>
      <point x="694.081" y="717.217"/>
    </contour>
  </outline>
</glyph>
<glyph name="ampersand" format="1">
  <advance width="882"/>
  <unicode hex="0026"/>
  <outline>
    <contour>
      <point x="303.615" y="490.666" type="curve"/>
      <point x="357.55" y="544.215"/>
      <point x="370.8" y="590.539"/>
      <point x="370.8" y="625.45" type="curve" smooth="yes"/>
      <point x="370.8" y="665.237"/>
      <point x="349.636" y="696"/>
      <point x="313" y="696" type="curve" smooth="yes"/>
      <point x="272.843" y="696"/>
      <point x="256.05" y="646.462"/>
      <point x="256.05" y="612.7" type="curve" smooth="yes"/>
      <point x="256.05" y="577.59"/>
      <point x="269.364" y="533.729"/>
    </contour>
    <contour>
      <point x="541" y="254" type="curve"/>
      <point x="563" y="273"/>
      <point x="552.246" y="264.783"/>
      <point x="575.437" y="286.309" type="curve" smooth="yes"/>
      <point x="587.964" y="297.937"/>
      <point x="605.328" y="310.13"/>
      <point x="605.328" y="318.915" type="curve" smooth="yes"/>
      <point x="605.328" y="325.08"/>
      <point x="591.095" y="330.42"/>
      <point x="577.28" y="330.604" type="curve" smooth="yes"/>
      <point x="570.396" y="330.696" type="line"/>
      <point x="570.302" y="363.998" type="line"/>
      <point x="760" y="364" type="line"/>
      <point x="760" y="330.684" type="line"/>
      <point x="753.079" y="330.605" type="line" smooth="yes"/>
      <point x="741.082" y="330.471"/>
      <point x="732.681" y="324.149"/>
      <point x="724.791" y="319.761" type="curve" smooth="yes"/>
      <point x="711.196" y="312.198"/>
      <point x="667.277" y="278.378"/>
      <point x="654.95" y="266.05" type="curve" smooth="yes"/>
      <point x="632.368" y="243.469"/>
      <point x="599.047" y="220.038"/>
      <point x="582.628" y="196.285" type="curve"/>
      <point x="624.235" y="134.871"/>
      <point x="686.841" y="29"/>
      <point x="739" y="29" type="curve" smooth="yes"/>
      <point x="806.373" y="29"/>
      <point x="826.478" y="63.5928"/>
      <point x="833.959" y="76.3818" type="curve"/>
      <point x="849.624" y="60.3535" type="line"/>
      <point x="836.725" y="21.4795"/>
      <point x="809.471" y="-23"/>
      <point x="731" y="-23" type="curve" smooth="yes"/>
      <point x="627.61" y="-23"/>
      <point x="583.92" y="5.50098"/>
      <point x="541.176" y="56.1172" type="curve" smooth="yes"/>
      <point x="534.799" y="63.668"/>
      <point x="509.021" y="92.6328"/>
      <point x="503.191" y="100.956" type="curve"/>
      <point x="454.888" y="27.3281"/>
      <point x="410.372" y="-17"/>
      <point x="303" y="-17" type="curve" smooth="yes"/>
      <point x="152.317" y="-17"/>
      <point x="32" y="58.21"/>
      <point x="32" y="175" type="curve" smooth="yes"/>
      <point x="32" y="283.524"/>
      <point x="165.491" y="349.51"/>
      <point x="232" y="394" type="curve"/>
      <point x="181.032" y="445.227"/>
      <point x="101" y="482.845"/>
      <point x="101" y="567" type="curve" smooth="yes"/>
      <point x="101" y="665.406"/>
      <point x="188.835" y="742"/>
      <point x="305" y="742" type="curve" smooth="yes"/>
      <point x="464.204" y="742"/>
      <point x="508" y="650.911"/>
      <point x="508" y="595" type="curve" smooth="yes"/>
      <point x="508" y="514.221"/>
      <point x="465" y="460"/>
      <point x="406.004" y="395.94" type="curve"/>
      <point x="436.522" y="366.718"/>
      <point x="429.853" y="374.047"/>
      <point x="455.95" y="347.95" type="curve" smooth="yes"/>
      <point x="509.885" y="294.015"/>
      <point x="516.062" y="284.073"/>
    </contour>
    <contour>
      <point x="297.818" y="329.053" type="curve"/>
      <point x="254.3" y="294.04"/>
      <point x="199.26" y="256.016"/>
      <point x="199.26" y="199.44" type="curve" smooth="yes"/>
      <point x="199.26" y="135.624"/>
      <point x="223.885" y="78.9795"/>
      <point x="297.729" y="78.9795" type="curve" smooth="yes"/>
      <point x="353.488" y="78.9795"/>
      <point x="403.138" y="113.869"/>
      <point x="441.378" y="167.713" type="curve"/>
      <point x="415.163" y="202.207"/>
      <point x="391.331" y="235.361"/>
      <point x="350.264" y="277.554" type="curve" smooth="yes"/>
      <point x="328.35" y="300.067"/>
      <point x="330.058" y="298.708"/>
    </contour>
  </outline>
</glyph>
<glyph name="quotesingle" format="1">
  <advance width="177"/>
  <unicode hex="0027"/>
  <outline>
    <contour>
      <point x="57.8906" y="727.962" type="curve" smooth="yes"/>
      <point x="74.2031" y="727.962" type="line" smooth="yes"/>
      <point x="107.392" y="727.962"/>
      <point x="129.432" y="707.406"/>
      <point x="129.432" y="679.869" type="curve" smooth="yes"/>
      <point x="129.432" y="677.62"/>
      <point x="128.83" y="671.247"/>
      <point x="127.67" y="667.52" type="curve"/>
      <point x="108.861" y="515.176" type="line"/>
      <point x="108.861" y="515.176"/>
      <point x="97.3457" y="494"/>
      <point x="82.0908" y="494" type="curve" smooth="yes"/>
      <point x="50" y="494" type="line" smooth="yes"/>
      <point x="34.0166" y="494"/>
      <point x="24.3164" y="502.718"/>
      <point x="22.9805" y="517.199" type="curve"/>
      <point x="4.23828" y="669.011" type="line"/>
      <point x="4.23828" y="675.97" type="line" smooth="yes"/>
      <point x="4.23828" y="702.788"/>
      <point x="26.1748" y="727.962"/>
    </contour>
  </outline>
</glyph>
<glyph name="asterisk" format="1">
  <advance width="476"/>
  <unicode hex="002A"/>
  <outline>
    <contour>
      <point x="228.32" y="716.311" type="curve" smooth="yes"/>
      <point x="246.568" y="716.311" type="line" smooth="yes"/>
      <point x="259.591" y="716.311"/>
      <point x="270.11" y="705.634"/>
      <point x="270.11" y="692.966" type="curve"/>
      <point x="275.735" y="556.549" type="line"/>
      <point x="398.318" y="618.545" type="line" smooth="yes"/>
      <point x="402.111" y="620.464"/>
      <point x="405.598" y="621.127"/>
      <point x="408.848" y="621.127" type="curve" smooth="yes"/>
      <point x="417.297" y="621.127"/>
      <point x="425.188" y="617.766"/>
      <point x="430.415" y="610.981" type="curve" smooth="yes"/>
      <point x="434.696" y="605.424"/>
      <point x="438.224" y="593.747"/>
      <point x="438.224" y="589.039" type="curve" smooth="yes"/>
      <point x="438.224" y="580.079"/>
      <point x="432.699" y="572.992"/>
      <point x="426.169" y="568.638" type="curve" smooth="yes"/>
      <point x="313.292" y="493.856" type="line"/>
      <point x="426.169" y="419.074" type="line" smooth="yes"/>
      <point x="431.57" y="415.496"/>
      <point x="438.224" y="409.068"/>
      <point x="438.224" y="398.674" type="curve" smooth="yes"/>
      <point x="438.224" y="392.01"/>
      <point x="433.887" y="383.283"/>
      <point x="432.742" y="380.992" type="curve"/>
      <point x="430.795" y="377.27" type="line"/>
      <point x="426.294" y="370.518"/>
      <point x="419.931" y="363.871"/>
      <point x="410.205" y="363.871" type="curve" smooth="yes"/>
      <point x="406.241" y="363.871"/>
      <point x="403.121" y="364.691"/>
      <point x="399.636" y="366.475" type="curve" smooth="yes"/>
      <point x="278.644" y="428.377" type="line"/>
      <point x="273.027" y="293.592" type="line"/>
      <point x="273.027" y="279.608"/>
      <point x="259.983" y="270.249"/>
      <point x="247.926" y="270.249" type="curve" smooth="yes"/>
      <point x="229.678" y="270.249" type="line" smooth="yes"/>
      <point x="217.619" y="270.249"/>
      <point x="204.576" y="279.608"/>
      <point x="204.576" y="293.592" type="curve"/>
      <point x="198.956" y="429.785" type="line"/>
      <point x="76.5771" y="366.305" type="line" smooth="yes"/>
      <point x="72.1172" y="364.022"/>
      <point x="67.4072" y="363.701"/>
      <point x="64.4463" y="363.701" type="curve" smooth="yes"/>
      <point x="53.6875" y="363.701"/>
      <point x="48.1113" y="372.262"/>
      <point x="45.6963" y="375.553" type="curve" smooth="yes"/>
      <point x="42.6719" y="379.678"/>
      <point x="38.0234" y="390.193"/>
      <point x="38.0234" y="395.961" type="curve" smooth="yes"/>
      <point x="38.0234" y="404.138"/>
      <point x="43.5713" y="412.727"/>
      <point x="47.2539" y="415.535" type="curve"/>
      <point x="162.805" y="491.143" type="line"/>
      <point x="47.3311" y="567.168" type="line"/>
      <point x="39.127" y="572.171"/>
      <point x="36.3291" y="581.508"/>
      <point x="36.3291" y="588.937" type="curve" smooth="yes"/>
      <point x="36.3291" y="604.371"/>
      <point x="52.083" y="621.127"/>
      <point x="64.4814" y="621.127" type="curve" smooth="yes"/>
      <point x="67.4248" y="621.127"/>
      <point x="72.0781" y="620.79"/>
      <point x="76.5488" y="618.557" type="curve"/>
      <point x="199.153" y="556.549" type="line"/>
      <point x="204.777" y="692.966" type="line"/>
      <point x="204.777" y="703.9"/>
      <point x="214.4" y="716.311"/>
    </contour>
  </outline>
</glyph>
<glyph name="plus" format="1">
  <advance width="446"/>
  <unicode hex="002B"/>
  <outline>
    <contour>
      <point x="272" y="145" type="line" smooth="yes"/>
      <point x="272" y="130.978"/>
      <point x="233.143" y="127"/>
      <point x="224" y="127" type="curve" smooth="yes"/>
      <point x="215.368" y="127"/>
      <point x="174" y="130.409"/>
      <point x="174" y="145" type="curve" smooth="yes"/>
      <point x="174" y="247" type="line" smooth="yes"/>
      <point x="174" y="247.723"/>
      <point x="173.721" y="248.716"/>
      <point x="173.609" y="249" type="curve"/>
      <point x="79.8643" y="249" type="line"/>
      <point x="78.7861" y="249.359" type="line" smooth="yes"/>
      <point x="66.7568" y="253.369"/>
      <point x="62" y="289.217"/>
      <point x="62" y="300" type="curve" smooth="yes"/>
      <point x="62" y="309.826"/>
      <point x="66.8525" y="347"/>
      <point x="81" y="347" type="curve" smooth="yes"/>
      <point x="172" y="347" type="line" smooth="yes"/>
      <point x="173.34" y="347"/>
      <point x="173.676" y="347.256"/>
      <point x="173.676" y="347.256" type="curve"/>
      <point x="173.79" y="347.45"/>
      <point x="174" y="348.248"/>
      <point x="174" y="349" type="curve" smooth="yes"/>
      <point x="174" y="444.045" type="line"/>
      <point x="178.786" y="445.641" type="line" smooth="yes"/>
      <point x="188.056" y="448.73"/>
      <point x="216.813" y="454"/>
      <point x="226" y="454" type="curve" smooth="yes"/>
      <point x="235.22" y="454"/>
      <point x="262.566" y="448.543"/>
      <point x="269.131" y="445.261" type="curve" smooth="yes"/>
      <point x="273" y="443.326" type="line"/>
      <point x="273" y="348" type="line" smooth="yes"/>
      <point x="273" y="347.57"/>
      <point x="273.006" y="347"/>
      <point x="273.006" y="347" type="curve"/>
      <point x="368" y="347" type="line" smooth="yes"/>
      <point x="382.676" y="347"/>
      <point x="384" y="303.131"/>
      <point x="384" y="295" type="curve" smooth="yes"/>
      <point x="384" y="288.266"/>
      <point x="382.497" y="249"/>
      <point x="368" y="249" type="curve" smooth="yes"/>
      <point x="272" y="249" type="line" smooth="yes"/>
    </contour>
  </outline>
</glyph>
<glyph name="comma" format="1">
  <advance width="238"/>
  <unicode hex="002C"/>
  <outline>
    <contour>
      <point x="34.3564" y="77.1611" type="curve" smooth="yes"/>
      <point x="34.3564" y="126.248"/>
      <point x="80.918" y="171.109"/>
      <point x="133.106" y="171.109" type="curve" smooth="yes"/>
      <point x="187.44" y="171.109"/>
      <point x="229.459" y="125.491"/>
      <point x="229.459" y="81.71" type="curve" smooth="yes"/>
      <point x="229.459" y="80.1934" type="line" smooth="yes"/>
      <point x="229.459" y="-61.46"/>
      <point x="158.285" y="-107.767"/>
      <point x="31.2168" y="-107.767" type="curve"/>
      <point x="8.18848" y="-71.3867" type="line"/>
      <point x="41.9316" y="-71.3867"/>
      <point x="99.9229" y="-59.7275"/>
      <point x="99.9229" y="-21.3652" type="curve" smooth="yes"/>
      <point x="99.9229" y="-16.207"/>
      <point x="97.3623" y="-11.208"/>
      <point x="90.5234" y="-4.72168" type="curve"/>
      <point x="64.7822" y="18.3184"/>
      <point x="34.3564" y="29.2842"/>
    </contour>
  </outline>
</glyph>
<glyph name="hyphen" format="1">
  <advance width="423"/>
  <unicode hex="002D"/>
  <outline>
    <contour>
      <point x="76.5439" y="245.982" type="line" smooth="yes"/>
      <point x="63.4023" y="250.364"/>
      <point x="55.2051" y="277.047"/>
      <point x="55.2051" y="299.754" type="curve" smooth="yes"/>
      <point x="55.2051" y="321.413"/>
      <point x="63.5059" y="349.731"/>
      <point x="78.9629" y="349.731" type="curve" smooth="yes"/>
      <point x="351" y="349.731" type="line" smooth="yes"/>
      <point x="367.033" y="349.731"/>
      <point x="372.573" y="317.377"/>
      <point x="372.573" y="297.568" type="curve" smooth="yes"/>
      <point x="372.573" y="279.285"/>
      <point x="366.838" y="245.59"/>
      <point x="351" y="245.59" type="curve" smooth="yes"/>
      <point x="77.7227" y="245.59" type="line"/>
    </contour>
  </outline>
</glyph>
<glyph name="period" format="1">
  <advance width="268"/>
  <unicode hex="002E"/>
  <outline>
    <contour>
      <point x="132.077" y="-18" type="curve" smooth="yes"/>
      <point x="78.7363" y="-18"/>
      <point x="35.4922" y="24.249"/>
      <point x="35.4922" y="76.3613" type="curve" smooth="yes"/>
      <point x="35.4922" y="128.475"/>
      <point x="78.7354" y="170.725"/>
      <point x="132.077" y="170.725" type="curve" smooth="yes"/>
      <point x="185.418" y="170.725"/>
      <point x="228.664" y="128.475"/>
      <point x="228.664" y="76.3613" type="curve" smooth="yes"/>
      <point x="228.664" y="24.249"/>
      <point x="185.418" y="-18"/>
    </contour>
  </outline>
</glyph>
<glyph name="zero" format="1">
  <advance width="530"/>
  <unicode hex="0030"/>
  <outline>
    <contour>
      <point x="266" y="572" type="curve" smooth="yes"/>
      <point x="216.514" y="572"/>
      <point x="190" y="468.007"/>
      <point x="190" y="316.2" type="curve" smooth="yes"/>
      <point x="190" y="164.395"/>
      <point x="216.513" y="62.4004"/>
      <point x="266" y="62.4004" type="curve" smooth="yes"/>
      <point x="315.486" y="62.4004"/>
      <point x="342" y="164.394"/>
      <point x="342" y="316.2" type="curve" smooth="yes"/>
      <point x="342" y="468.006"/>
      <point x="315.487" y="572"/>
    </contour>
    <contour>
      <point x="266" y="-7" type="curve" smooth="yes"/>
      <point x="114.683" y="-7"/>
      <point x="20" y="130.491"/>
      <point x="20" y="317" type="curve" smooth="yes"/>
      <point x="20" y="503.509"/>
      <point x="115.683" y="640"/>
      <point x="266" y="640" type="curve" smooth="yes"/>
      <point x="417.317" y="640"/>
      <point x="512" y="503.509"/>
      <point x="512" y="317" type="curve" smooth="yes"/>
      <point x="512" y="130.491"/>
      <point x="417.317" y="-7"/>
    </contour>
  </outline>
</glyph>
<glyph name="one" format="1">
  <advance width="550"/>
  <unicode hex="0031"/>
  <outline>
    <contour>
      <point x="407" y="34" type="curve" smooth="yes"/>
      <point x="414" y="34" type="line"/>
      <point x="414" y="0" type="line"/>
      <point x="176" y="0" type="line"/>
      <point x="176" y="34" type="line"/>
      <point x="183" y="34" type="line" smooth="yes"/>
      <point x="202.911" y="34"/>
      <point x="212" y="46.9912"/>
      <point x="212" y="57.6855" type="curve" smooth="yes"/>
      <point x="212" y="486.581" type="line" smooth="yes"/>
      <point x="212" y="504.983"/>
      <point x="211.072" y="526.998"/>
      <point x="200" y="526.998" type="curve" smooth="yes"/>
      <point x="188.611" y="526.998"/>
      <point x="177.416" y="521.308"/>
      <point x="171" y="519.014" type="curve"/>
      <point x="171" y="561.999" type="line"/>
      <point x="208.168" y="576.132"/>
      <point x="310.458" y="612.979"/>
      <point x="342.145" y="637.042" type="curve" smooth="yes"/>
      <point x="345.714" y="639.753"/>
      <point x="353.473" y="644.135"/>
      <point x="360" y="644.135" type="curve" smooth="yes"/>
      <point x="370.076" y="644.135"/>
      <point x="378" y="638.288"/>
      <point x="378" y="627.382" type="curve" smooth="yes"/>
      <point x="378" y="57.6875" type="line" smooth="yes"/>
      <point x="378" y="46.1611"/>
      <point x="387.761" y="34"/>
    </contour>
  </outline>
</glyph>
<glyph name="two" format="1">
  <advance width="550"/>
  <unicode hex="0032"/>
  <outline>
    <contour>
      <point x="128.987" y="507.993" type="curve"/>
      <point x="101.089" y="532.455" type="line"/>
      <point x="104.016" y="537.726"/>
      <point x="144.04" y="642"/>
      <point x="286.538" y="642" type="curve" smooth="yes"/>
      <point x="423.443" y="642"/>
      <point x="497" y="583.771"/>
      <point x="497" y="501.295" type="curve" smooth="yes"/>
      <point x="497" y="440.816"/>
      <point x="489.766" y="385.755"/>
      <point x="409.979" y="279.566" type="curve" smooth="yes"/>
      <point x="345.366" y="193.574"/>
      <point x="285.385" y="106.738"/>
      <point x="252.124" y="68" type="curve"/>
      <point x="390" y="68" type="line" smooth="yes"/>
      <point x="438.076" y="68"/>
      <point x="463.376" y="86.4727"/>
      <point x="472.318" y="115.088" type="curve" smooth="yes"/>
      <point x="474.095" y="120.771" type="line"/>
      <point x="503.565" y="115.704" type="line"/>
      <point x="460.879" y="0" type="line"/>
      <point x="51" y="0" type="line"/>
      <point x="51" y="42.5293" type="line"/>
      <point x="153.812" y="162.497"/>
      <point x="217.958" y="265.564"/>
      <point x="274.038" y="343.899" type="curve" smooth="yes"/>
      <point x="310.17" y="394.369"/>
      <point x="341.031" y="450.816"/>
      <point x="341.031" y="491.283" type="curve" smooth="yes"/>
      <point x="341.031" y="546.405"/>
      <point x="316.057" y="587"/>
      <point x="262.904" y="587" type="curve" smooth="yes"/>
      <point x="214.168" y="587"/>
      <point x="161.497" y="548.892"/>
    </contour>
  </outline>
</glyph>
<glyph name="three" format="1">
  <advance width="550"/>
  <unicode hex="0033"/>
  <outline>
    <contour>
      <point x="84.8809" y="506.22" type="curve"/>
      <point x="54.9209" y="529.179" type="line"/>
      <point x="57.417" y="532.786"/>
      <point x="131.061" y="640"/>
      <point x="267.611" y="640" type="curve" smooth="yes"/>
      <point x="378.854" y="640"/>
      <point x="454" y="599.884"/>
      <point x="454" y="537.224" type="curve" smooth="yes"/>
      <point x="454" y="477.987"/>
      <point x="359.098" y="424.744"/>
      <point x="297.718" y="379.701" type="curve"/>
      <point x="393.733" y="370.653"/>
      <point x="506" y="297.072"/>
      <point x="506" y="197.573" type="curve" smooth="yes"/>
      <point x="506" y="62.1875"/>
      <point x="379.069" y="-7"/>
      <point x="223.723" y="-7" type="curve" smooth="yes"/>
      <point x="146.59" y="-7"/>
      <point x="46.7383" y="12.124"/>
      <point x="46.7383" y="62.3125" type="curve" smooth="yes"/>
      <point x="46.7383" y="75.585"/>
      <point x="56.8965" y="96.5781"/>
      <point x="73.9775" y="96.5781" type="curve" smooth="yes"/>
      <point x="86.7148" y="96.5781"/>
      <point x="106.672" y="86.4961"/>
      <point x="117.222" y="78.584" type="curve"/>
      <point x="136.332" y="64.0234"/>
      <point x="170.913" y="29"/>
      <point x="213.723" y="29" type="curve" smooth="yes"/>
      <point x="292.535" y="29"/>
      <point x="342" y="102.294"/>
      <point x="342" y="173.435" type="curve" smooth="yes"/>
      <point x="342" y="270.153"/>
      <point x="271.987" y="311"/>
      <point x="207.889" y="311" type="curve" smooth="yes"/>
      <point x="169.025" y="311"/>
      <point x="137.82" y="280.891"/>
      <point x="124" y="280.891" type="curve" smooth="yes"/>
      <point x="114.934" y="280.891"/>
      <point x="104.186" y="285.996"/>
      <point x="104.186" y="295.615" type="curve" smooth="yes"/>
      <point x="104.186" y="302.897"/>
      <point x="115.916" y="313.562"/>
      <point x="115.976" y="313.608" type="curve"/>
      <point x="120.297" y="317.743"/>
      <point x="279.667" y="443.222"/>
      <point x="279.667" y="515.688" type="curve" smooth="yes"/>
      <point x="279.667" y="562.219"/>
      <point x="264.254" y="584"/>
      <point x="215.667" y="584" type="curve" smooth="yes"/>
      <point x="162.316" y="584"/>
      <point x="118.972" y="550.347"/>
    </contour>
  </outline>
</glyph>
<glyph name="four" format="1">
  <advance width="550"/>
  <unicode hex="0034"/>
  <outline>
    <contour>
      <point x="277.777" y="332.055" type="curve"/>
      <point x="277.777" y="489.425" type="line"/>
      <point x="227.937" y="423.547"/>
      <point x="202.517" y="385.09"/>
      <point x="156.593" y="332.937" type="curve"/>
      <point x="209.489" y="332.542"/>
      <point x="248.676" y="332.401"/>
    </contour>
    <contour>
      <point x="43.1475" y="301.039" type="curve"/>
      <point x="134.97" y="413.805"/>
      <point x="303" y="636.333"/>
      <point x="310.842" y="638" type="curve" smooth="yes"/>
      <point x="323.654" y="640.723"/>
      <point x="394.262" y="642"/>
      <point x="407.178" y="642" type="curve" smooth="yes"/>
      <point x="419.876" y="642"/>
      <point x="435.5" y="634.694"/>
      <point x="435.5" y="617.389" type="curve" smooth="yes"/>
      <point x="435.5" y="333.006" type="line"/>
      <point x="474.561" y="333.729"/>
      <point x="484.042" y="336.554"/>
      <point x="509.896" y="342.228" type="curve"/>
      <point x="507.225" y="331.225"/>
      <point x="505.5" y="308.388"/>
      <point x="505.5" y="299.426" type="curve" smooth="yes"/>
      <point x="505.5" y="288.159"/>
      <point x="507.168" y="279.429"/>
      <point x="508.399" y="271" type="curve"/>
      <point x="433.5" y="271" type="line"/>
      <point x="433.5" y="14.6221" type="line" smooth="yes"/>
      <point x="433.5" y="9.12988"/>
      <point x="430.761" y="0"/>
      <point x="420.5" y="0" type="curve" smooth="yes"/>
      <point x="291.5" y="0" type="line" smooth="yes"/>
      <point x="282.078" y="0"/>
      <point x="277.195" y="6.70117"/>
      <point x="277.195" y="12.6729" type="curve" smooth="yes"/>
      <point x="277.777" y="271" type="line"/>
      <point x="51.5" y="271" type="line" smooth="yes"/>
      <point x="45.0889" y="271"/>
      <point x="37.0146" y="276.118"/>
      <point x="37.0146" y="285.25" type="curve" smooth="yes"/>
      <point x="37.0146" y="290.936"/>
      <point x="39.4189" y="296.611"/>
    </contour>
  </outline>
</glyph>
<glyph name="five" format="1">
  <advance width="550"/>
  <unicode hex="0035"/>
  <outline>
    <contour>
      <point x="450.286" y="617.586" type="curve" smooth="yes"/>
      <point x="456.503" y="617.586"/>
      <point x="469.107" y="615.685"/>
      <point x="469.107" y="604.443" type="curve" smooth="yes"/>
      <point x="469.107" y="595.456"/>
      <point x="452.919" y="554.444"/>
      <point x="447.147" y="539.466" type="curve"/>
      <point x="185.766" y="539.466" type="line"/>
      <point x="148.711" y="391.991" type="line"/>
      <point x="193.352" y="413.039"/>
      <point x="226.885" y="420"/>
      <point x="271.834" y="420" type="curve" smooth="yes"/>
      <point x="391.741" y="420"/>
      <point x="508.286" y="356.051"/>
      <point x="508.286" y="210.367" type="curve" smooth="yes"/>
      <point x="508.286" y="79.5342"/>
      <point x="389.406" y="-5"/>
      <point x="235.063" y="-5" type="curve" smooth="yes"/>
      <point x="166.528" y="-5"/>
      <point x="120.345" y="3"/>
      <point x="69.3105" y="55.0752" type="curve"/>
      <point x="65.5146" y="58.8711"/>
      <point x="62.1025" y="66.8047"/>
      <point x="62.1025" y="71" type="curve" smooth="yes"/>
      <point x="62.1025" y="81.5225"/>
      <point x="70.5293" y="87.6016"/>
      <point x="79.4199" y="87.6016" type="curve" smooth="yes"/>
      <point x="84.2314" y="87.6016"/>
      <point x="89.1787" y="85.8213"/>
      <point x="93" y="82" type="curve" smooth="yes"/>
      <point x="122.464" y="51.6152"/>
      <point x="176.412" y="43"/>
      <point x="217.412" y="43" type="curve" smooth="yes"/>
      <point x="306.117" y="43"/>
      <point x="346.286" y="134.108"/>
      <point x="346.286" y="190.368" type="curve" smooth="yes"/>
      <point x="346.286" y="248.546"/>
      <point x="310.934" y="312"/>
      <point x="226.412" y="312" type="curve" smooth="yes"/>
      <point x="175.844" y="312"/>
      <point x="98.1348" y="289.599"/>
      <point x="41" y="254.031" type="curve"/>
      <point x="124.758" y="611" type="line"/>
      <point x="388.286" y="611" type="line" smooth="yes"/>
      <point x="411.366" y="611"/>
      <point x="432.574" y="617.586"/>
    </contour>
  </outline>
</glyph>
<glyph name="six" format="1">
  <advance width="550"/>
  <unicode hex="0036"/>
  <outline>
    <contour>
      <point x="459.188" y="604.465" type="curve" smooth="yes"/>
      <point x="459.188" y="597.264"/>
      <point x="449.126" y="589.929"/>
      <point x="438.809" y="587.128" type="curve" smooth="yes"/>
      <point x="404.297" y="578.467"/>
      <point x="351.051" y="560.184"/>
      <point x="300.897" y="523.624" type="curve" smooth="yes"/>
      <point x="215.956" y="461.705"/>
      <point x="185" y="373.545"/>
      <point x="185" y="259.754" type="curve" smooth="yes"/>
      <point x="185" y="159.935"/>
      <point x="237.028" y="36"/>
      <point x="307.246" y="36" type="curve" smooth="yes"/>
      <point x="351.713" y="36"/>
      <point x="384" y="95.2373"/>
      <point x="384" y="195.278" type="curve" smooth="yes"/>
      <point x="384" y="291.335"/>
      <point x="331.285" y="332.37"/>
      <point x="303.619" y="332.37" type="curve" smooth="yes"/>
      <point x="279.228" y="332.37"/>
      <point x="264.646" y="326.546"/>
      <point x="245.015" y="306.585" type="curve"/>
      <point x="240.137" y="301.678"/>
      <point x="234.928" y="299.859"/>
      <point x="230.705" y="299.859" type="curve" smooth="yes"/>
      <point x="221.016" y="299.859"/>
      <point x="218.896" y="313.147"/>
      <point x="218.896" y="318.255" type="curve" smooth="yes"/>
      <point x="218.896" y="322.517"/>
      <point x="220.216" y="326.793"/>
      <point x="222.832" y="330.718" type="curve"/>
      <point x="243.225" y="357.525"/>
      <point x="292.718" y="399.335"/>
      <point x="351.316" y="399.335" type="curve" smooth="yes"/>
      <point x="449.053" y="399.335"/>
      <point x="531" y="363.867"/>
      <point x="531" y="207.367" type="curve" smooth="yes"/>
      <point x="531" y="84.8271"/>
      <point x="446.161" y="-8"/>
      <point x="312.176" y="-8" type="curve" smooth="yes"/>
      <point x="159.903" y="-8"/>
      <point x="22" y="64.6553"/>
      <point x="22" y="252.348" type="curve" smooth="yes"/>
      <point x="22" y="439.751"/>
      <point x="151.834" y="514.101"/>
      <point x="226.316" y="561.298" type="curve" smooth="yes"/>
      <point x="283.68" y="597.647"/>
      <point x="385.63" y="625.893"/>
      <point x="436.601" y="635.858" type="curve" smooth="yes"/>
      <point x="449.581" y="637.875" type="line"/>
      <point x="452.089" y="633.453" type="line" smooth="yes"/>
      <point x="452.183" y="633.292"/>
      <point x="459.188" y="614.938"/>
    </contour>
  </outline>
</glyph>
<glyph name="seven" format="1">
  <advance width="530"/>
  <unicode hex="0037"/>
  <outline>
    <contour>
      <point x="320.423" y="544" type="curve"/>
      <point x="83.7607" y="544" type="line" smooth="yes"/>
      <point x="67.9678" y="544"/>
      <point x="62.2588" y="532.43"/>
      <point x="60.3975" y="528" type="curve"/>
      <point x="54.7607" y="528" type="line" smooth="yes"/>
      <point x="47.2363" y="528"/>
      <point x="45.8867" y="534.977"/>
      <point x="45.8867" y="534.977" type="curve" smooth="yes"/>
      <point x="46.085" y="541.694" type="line" smooth="yes"/>
      <point x="49.2432" y="558.608"/>
      <point x="53.9385" y="591.763"/>
      <point x="57.2617" y="607.6" type="curve" smooth="yes"/>
      <point x="58.8379" y="615.11"/>
      <point x="60.1318" y="622"/>
      <point x="69.7607" y="622" type="curve" smooth="yes"/>
      <point x="477.761" y="622" type="line" smooth="yes"/>
      <point x="490.179" y="622"/>
      <point x="494.751" y="619.14"/>
      <point x="494.751" y="614.461" type="curve" smooth="yes"/>
      <point x="494.751" y="610.694"/>
      <point x="491.73" y="604.899"/>
      <point x="488.933" y="601.093" type="curve"/>
      <point x="484.6" y="594.59" type="line" smooth="yes"/>
      <point x="361.37" y="409.295"/>
      <point x="255.739" y="169.026"/>
      <point x="227.785" y="0" type="curve"/>
      <point x="61.6201" y="0" type="line"/>
      <point x="87.2559" y="164.938"/>
      <point x="208.295" y="393.516"/>
    </contour>
  </outline>
</glyph>
<glyph name="eight" format="1">
  <advance width="530"/>
  <unicode hex="0038"/>
  <outline>
    <contour>
      <point x="186.096" y="148.314" type="curve" smooth="yes"/>
      <point x="186.096" y="83.1016"/>
      <point x="225.41" y="35"/>
      <point x="276.272" y="35" type="curve" smooth="yes"/>
      <point x="325.604" y="35"/>
      <point x="354.269" y="96.8125"/>
      <point x="354.269" y="142.019" type="curve" smooth="yes"/>
      <point x="354.269" y="191.739"/>
      <point x="300.309" y="249.938"/>
      <point x="253.505" y="280.765" type="curve"/>
      <point x="208.578" y="239.146"/>
      <point x="186.096" y="195.186"/>
    </contour>
    <contour>
      <point x="209.613" y="515.715" type="curve" smooth="yes"/>
      <point x="209.613" y="479.623"/>
      <point x="237.493" y="442.299"/>
      <point x="274.861" y="420.971" type="curve"/>
      <point x="302.546" y="442.299"/>
      <point x="336.931" y="476.48"/>
      <point x="336.931" y="517.573" type="curve" smooth="yes"/>
      <point x="336.931" y="576.75"/>
      <point x="311.752" y="604"/>
      <point x="270.272" y="604" type="curve" smooth="yes"/>
      <point x="228.485" y="604"/>
      <point x="209.613" y="556.044"/>
    </contour>
    <contour>
      <point x="474" y="507.779" type="curve" smooth="yes"/>
      <point x="474" y="441.196"/>
      <point x="385.373" y="402.048"/>
      <point x="339.516" y="366.468" type="curve"/>
      <point x="423.285" y="306.949"/>
      <point x="506" y="257.122"/>
      <point x="506" y="146.674" type="curve" smooth="yes"/>
      <point x="506" y="56.2744"/>
      <point x="408.197" y="-8"/>
      <point x="269.182" y="-8" type="curve" smooth="yes"/>
      <point x="149.981" y="-8"/>
      <point x="28" y="41.0088"/>
      <point x="28" y="149.61" type="curve" smooth="yes"/>
      <point x="28" y="238.72"/>
      <point x="102.25" y="280.471"/>
      <point x="180.244" y="340.187" type="curve"/>
      <point x="122.35" y="385.062"/>
      <point x="60" y="419.857"/>
      <point x="60" y="509.737" type="curve" smooth="yes"/>
      <point x="60" y="563.459"/>
      <point x="113.382" y="643"/>
      <point x="270.272" y="643" type="curve" smooth="yes"/>
      <point x="379.469" y="643"/>
      <point x="474" y="597.563"/>
    </contour>
  </outline>
</glyph>
<glyph name="nine" format="1">
  <advance width="510"/>
  <unicode hex="0039"/>
  <outline>
    <contour>
      <point x="106.908" y="12" type="curve" smooth="yes"/>
      <point x="106.908" y="19.3096"/>
      <point x="110.651" y="35.8643"/>
      <point x="119.905" y="38.8799" type="curve" smooth="yes"/>
      <point x="151.407" y="49.1465"/>
      <point x="196.186" y="73.21"/>
      <point x="246.622" y="109.139" type="curve"/>
      <point x="342.039" y="174.376"/>
      <point x="357" y="246.771"/>
      <point x="357" y="387.179" type="curve" smooth="yes"/>
      <point x="357" y="530.062"/>
      <point x="299.506" y="597"/>
      <point x="241.954" y="597" type="curve" smooth="yes"/>
      <point x="200.375" y="597"/>
      <point x="167" y="536.327"/>
      <point x="167" y="457.396" type="curve" smooth="yes"/>
      <point x="167" y="384.255"/>
      <point x="183.274" y="306.267"/>
      <point x="241.114" y="306.267" type="curve" smooth="yes"/>
      <point x="267.262" y="306.267"/>
      <point x="293" y="313"/>
      <point x="301.005" y="321.511" type="curve" smooth="yes"/>
      <point x="302.26" y="322.778" type="line"/>
      <point x="306.427" y="327.007"/>
      <point x="310.831" y="329.932"/>
      <point x="315.964" y="329.932" type="curve" smooth="yes"/>
      <point x="321.728" y="329.932"/>
      <point x="330.647" y="325.146"/>
      <point x="330.647" y="318.382" type="curve" smooth="yes"/>
      <point x="330.647" y="312.793"/>
      <point x="327.864" y="299.604"/>
      <point x="324" y="294" type="curve" smooth="yes"/>
      <point x="297.653" y="255.793"/>
      <point x="255.434" y="244"/>
      <point x="216.701" y="244" type="curve" smooth="yes"/>
      <point x="122.994" y="244"/>
      <point x="17" y="299.489"/>
      <point x="17" y="445.465" type="curve" smooth="yes"/>
      <point x="17" y="559.444"/>
      <point x="123.249" y="641"/>
      <point x="243.034" y="641" type="curve" smooth="yes"/>
      <point x="386.303" y="641"/>
      <point x="495" y="553.359"/>
      <point x="495" y="379.581" type="curve" smooth="yes"/>
      <point x="495" y="200.604"/>
      <point x="376.676" y="125.78"/>
      <point x="308.453" y="73.666" type="curve"/>
      <point x="253.365" y="33.7295"/>
      <point x="171.151" y="3.33496"/>
      <point x="122.767" y="-8.77344" type="curve" smooth="yes"/>
      <point x="124.316" y="-10.1953" type="line"/>
      <point x="121.629" y="-4.91406"/>
      <point x="106.908" y="5.25879"/>
    </contour>
  </outline>
</glyph>
<glyph name="colon" format="1">
  <advance width="259"/>
  <unicode hex="003A"/>
  <outline>
    <contour>
      <point x="132.077" y="275" type="curve" smooth="yes"/>
      <point x="78.7363" y="275"/>
      <point x="35.4922" y="317.249"/>
      <point x="35.4922" y="369.361" type="curve" smooth="yes"/>
      <point x="35.4922" y="421.475"/>
      <point x="78.7354" y="463.725"/>
      <point x="132.077" y="463.725" type="curve" smooth="yes"/>
      <point x="185.418" y="463.725"/>
      <point x="228.664" y="421.475"/>
      <point x="228.664" y="369.361" type="curve" smooth="yes"/>
      <point x="228.664" y="317.249"/>
      <point x="185.418" y="275"/>
    </contour>
    <contour>
      <point x="132.077" y="-18" type="curve" smooth="yes"/>
      <point x="78.7363" y="-18"/>
      <point x="35.4922" y="24.249"/>
      <point x="35.4922" y="76.3613" type="curve" smooth="yes"/>
      <point x="35.4922" y="128.475"/>
      <point x="78.7354" y="170.725"/>
      <point x="132.077" y="170.725" type="curve" smooth="yes"/>
      <point x="185.418" y="170.725"/>
      <point x="228.664" y="128.475"/>
      <point x="228.664" y="76.3613" type="curve" smooth="yes"/>
      <point x="228.664" y="24.249"/>
      <point x="185.418" y="-18"/>
    </contour>
  </outline>
</glyph>
<glyph name="equal" format="1">
  <advance width="421"/>
  <unicode hex="003D"/>
  <outline>
    <contour>
      <point x="85.7861" y="320.359" type="line" smooth="yes"/>
      <point x="73.7568" y="324.369"/>
      <point x="67" y="347.217"/>
      <point x="67" y="368" type="curve" smooth="yes"/>
      <point x="67" y="387.826"/>
      <point x="73.8525" y="414"/>
      <point x="88" y="414" type="curve" smooth="yes"/>
      <point x="337" y="414" type="line" smooth="yes"/>
      <point x="351.676" y="414"/>
      <point x="357" y="384.131"/>
      <point x="357" y="366" type="curve" smooth="yes"/>
      <point x="357" y="349.266"/>
      <point x="351.497" y="320"/>
      <point x="337" y="320" type="curve" smooth="yes"/>
      <point x="86.8643" y="320" type="line"/>
    </contour>
    <contour>
      <point x="85.7861" y="179.359" type="line" smooth="yes"/>
      <point x="73.7568" y="183.369"/>
      <point x="67" y="206.217"/>
      <point x="67" y="227" type="curve" smooth="yes"/>
      <point x="67" y="246.826"/>
      <point x="73.8525" y="273"/>
      <point x="88" y="273" type="curve" smooth="yes"/>
      <point x="337" y="273" type="line" smooth="yes"/>
      <point x="351.676" y="273"/>
      <point x="357" y="243.131"/>
      <point x="357" y="225" type="curve" smooth="yes"/>
      <point x="357" y="208.266"/>
      <point x="351.497" y="179"/>
      <point x="337" y="179" type="curve" smooth="yes"/>
      <point x="86.8643" y="179" type="line"/>
    </contour>
  </outline>
</glyph>
<glyph name="greater" format="1">
  <advance width="504"/>
  <unicode hex="003E"/>
  <outline>
    <contour>
      <point x="297.792" y="324" type="line"/>
      <point x="54" y="461.957" type="line"/>
      <point x="54" y="582.016" type="line"/>
      <point x="456" y="354.078" type="line"/>
      <point x="456" y="289.922" type="line"/>
      <point x="54" y="61.9844" type="line"/>
      <point x="54" y="186.043" type="line"/>
    </contour>
  </outline>
</glyph>
<glyph name="question" format="1">
  <advance width="512"/>
  <unicode hex="003F"/>
  <outline>
    <contour>
      <point x="235.68" y="-11.585" type="curve" smooth="yes"/>
      <point x="191.079" y="-11.585"/>
      <point x="154.922" y="23.7412"/>
      <point x="154.922" y="67.3135" type="curve" smooth="yes"/>
      <point x="154.922" y="110.888"/>
      <point x="191.079" y="146.214"/>
      <point x="235.68" y="146.214" type="curve" smooth="yes"/>
      <point x="280.279" y="146.214"/>
      <point x="316.439" y="110.888"/>
      <point x="316.439" y="67.3135" type="curve" smooth="yes"/>
      <point x="316.439" y="23.7412"/>
      <point x="280.279" y="-11.585"/>
    </contour>
    <contour>
      <point x="183.042" y="219.238" type="line" smooth="yes"/>
      <point x="177.968" y="265.601"/>
      <point x="168.118" y="340.269"/>
      <point x="168.117" y="340.275" type="curve" smooth="yes"/>
      <point x="168.08" y="340.637" type="line"/>
      <point x="168.08" y="341" type="line" smooth="yes"/>
      <point x="168.08" y="395.137"/>
      <point x="218.2" y="433.912"/>
      <point x="254.312" y="465.199" type="curve" smooth="yes"/>
      <point x="302" y="506.515"/>
      <point x="316" y="535.983"/>
      <point x="316" y="593" type="curve" smooth="yes"/>
      <point x="316" y="654.892"/>
      <point x="279.795" y="682"/>
      <point x="239.444" y="682" type="curve" smooth="yes"/>
      <point x="199.109" y="682"/>
      <point x="172.425" y="645.072"/>
      <point x="168.271" y="626.448" type="curve" smooth="yes"/>
      <point x="162.26" y="599.505"/>
      <point x="137.419" y="559"/>
      <point x="105.444" y="559" type="curve" smooth="yes"/>
      <point x="71.3252" y="559"/>
      <point x="41.8008" y="591.641"/>
      <point x="41.8008" y="625" type="curve" smooth="yes"/>
      <point x="41.8008" y="704.398"/>
      <point x="165.646" y="742.333"/>
      <point x="243.444" y="742.333" type="curve" smooth="yes"/>
      <point x="331.029" y="742.333"/>
      <point x="466.444" y="682.975"/>
      <point x="466.444" y="569" type="curve" smooth="yes"/>
      <point x="466.444" y="509.757"/>
      <point x="437.761" y="468.55"/>
      <point x="383.279" y="426.461" type="curve" smooth="yes"/>
      <point x="347.441" y="398.774"/>
      <point x="298.678" y="360.31"/>
      <point x="297.988" y="348.589" type="curve"/>
      <point x="297.988" y="348.589"/>
      <point x="286" y="232.576"/>
      <point x="286" y="220" type="curve" smooth="yes"/>
      <point x="286" y="213" type="line"/>
      <point x="183.725" y="213" type="line"/>
    </contour>
  </outline>
</glyph>
<glyph name="at" format="1">
  <advance width="856"/>
  <unicode hex="0040"/>
  <outline>
    <contour>
      <point x="451.399" y="-17.4502" type="curve" smooth="yes"/>
      <point x="573.981" y="-17.4502"/>
      <point x="660.396" y="19.2188"/>
      <point x="691.754" y="48.1445" type="curve" smooth="yes"/>
      <point x="693.765" y="49.999" type="line"/>
      <point x="696.5" y="49.999" type="line" smooth="yes"/>
      <point x="702.419" y="49.999"/>
      <point x="713.311" y="39.9795"/>
      <point x="713.311" y="33" type="curve" smooth="yes"/>
      <point x="713.311" y="28.7979"/>
      <point x="711.415" y="26.708"/>
      <point x="708.23" y="23.6572" type="curve" smooth="yes"/>
      <point x="673.528" y="-9.58887"/>
      <point x="612.616" y="-66.9473"/>
      <point x="451.399" y="-66.9473" type="curve" smooth="yes"/>
      <point x="304.798" y="-66.9473"/>
      <point x="49.1514" y="-19.293"/>
      <point x="49.1514" y="211.45" type="curve" smooth="yes"/>
      <point x="49.1514" y="402.321"/>
      <point x="246.029" y="509.947"/>
      <point x="482.1" y="509.947" type="curve" smooth="yes"/>
      <point x="646.573" y="509.947"/>
      <point x="808.848" y="439.238"/>
      <point x="808.848" y="256.25" type="curve" smooth="yes"/>
      <point x="808.848" y="123.527"/>
      <point x="697.462" y="56.1016"/>
      <point x="568.6" y="56.1016" type="curve" smooth="yes"/>
      <point x="527.784" y="56.1016"/>
      <point x="496.291" y="86.2852"/>
      <point x="493.151" y="91.4736" type="curve"/>
      <point x="482.087" y="87.7803"/>
      <point x="448.98" y="55.8496"/>
      <point x="393.6" y="55.8496" type="curve" smooth="yes"/>
      <point x="314.823" y="55.8496"/>
      <point x="227.3" y="107.071"/>
      <point x="227.3" y="189.95" type="curve" smooth="yes"/>
      <point x="227.3" y="345.497"/>
      <point x="372.2" y="389.599"/>
      <point x="472.301" y="389.599" type="curve" smooth="yes"/>
      <point x="502.412" y="389.599"/>
      <point x="537.307" y="372.75"/>
      <point x="543.899" y="372.75" type="curve" smooth="yes"/>
      <point x="550.601" y="372.75"/>
      <point x="558.639" y="378.998"/>
      <point x="561.684" y="382.553" type="curve" smooth="yes"/>
      <point x="563.797" y="385.021" type="line"/>
      <point x="567.046" y="385" type="line" smooth="yes"/>
      <point x="580.869" y="384.91"/>
      <point x="617.982" y="376.918"/>
      <point x="624.95" y="369.949" type="curve" smooth="yes"/>
      <point x="628.277" y="366.621" type="line"/>
      <point x="626.451" y="362.283" type="line" smooth="yes"/>
      <point x="620.817" y="344.151"/>
      <point x="616.536" y="326.735"/>
      <point x="610.723" y="293.678" type="curve"/>
      <point x="578.96" y="130.588" type="line"/>
      <point x="580.685" y="117.945"/>
      <point x="591.771" y="105.05"/>
      <point x="619.399" y="105.05" type="curve" smooth="yes"/>
      <point x="664.604" y="105.05"/>
      <point x="688.351" y="180.699"/>
      <point x="688.351" y="253.25" type="curve" smooth="yes"/>
      <point x="688.351" y="395.854"/>
      <point x="621.244" y="464.45"/>
      <point x="465.1" y="464.45" type="curve" smooth="yes"/>
      <point x="311.563" y="464.45"/>
      <point x="186.648" y="363.537"/>
      <point x="186.648" y="211.45" type="curve" smooth="yes"/>
      <point x="186.648" y="48.1885"/>
      <point x="331.271" y="-17.4502"/>
    </contour>
    <contour>
      <point x="363.813" y="202.66" type="curve" smooth="yes"/>
      <point x="363.813" y="169.324"/>
      <point x="377.469" y="119.983"/>
      <point x="423.892" y="119.983" type="curve" smooth="yes"/>
      <point x="457.271" y="119.983"/>
      <point x="476.754" y="142.944"/>
      <point x="479.848" y="165.149" type="curve" smooth="yes"/>
      <point x="479.888" y="165.438" type="line"/>
      <point x="510.098" y="295.825" type="line"/>
      <point x="509.581" y="317.865"/>
      <point x="493.121" y="338.068"/>
      <point x="462.115" y="338.068" type="curve" smooth="yes"/>
      <point x="418.323" y="338.068"/>
      <point x="363.813" y="275.788"/>
    </contour>
  </outline>
</glyph>
<glyph name="A" format="1">
  <advance width="885"/>
  <unicode hex="0041"/>
  <outline>
    <contour>
      <point x="825" y="17" type="move" smooth="yes"/>
    </contour>
    <contour>
      <point x="822" y="0" type="curve"/>
      <point x="521" y="0" type="line"/>
      <point x="521" y="0"/>
      <point x="517" y="8.24805"/>
      <point x="517" y="17" type="curve" smooth="yes"/>
      <point x="517" y="25"/>
      <point x="521" y="34"/>
      <point x="521" y="34" type="curve"/>
      <point x="528" y="34" type="line" smooth="yes"/>
      <point x="550" y="34"/>
      <point x="570.481" y="48.9727"/>
      <point x="570.481" y="70.3545" type="curve" smooth="yes"/>
      <point x="570.481" y="75.4668"/>
      <point x="570.161" y="81.0752"/>
      <point x="567.525" y="87.3125" type="curve" smooth="yes"/>
      <point x="479.86" y="295" type="line"/>
      <point x="278.412" y="295" type="line" smooth="yes"/>
      <point x="277.286" y="295"/>
      <point x="277.262" y="294.868"/>
      <point x="277.262" y="294.868" type="curve"/>
      <point x="277.069" y="294.694"/>
      <point x="276.338" y="293.593"/>
      <point x="275.287" y="291.204" type="curve" smooth="yes"/>
      <point x="189.447" y="92.0742" type="line"/>
      <point x="183.562" y="78.875"/>
      <point x="181.477" y="69.7002"/>
      <point x="181.477" y="63.5303" type="curve" smooth="yes"/>
      <point x="181.477" y="45.1162"/>
      <point x="195" y="34"/>
      <point x="215" y="34" type="curve" smooth="yes"/>
      <point x="222" y="34" type="line"/>
      <point x="222" y="34"/>
      <point x="226" y="25.752"/>
      <point x="226" y="17" type="curve" smooth="yes"/>
      <point x="226" y="9"/>
      <point x="222" y="0"/>
      <point x="222" y="0" type="curve"/>
      <point x="50" y="0" type="line"/>
      <point x="50" y="0"/>
      <point x="46" y="8.24805"/>
      <point x="46" y="17" type="curve" smooth="yes"/>
      <point x="46" y="25"/>
      <point x="50" y="34"/>
      <point x="50" y="34" type="curve"/>
      <point x="57" y="34" type="line" smooth="yes"/>
      <point x="88.5342" y="34"/>
      <point x="94.8418" y="54.5791"/>
      <point x="107.589" y="81.1318" type="curve"/>
      <point x="380.123" y="708.659" type="line"/>
      <point x="381.52" y="709.753" type="line" smooth="yes"/>
      <point x="395.367" y="720.6"/>
      <point x="465.04" y="718.687"/>
      <point x="476.423" y="728.493" type="curve" smooth="yes"/>
      <point x="487.179" y="735.309" type="line"/>
      <point x="775.399" y="61.5391" type="line"/>
      <point x="782.771" y="46.6084"/>
      <point x="796" y="34"/>
      <point x="815" y="34" type="curve" smooth="yes"/>
      <point x="822" y="34" type="line"/>
      <point x="822" y="34"/>
      <point x="825" y="25.752"/>
      <point x="825" y="17" type="curve" smooth="yes"/>
      <point x="825" y="9"/>
      <point x="822" y="0"/>
    </contour>
    <contour>
      <point x="379" y="532" type="line"/>
      <point x="303.264" y="358" type="line"/>
      <point x="452.952" y="358" type="line"/>
    </contour>
  </outline>
</glyph>
<glyph name="B" format="1">
  <advance width="729"/>
  <unicode hex="0042"/>
  <outline>
    <contour>
      <point x="126.56" y="0" type="move" smooth="yes"/>
    </contour>
    <contour>
      <point x="54" y="0" type="line"/>
      <point x="54" y="0"/>
      <point x="50" y="8.24805"/>
      <point x="50" y="17" type="curve" smooth="yes"/>
      <point x="50" y="25"/>
      <point x="54" y="34"/>
      <point x="54" y="34" type="curve"/>
      <point x="76.8252" y="34.6328"/>
      <point x="106.018" y="47.3896"/>
      <point x="106.242" y="68.5674" type="curve" smooth="yes"/>
      <point x="107.829" y="184.559"/>
      <point x="109.146" y="286.503"/>
      <point x="109.146" y="402.29" type="curve" smooth="yes"/>
      <point x="109.146" y="488.706"/>
      <point x="106.362" y="570.898"/>
      <point x="106.362" y="657.178" type="curve" smooth="yes"/>
      <point x="106.362" y="681.377"/>
      <point x="86.7334" y="696.687"/>
      <point x="54" y="697" type="curve"/>
      <point x="54" y="697"/>
      <point x="50" y="704.248"/>
      <point x="50" y="713" type="curve" smooth="yes"/>
      <point x="50" y="721"/>
      <point x="54" y="730"/>
      <point x="54" y="730" type="curve"/>
      <point x="57.582" y="730.119"/>
      <point x="63.0557" y="730.151"/>
      <point x="68.7148" y="730.151" type="curve" smooth="yes"/>
      <point x="75.5342" y="730.151"/>
      <point x="82.624" y="730.104"/>
      <point x="87" y="730.104" type="curve" smooth="yes"/>
      <point x="150.797" y="730.104"/>
      <point x="306.941" y="734"/>
      <point x="374.408" y="734" type="curve" smooth="yes"/>
      <point x="525.889" y="734"/>
      <point x="629.256" y="658.194"/>
      <point x="629.256" y="549.554" type="curve" smooth="yes"/>
      <point x="629.256" y="472.432"/>
      <point x="547.366" y="416.331"/>
      <point x="466.271" y="391" type="curve"/>
      <point x="553.725" y="374.106"/>
      <point x="669.812" y="308.243"/>
      <point x="669.812" y="188.741" type="curve" smooth="yes"/>
      <point x="669.812" y="49.2686"/>
      <point x="561.572" y="-1.66699"/>
      <point x="440.187" y="-1.66699" type="curve" smooth="yes"/>
      <point x="366.26" y="-1.66699"/>
      <point x="212.759" y="0"/>
      <point x="140.56" y="0" type="curve" smooth="yes"/>
    </contour>
    <contour>
      <point x="487.078" y="198.265" type="curve" smooth="yes"/>
      <point x="487.078" y="305.607"/>
      <point x="399.413" y="357.693"/>
      <point x="316.153" y="358.477" type="curve"/>
      <point x="302.383" y="356.292" type="line"/>
      <point x="302.018" y="70.9873" type="line" smooth="yes"/>
      <point x="302.845" y="53.1543"/>
      <point x="309.609" y="43.6104"/>
      <point x="317.875" y="43.4434" type="curve"/>
      <point x="334.945" y="43.0049"/>
      <point x="321.628" y="42.3145"/>
      <point x="338.636" y="42.3145" type="curve" smooth="yes"/>
      <point x="431.044" y="42.3145"/>
      <point x="487.078" y="116.406"/>
    </contour>
    <contour>
      <point x="320.245" y="403.122" type="curve" smooth="yes"/>
      <point x="380.771" y="403.122"/>
      <point x="453.991" y="463.392"/>
      <point x="453.991" y="548.591" type="curve" smooth="yes"/>
      <point x="453.991" y="628.05"/>
      <point x="391.889" y="685.924"/>
      <point x="331.79" y="685.924" type="curve" smooth="yes"/>
      <point x="315.622" y="685.924"/>
      <point x="310.983" y="683.664"/>
      <point x="310.067" y="683.628" type="curve" smooth="yes"/>
      <point x="300.389" y="683.241"/>
      <point x="300.103" y="672.118"/>
      <point x="299.207" y="664.064" type="curve"/>
      <point x="300.494" y="519.556" type="line" smooth="yes"/>
      <point x="300.926" y="404.178" type="line"/>
      <point x="315.131" y="403.751"/>
      <point x="307.272" y="403.122"/>
    </contour>
  </outline>
</glyph>
<glyph name="C" format="1">
  <advance width="859"/>
  <unicode hex="0043"/>
  <outline>
    <contour>
      <point x="493.352" y="742.001" type="curve" smooth="yes"/>
      <point x="635.344" y="742.001"/>
      <point x="696.116" y="657.256"/>
      <point x="721" y="657.256" type="curve" smooth="yes"/>
      <point x="740.169" y="657.256"/>
      <point x="741.917" y="683.428"/>
      <point x="757.507" y="683.428" type="curve" smooth="yes"/>
      <point x="764.177" y="683.428"/>
      <point x="773.846" y="676.546"/>
      <point x="773.999" y="665.14" type="curve" smooth="yes"/>
      <point x="776.685" y="463.796" type="line"/>
      <point x="776.334" y="458.896"/>
      <point x="768.397" y="452.322"/>
      <point x="762.036" y="452.322" type="curve" smooth="yes"/>
      <point x="757.416" y="452.322"/>
      <point x="747.576" y="454.227"/>
      <point x="745.579" y="462.323" type="curve" smooth="yes"/>
      <point x="721.114" y="561.456"/>
      <point x="651.583" y="690.77"/>
      <point x="478.884" y="690.77" type="curve" smooth="yes"/>
      <point x="339.526" y="690.77"/>
      <point x="268" y="509.981"/>
      <point x="268" y="384.646" type="curve" smooth="yes"/>
      <point x="268" y="102.612"/>
      <point x="416.674" y="46"/>
      <point x="489.984" y="46" type="curve" smooth="yes"/>
      <point x="645.329" y="46"/>
      <point x="732.796" y="183.227"/>
      <point x="739.366" y="198.104" type="curve"/>
      <point x="787.599" y="182.664" type="line" smooth="yes"/>
      <point x="787.032" y="181.06"/>
      <point x="713.921" y="-10"/>
      <point x="444.001" y="-10" type="curve" smooth="yes"/>
      <point x="274.809" y="-10"/>
      <point x="65" y="53.6748"/>
      <point x="65" y="352.256" type="curve" smooth="yes"/>
      <point x="65" y="552.174"/>
      <point x="193.037" y="742.001"/>
    </contour>
  </outline>
</glyph>
<glyph name="D" format="1">
  <advance width="875"/>
  <unicode hex="0044"/>
  <outline>
    <contour>
      <point x="64" y="697" type="curve"/>
      <point x="64" y="697"/>
      <point x="60" y="704"/>
      <point x="60" y="713" type="curve" smooth="yes"/>
      <point x="60" y="721"/>
      <point x="64" y="730"/>
      <point x="64" y="730" type="curve"/>
      <point x="112" y="730"/>
      <point x="226" y="730"/>
      <point x="278" y="730" type="curve" smooth="yes"/>
      <point x="334" y="731"/>
      <point x="364" y="731"/>
      <point x="418" y="731" type="curve" smooth="yes"/>
      <point x="619" y="731"/>
      <point x="798" y="602"/>
      <point x="798" y="359" type="curve" smooth="yes"/>
      <point x="798" y="120"/>
      <point x="639" y="-3"/>
      <point x="405" y="-3" type="curve" smooth="yes"/>
      <point x="361" y="-3"/>
      <point x="320" y="0"/>
      <point x="263" y="0" type="curve" smooth="yes"/>
      <point x="64" y="0" type="line"/>
      <point x="64" y="0"/>
      <point x="60" y="8"/>
      <point x="60" y="17" type="curve" smooth="yes"/>
      <point x="60" y="25"/>
      <point x="64" y="33"/>
      <point x="64" y="33" type="curve"/>
      <point x="71" y="33" type="line" smooth="yes"/>
      <point x="79" y="33"/>
      <point x="86" y="34"/>
      <point x="94" y="36" type="curve" smooth="yes"/>
      <point x="110" y="39"/>
      <point x="116" y="59"/>
      <point x="116" y="68" type="curve"/>
      <point x="118" y="185"/>
      <point x="119" y="285"/>
      <point x="119" y="401" type="curve" smooth="yes"/>
      <point x="119" y="493"/>
      <point x="118" y="570"/>
      <point x="116" y="663" type="curve"/>
      <point x="116" y="671"/>
      <point x="110" y="692"/>
      <point x="94" y="695" type="curve" smooth="yes"/>
      <point x="84" y="697"/>
      <point x="75" y="697"/>
    </contour>
    <contour>
      <point x="324" y="673" type="curve" smooth="yes"/>
      <point x="324" y="660" type="line" smooth="yes"/>
      <point x="324" y="455"/>
      <point x="323" y="69"/>
      <point x="323" y="69" type="curve"/>
      <point x="323" y="69"/>
      <point x="325" y="46"/>
      <point x="333" y="45" type="curve" smooth="yes"/>
      <point x="370" y="46"/>
      <point x="354" y="46"/>
      <point x="391" y="46" type="curve" smooth="yes"/>
      <point x="547" y="46"/>
      <point x="605" y="193"/>
      <point x="605" y="353" type="curve" smooth="yes"/>
      <point x="605" y="612"/>
      <point x="477" y="680"/>
      <point x="397" y="680" type="curve" smooth="yes"/>
      <point x="387" y="680"/>
      <point x="375" y="680"/>
      <point x="355" y="680" type="curve" smooth="yes"/>
      <point x="345" y="680"/>
      <point x="329" y="680"/>
      <point x="329" y="680" type="curve"/>
      <point x="325" y="680"/>
      <point x="324" y="676"/>
    </contour>
  </outline>
</glyph>
<glyph name="E" format="1">
  <advance width="627"/>
  <unicode hex="0045"/>
  <outline>
    <contour>
      <point x="47" y="697" type="curve"/>
      <point x="47" y="697"/>
      <point x="43" y="704"/>
      <point x="43" y="713" type="curve" smooth="yes"/>
      <point x="43" y="721"/>
      <point x="47" y="730"/>
      <point x="47" y="730" type="curve"/>
      <point x="117" y="730"/>
      <point x="219" y="730"/>
      <point x="297" y="730" type="curve" smooth="yes"/>
      <point x="537" y="730" type="line"/>
      <point x="555" y="565" type="line"/>
      <point x="522" y="567" type="line"/>
      <point x="509" y="629"/>
      <point x="488" y="663"/>
      <point x="424" y="682" type="curve" smooth="yes"/>
      <point x="391" y="692"/>
      <point x="399" y="693"/>
      <point x="369" y="693" type="curve" smooth="yes"/>
      <point x="348" y="693"/>
      <point x="341" y="692"/>
      <point x="320" y="690" type="curve" smooth="yes"/>
      <point x="305" y="688"/>
      <point x="298" y="669"/>
      <point x="298" y="662" type="curve" smooth="yes"/>
      <point x="294" y="419" type="line"/>
      <point x="326" y="417"/>
      <point x="347" y="415"/>
      <point x="378" y="415" type="curve" smooth="yes"/>
      <point x="416" y="415"/>
      <point x="401" y="416"/>
      <point x="432" y="421" type="curve"/>
      <point x="452" y="427"/>
      <point x="458" y="450"/>
      <point x="460" y="474" type="curve"/>
      <point x="481" y="474" type="line"/>
      <point x="481" y="315" type="line"/>
      <point x="460" y="315" type="line"/>
      <point x="456" y="339"/>
      <point x="451" y="363"/>
      <point x="428" y="369" type="curve"/>
      <point x="396" y="374"/>
      <point x="411" y="375"/>
      <point x="376" y="375" type="curve" smooth="yes"/>
      <point x="344" y="375"/>
      <point x="323" y="372"/>
      <point x="294" y="370" type="curve"/>
      <point x="298" y="73" type="line"/>
      <point x="298" y="63"/>
      <point x="304" y="42"/>
      <point x="321" y="40" type="curve" smooth="yes"/>
      <point x="340" y="38"/>
      <point x="351" y="37"/>
      <point x="369" y="37" type="curve" smooth="yes"/>
      <point x="435" y="37"/>
      <point x="417" y="38"/>
      <point x="461" y="48" type="curve" smooth="yes"/>
      <point x="523" y="63"/>
      <point x="543" y="101"/>
      <point x="556" y="163" type="curve"/>
      <point x="590" y="165" type="line"/>
      <point x="571" y="0" type="line"/>
      <point x="47" y="0" type="line"/>
      <point x="47" y="0"/>
      <point x="43" y="8"/>
      <point x="43" y="17" type="curve" smooth="yes"/>
      <point x="43" y="25"/>
      <point x="47" y="35"/>
      <point x="47" y="35" type="curve"/>
      <point x="60" y="35"/>
      <point x="71.3242" y="35.9961"/>
      <point x="82" y="40" type="curve" smooth="yes"/>
      <point x="98" y="46"/>
      <point x="99" y="60"/>
      <point x="99" y="70" type="curve" smooth="yes"/>
      <point x="101" y="87"/>
      <point x="101" y="249"/>
      <point x="101" y="410" type="curve" smooth="yes"/>
      <point x="101" y="535.964"/>
      <point x="99" y="626.866"/>
      <point x="99" y="652" type="curve"/>
      <point x="99" y="662" type="line" smooth="yes"/>
      <point x="99" y="671"/>
      <point x="92" y="692"/>
      <point x="76" y="695" type="curve" smooth="yes"/>
      <point x="66" y="697"/>
      <point x="58" y="697"/>
    </contour>
  </outline>
</glyph>
<glyph name="F" format="1">
  <advance width="677"/>
  <unicode hex="0046"/>
  <outline>
    <contour>
      <point x="367" y="0" type="curve"/>
      <point x="68" y="0" type="line"/>
      <point x="68" y="0"/>
      <point x="64" y="8.24805"/>
      <point x="64" y="17" type="curve" smooth="yes"/>
      <point x="64" y="25"/>
      <point x="68" y="34"/>
      <point x="68" y="34" type="curve"/>
      <point x="75.9102" y="34.3125" type="line" smooth="yes"/>
      <point x="84.0146" y="34.6787"/>
      <point x="88.5361" y="35.0977"/>
      <point x="95.9854" y="36.5771" type="curve" smooth="yes"/>
      <point x="112.149" y="39.7861"/>
      <point x="119.248" y="58.0312"/>
      <point x="119.258" y="67.4102" type="curve" smooth="yes"/>
      <point x="119.258" y="67.7324" type="line"/>
      <point x="119.289" y="68.0537" type="line" smooth="yes"/>
      <point x="120.97" y="85.3701"/>
      <point x="121.267" y="239.23"/>
      <point x="121.267" y="395.42" type="curve" smooth="yes"/>
      <point x="121.267" y="526.376"/>
      <point x="120.241" y="661.857"/>
      <point x="120.241" y="661.857" type="curve" smooth="yes"/>
      <point x="120.241" y="671.568"/>
      <point x="112.216" y="691.456"/>
      <point x="95.9805" y="694.685" type="curve" smooth="yes"/>
      <point x="84.8789" y="696.893"/>
      <point x="80.7607" y="696.888"/>
      <point x="68" y="697" type="curve"/>
      <point x="68" y="697"/>
      <point x="64" y="704.248"/>
      <point x="64" y="713" type="curve" smooth="yes"/>
      <point x="64" y="721"/>
      <point x="68" y="730"/>
      <point x="68" y="730" type="curve"/>
      <point x="595.201" y="730.333" type="line"/>
      <point x="613.963" y="565.829" type="line"/>
      <point x="580.23" y="567.662" type="line"/>
      <point x="567.479" y="628.219"/>
      <point x="546.823" y="665.388"/>
      <point x="484.959" y="680.341" type="curve" smooth="yes"/>
      <point x="442.733" y="690.411"/>
      <point x="434.343" y="690.99"/>
      <point x="371.731" y="691.333" type="curve"/>
      <point x="350.945" y="691.333"/>
      <point x="360.587" y="690.394"/>
      <point x="339.578" y="688.064" type="curve" smooth="yes"/>
      <point x="323.177" y="686.247"/>
      <point x="316.699" y="675.54"/>
      <point x="316.699" y="665.388" type="curve"/>
      <point x="313.863" y="400.402" type="line"/>
      <point x="345.273" y="395.224"/>
      <point x="357.152" y="392"/>
      <point x="387.946" y="392" type="curve" smooth="yes"/>
      <point x="426.397" y="392"/>
      <point x="439.107" y="393.881"/>
      <point x="462.985" y="401.588" type="curve"/>
      <point x="482.119" y="406.141"/>
      <point x="489.938" y="430.886"/>
      <point x="491.324" y="454.521" type="curve"/>
      <point x="512.121" y="454.521" type="line"/>
      <point x="512.121" y="295.025" type="line"/>
      <point x="491.073" y="295.025" type="line"/>
      <point x="486.897" y="318.278"/>
      <point x="481.229" y="343.314"/>
      <point x="458.532" y="348.61" type="curve"/>
      <point x="430.366" y="353.612"/>
      <point x="419.999" y="355"/>
      <point x="383.967" y="355" type="curve" smooth="yes"/>
      <point x="351.351" y="355"/>
      <point x="339.301" y="353.355"/>
      <point x="311.564" y="350.042" type="curve"/>
      <point x="311.197" y="314.636" type="line"/>
      <point x="316.824" y="71.4346" type="line" smooth="yes"/>
      <point x="316.942" y="62.4736"/>
      <point x="319.716" y="42.9316"/>
      <point x="333.879" y="38.3262" type="curve" smooth="yes"/>
      <point x="344.003" y="35.0342"/>
      <point x="349.118" y="34.8496"/>
      <point x="360.137" y="34.2949" type="curve" smooth="yes"/>
      <point x="367" y="34" type="line"/>
      <point x="367" y="34"/>
      <point x="370" y="25.752"/>
      <point x="370" y="17" type="curve" smooth="yes"/>
      <point x="370" y="9"/>
      <point x="367" y="0"/>
    </contour>
    <contour>
      <point x="370" y="17" type="move" smooth="yes"/>
    </contour>
  </outline>
</glyph>
<glyph name="G" format="1">
  <advance width="845"/>
  <unicode hex="0047"/>
  <outline>
    <contour>
      <point x="555" y="276" type="curve"/>
      <point x="555" y="276"/>
      <point x="552" y="284"/>
      <point x="552" y="292" type="curve" smooth="yes"/>
      <point x="552" y="300.752"/>
      <point x="555" y="309"/>
      <point x="555" y="309" type="curve"/>
      <point x="808" y="309" type="line"/>
      <point x="808" y="309"/>
      <point x="811" y="300.752"/>
      <point x="811" y="292" type="curve" smooth="yes"/>
      <point x="811" y="284"/>
      <point x="808" y="276"/>
      <point x="808" y="276" type="curve"/>
      <point x="796.995" y="275.386"/>
      <point x="787.517" y="275.091"/>
      <point x="777.869" y="273.179" type="curve" smooth="yes"/>
      <point x="761.83" y="269.999"/>
      <point x="755.923" y="249.9"/>
      <point x="755.605" y="240.165" type="curve" smooth="yes"/>
      <point x="752" y="168.669" type="line"/>
      <point x="752" y="142.395"/>
      <point x="742.411" y="133.822"/>
      <point x="727.73" y="113.35" type="curve" smooth="yes"/>
      <point x="688.252" y="58.2988"/>
      <point x="601.242" y="-10.0078"/>
      <point x="449.256" y="-10.0078" type="curve" smooth="yes"/>
      <point x="293.397" y="-10.0078"/>
      <point x="55" y="52.6055"/>
      <point x="55" y="352.256" type="curve" smooth="yes"/>
      <point x="55" y="552.174"/>
      <point x="173.037" y="742.001"/>
      <point x="462.465" y="742.001" type="curve" smooth="yes"/>
      <point x="613.971" y="742.001"/>
      <point x="664.736" y="658.256"/>
      <point x="690" y="658.256" type="curve" smooth="yes"/>
      <point x="708.59" y="658.256"/>
      <point x="711.878" y="684.903"/>
      <point x="729" y="684.903" type="curve" smooth="yes"/>
      <point x="735.945" y="684.903"/>
      <point x="744.135" y="675.331"/>
      <point x="744.374" y="665.632" type="curve"/>
      <point x="747.182" y="466.459" type="line"/>
      <point x="746.725" y="459.562"/>
      <point x="737.7" y="451.991"/>
      <point x="731.049" y="451.991" type="curve" smooth="yes"/>
      <point x="726.217" y="451.991"/>
      <point x="716.576" y="455.227"/>
      <point x="714.579" y="463.323" type="curve" smooth="yes"/>
      <point x="690.114" y="562.456"/>
      <point x="605.153" y="688.77"/>
      <point x="455.047" y="688.77" type="curve" smooth="yes"/>
      <point x="294.339" y="688.77"/>
      <point x="248" y="509.981"/>
      <point x="248" y="384.646" type="curve" smooth="yes"/>
      <point x="248" y="92.7783"/>
      <point x="390.138" y="48"/>
      <point x="465.346" y="48" type="curve" smooth="yes"/>
      <point x="547.093" y="48"/>
      <point x="611.058" y="117.682"/>
      <point x="611.058" y="171.828" type="curve"/>
      <point x="608.488" y="240.505" type="line" smooth="yes"/>
      <point x="608.317" y="250.064"/>
      <point x="602.144" y="270.148"/>
      <point x="585.562" y="273.322" type="curve" smooth="yes"/>
      <point x="575.629" y="275.224"/>
      <point x="565.837" y="276.52"/>
    </contour>
    <contour>
      <point x="552" y="292" type="move" smooth="yes"/>
    </contour>
    <contour>
      <point x="811" y="292" type="move" smooth="yes"/>
    </contour>
  </outline>
</glyph>
<glyph name="H" format="1">
  <advance width="857"/>
  <unicode hex="0048"/>
  <outline>
    <contour>
      <point x="355.006" y="730.305" type="line"/>
      <point x="355.006" y="730.305"/>
      <point x="359" y="722.752"/>
      <point x="359" y="714" type="curve" smooth="yes"/>
      <point x="359" y="706"/>
      <point x="355.006" y="697"/>
      <point x="355.006" y="697" type="curve"/>
      <point x="344.2" y="696.211"/>
      <point x="336.722" y="695.915"/>
      <point x="327.075" y="694.005" type="curve" smooth="yes"/>
      <point x="310.777" y="690.777"/>
      <point x="302.815" y="672.241"/>
      <point x="302.815" y="662.264" type="curve" smooth="yes"/>
      <point x="302.815" y="607.204"/>
      <point x="302.659" y="567.139"/>
      <point x="302.659" y="512.099" type="curve" smooth="yes"/>
      <point x="302.659" y="484.516"/>
      <point x="302.696" y="454.692"/>
      <point x="302.812" y="429.391" type="curve" smooth="yes"/>
      <point x="302.825" y="428.176"/>
      <point x="306.257" y="427.777"/>
      <point x="308.54" y="427.592" type="curve" smooth="yes"/>
      <point x="357.721" y="427.038"/>
      <point x="359.282" y="426.358"/>
      <point x="423.822" y="426.358" type="curve" smooth="yes"/>
      <point x="491.63" y="426.358"/>
      <point x="493.234" y="427.104"/>
      <point x="547.216" y="427.675" type="curve"/>
      <point x="550" y="427.675"/>
      <point x="551.749" y="429.427"/>
      <point x="551.749" y="429.427" type="curve"/>
      <point x="551.749" y="662.554" type="line"/>
      <point x="551.637" y="672.531"/>
      <point x="543.654" y="691.646"/>
      <point x="527.374" y="694.867" type="curve" smooth="yes"/>
      <point x="517.725" y="696.776"/>
      <point x="511.247" y="697.072"/>
      <point x="499.392" y="697.305" type="curve"/>
      <point x="499.392" y="697.305"/>
      <point x="495.392" y="705.553"/>
      <point x="495.392" y="714.305" type="curve" smooth="yes"/>
      <point x="495.392" y="722.305"/>
      <point x="499.392" y="730.305"/>
      <point x="499.392" y="730.305" type="curve"/>
      <point x="791.397" y="730.609" type="line"/>
      <point x="791.397" y="730.609"/>
      <point x="795.392" y="723.057"/>
      <point x="795.392" y="714.305" type="curve" smooth="yes"/>
      <point x="795.392" y="706.305"/>
      <point x="791.397" y="697.305"/>
      <point x="791.397" y="697.305" type="curve"/>
      <point x="781.028" y="696.965"/>
      <point x="773.556" y="696.67"/>
      <point x="763.908" y="694.751" type="curve" smooth="yes"/>
      <point x="747.732" y="691.536"/>
      <point x="738.729" y="673.511"/>
      <point x="738.314" y="663.085" type="curve"/>
      <point x="736.284" y="571.074"/>
      <point x="735.447" y="492.667"/>
      <point x="735.447" y="400.322" type="curve" smooth="yes"/>
      <point x="735.447" y="284.806"/>
      <point x="736.655" y="183.887"/>
      <point x="738.315" y="68.3232" type="curve"/>
      <point x="738.733" y="58.8535"/>
      <point x="747.748" y="38.7852"/>
      <point x="763.547" y="35.6494" type="curve" smooth="yes"/>
      <point x="773.197" y="33.7344"/>
      <point x="780.668" y="33.4346"/>
      <point x="791.397" y="33.6094" type="curve"/>
      <point x="791.397" y="33.6094"/>
      <point x="795.392" y="26.0566"/>
      <point x="795.392" y="17.3047" type="curve" smooth="yes"/>
      <point x="795.392" y="9.30469"/>
      <point x="791.397" y="0.304688"/>
      <point x="791.397" y="0.304688" type="curve"/>
      <point x="499.392" y="0.304688" type="line"/>
      <point x="499.392" y="0.304688"/>
      <point x="495.392" y="8.55273"/>
      <point x="495.392" y="17.3047" type="curve" smooth="yes"/>
      <point x="495.392" y="25.3047"/>
      <point x="499.392" y="33.3047"/>
      <point x="499.392" y="33.3047" type="curve"/>
      <point x="510.248" y="33.4473"/>
      <point x="517.728" y="33.7451"/>
      <point x="527.373" y="35.6631" type="curve" smooth="yes"/>
      <point x="543.286" y="38.8271"/>
      <point x="551.507" y="57.7686"/>
      <point x="551.749" y="66.8535" type="curve"/>
      <point x="551.749" y="369.38" type="line" smooth="yes"/>
      <point x="551.749" y="370.589"/>
      <point x="549.405" y="370.875"/>
      <point x="546.532" y="371.129" type="curve" smooth="yes"/>
      <point x="492.713" y="371.696"/>
      <point x="490.694" y="372.446"/>
      <point x="423.822" y="372.446" type="curve" smooth="yes"/>
      <point x="359.983" y="372.446"/>
      <point x="358.958" y="371.771"/>
      <point x="309.189" y="371.211" type="curve" smooth="yes"/>
      <point x="306.693" y="371.047"/>
      <point x="302.849" y="370.74"/>
      <point x="302.811" y="369.342" type="curve" smooth="yes"/>
      <point x="302.539" y="334.003"/>
      <point x="302.449" y="295.555"/>
      <point x="302.449" y="260.051" type="curve" smooth="yes"/>
      <point x="302.449" y="189.863"/>
      <point x="302.804" y="137.09"/>
      <point x="302.807" y="67.0869" type="curve"/>
      <point x="303.595" y="57.292"/>
      <point x="312.659" y="38.7139"/>
      <point x="328.024" y="35.6631" type="curve" smooth="yes"/>
      <point x="337.674" y="33.7471"/>
      <point x="344.152" y="33.752"/>
      <point x="355.006" y="33.3047" type="curve"/>
      <point x="355.006" y="33.3047"/>
      <point x="359" y="25.752"/>
      <point x="359" y="17" type="curve" smooth="yes"/>
      <point x="359" y="9"/>
      <point x="355.006" y="0"/>
      <point x="355.006" y="0" type="curve"/>
      <point x="64" y="0" type="line"/>
      <point x="64" y="0"/>
      <point x="60" y="8.24805"/>
      <point x="60" y="17" type="curve" smooth="yes"/>
      <point x="60" y="25"/>
      <point x="64" y="33"/>
      <point x="64" y="33" type="curve"/>
      <point x="74.8545" y="33.4346"/>
      <point x="82.335" y="33.7305"/>
      <point x="91.9805" y="35.6494" type="curve" smooth="yes"/>
      <point x="108.218" y="38.877"/>
      <point x="116.24" y="58.7246"/>
      <point x="116.24" y="68.5225" type="curve"/>
      <point x="117.908" y="185.281"/>
      <point x="119.115" y="287.773"/>
      <point x="119.115" y="404.247" type="curve" smooth="yes"/>
      <point x="119.115" y="494.9"/>
      <point x="118.271" y="571.296"/>
      <point x="116.258" y="661.847" type="curve"/>
      <point x="116.247" y="671.356"/>
      <point x="108.152" y="691.541"/>
      <point x="91.9844" y="694.751" type="curve" smooth="yes"/>
      <point x="82.334" y="696.668"/>
      <point x="74.8613" y="696.965"/>
      <point x="64" y="697" type="curve"/>
      <point x="64" y="697"/>
      <point x="60" y="705.248"/>
      <point x="60" y="714" type="curve" smooth="yes"/>
      <point x="60" y="722"/>
      <point x="64" y="730"/>
      <point x="64" y="730" type="curve"/>
    </contour>
  </outline>
</glyph>
<glyph name="I" format="1">
  <advance width="425"/>
  <unicode hex="0049"/>
  <outline>
    <contour>
      <point x="364.397" y="729.609" type="line"/>
      <point x="364.397" y="729.609"/>
      <point x="368.392" y="722.057"/>
      <point x="368.392" y="713.305" type="curve" smooth="yes"/>
      <point x="368.392" y="705.305"/>
      <point x="364.397" y="696.305"/>
      <point x="364.397" y="696.305" type="curve"/>
      <point x="356.09" y="696.021" type="line" smooth="yes"/>
      <point x="345.297" y="695.651"/>
      <point x="313.412" y="680.258"/>
      <point x="312.772" y="662.74" type="curve" smooth="yes"/>
      <point x="310.743" y="568.52"/>
      <point x="309.915" y="487.963"/>
      <point x="309.915" y="393.458" type="curve" smooth="yes"/>
      <point x="309.915" y="280.801"/>
      <point x="311.086" y="181.833"/>
      <point x="312.777" y="69.1211" type="curve" smooth="yes"/>
      <point x="313.464" y="50.5127"/>
      <point x="333" y="34"/>
      <point x="357.094" y="33.3838" type="curve" smooth="yes"/>
      <point x="365.006" y="33.3047" type="line"/>
      <point x="365.006" y="33.3047"/>
      <point x="369" y="25.752"/>
      <point x="369" y="17" type="curve" smooth="yes"/>
      <point x="369" y="9"/>
      <point x="365.006" y="0"/>
      <point x="365.006" y="0" type="curve"/>
      <point x="64" y="0" type="line"/>
      <point x="64" y="0"/>
      <point x="60" y="8.24805"/>
      <point x="60" y="17" type="curve" smooth="yes"/>
      <point x="60" y="25"/>
      <point x="64" y="33"/>
      <point x="64" y="33" type="curve"/>
      <point x="67.8564" y="33.3838" type="line" smooth="yes"/>
      <point x="92" y="35"/>
      <point x="115.95" y="50.1602"/>
      <point x="115.95" y="68.9844" type="curve" smooth="yes"/>
      <point x="117.202" y="182.009"/>
      <point x="117.987" y="280.738"/>
      <point x="117.987" y="393.458" type="curve" smooth="yes"/>
      <point x="117.987" y="487.687"/>
      <point x="117.454" y="567.72"/>
      <point x="116.194" y="661.886" type="curve" smooth="yes"/>
      <point x="116.194" y="680.046"/>
      <point x="94.9297" y="695.143"/>
      <point x="71.8604" y="696.021" type="curve" smooth="yes"/>
      <point x="64.3916" y="696.305" type="line"/>
      <point x="64.3916" y="696.305"/>
      <point x="60.3916" y="704.553"/>
      <point x="60.3916" y="713.305" type="curve" smooth="yes"/>
      <point x="60.3916" y="721.305"/>
      <point x="64.3916" y="729.305"/>
      <point x="64.3916" y="729.305" type="curve"/>
    </contour>
  </outline>
</glyph>
<glyph name="J" format="1">
  <advance width="428"/>
  <unicode hex="004A"/>
  <outline>
    <contour>
      <point x="362.047" y="730" type="line"/>
      <point x="362.047" y="730"/>
      <point x="365.392" y="722.057"/>
      <point x="365.392" y="713.305" type="curve" smooth="yes"/>
      <point x="365.392" y="705.305"/>
      <point x="361.397" y="697.305"/>
      <point x="361.397" y="697.305" type="curve"/>
      <point x="354.132" y="696.911" type="line" smooth="yes"/>
      <point x="331" y="696"/>
      <point x="310.14" y="680.929"/>
      <point x="309.824" y="662.62" type="curve" smooth="yes"/>
      <point x="308.787" y="602.201"/>
      <point x="307.39" y="522.184"/>
      <point x="307.39" y="424.7" type="curve" smooth="yes"/>
      <point x="307.39" y="248.863"/>
      <point x="309.531" y="61.7354"/>
      <point x="310.196" y="39.5791" type="curve" smooth="yes"/>
      <point x="309.662" y="-103.026"/>
      <point x="138.578" y="-174.785"/>
      <point x="-62" y="-180.214" type="curve"/>
      <point x="-62" y="-137.698" type="line"/>
      <point x="66.2393" y="-109.787"/>
      <point x="111.512" y="-67.3896"/>
      <point x="112.859" y="87.3213" type="curve" smooth="yes"/>
      <point x="113.099" y="114.799"/>
      <point x="114.29" y="296.102"/>
      <point x="114.29" y="466.247" type="curve" smooth="yes"/>
      <point x="114.29" y="545.038"/>
      <point x="114.133" y="606.59"/>
      <point x="113.29" y="661.688" type="curve" smooth="yes"/>
      <point x="112.992" y="681.148"/>
      <point x="93" y="696"/>
      <point x="68.5645" y="696.932" type="curve" smooth="yes"/>
      <point x="61.3916" y="697.305" type="line"/>
      <point x="61.3916" y="697.305"/>
      <point x="57.3916" y="705.553"/>
      <point x="57.3916" y="714.305" type="curve" smooth="yes"/>
      <point x="57.3916" y="722.305"/>
      <point x="61" y="730"/>
      <point x="61" y="730" type="curve"/>
    </contour>
  </outline>
</glyph>
<glyph name="K" format="1">
  <advance width="730"/>
  <unicode hex="004B"/>
  <outline>
    <contour>
      <point x="723.264" y="33" type="line"/>
      <point x="723.264" y="33"/>
      <point x="727.392" y="26.0566"/>
      <point x="727.392" y="17.3047" type="curve" smooth="yes"/>
      <point x="727.392" y="9.30469"/>
      <point x="724" y="0"/>
      <point x="724" y="0" type="curve"/>
      <point x="449" y="0" type="line"/>
      <point x="449" y="0"/>
      <point x="444.392" y="8.55273"/>
      <point x="444.392" y="17.3047" type="curve" smooth="yes"/>
      <point x="444.392" y="25.3047"/>
      <point x="449.264" y="33"/>
      <point x="449.264" y="33" type="curve"/>
      <point x="470.924" y="33"/>
      <point x="476.14" y="47.5068"/>
      <point x="476.14" y="60.4512" type="curve" smooth="yes"/>
      <point x="476.14" y="69.5928"/>
      <point x="467.424" y="85.1133"/>
      <point x="457.462" y="99" type="curve" smooth="yes"/>
      <point x="379.264" y="208"/>
      <point x="313.638" y="290.649"/>
      <point x="298" y="313" type="curve"/>
      <point x="290.971" y="306.261"/>
      <point x="294.256" y="308.219"/>
      <point x="287.317" y="304.856" type="curve"/>
      <point x="288.264" y="70.0723" type="line" smooth="yes"/>
      <point x="288.466" y="50.6611"/>
      <point x="309.459" y="34.249"/>
      <point x="332.264" y="33" type="curve" smooth="yes"/>
      <point x="339.397" y="32.6094" type="line"/>
      <point x="339.397" y="32.6094"/>
      <point x="343.392" y="26.0566"/>
      <point x="343.392" y="17.3047" type="curve" smooth="yes"/>
      <point x="343.392" y="9.30469"/>
      <point x="340" y="0"/>
      <point x="340" y="0" type="curve"/>
      <point x="39" y="0" type="line"/>
      <point x="39" y="0"/>
      <point x="34.3916" y="8.55273"/>
      <point x="34.3916" y="17.3047" type="curve" smooth="yes"/>
      <point x="34.3916" y="25.3047"/>
      <point x="39" y="33"/>
      <point x="39" y="33" type="curve"/>
      <point x="46.2637" y="33" type="line" smooth="yes"/>
      <point x="67.5781" y="33"/>
      <point x="91.2637" y="50.8633"/>
      <point x="91.2637" y="69.5215" type="curve" smooth="yes"/>
      <point x="93.0986" y="185.29"/>
      <point x="93.4268" y="286.765"/>
      <point x="93.4268" y="402.222" type="curve" smooth="yes"/>
      <point x="93.4268" y="493.436"/>
      <point x="92.5" y="570.337"/>
      <point x="91.2637" y="661.43" type="curve" smooth="yes"/>
      <point x="91.0234" y="679.164"/>
      <point x="70" y="697"/>
      <point x="46.2637" y="698" type="curve" smooth="yes"/>
      <point x="40.3916" y="698.305" type="line"/>
      <point x="40.3916" y="698.305"/>
      <point x="36.3916" y="705.553"/>
      <point x="36.3916" y="714.305" type="curve" smooth="yes"/>
      <point x="36.3916" y="722.305"/>
      <point x="39" y="730"/>
      <point x="39" y="730" type="curve"/>
      <point x="340" y="730" type="line"/>
      <point x="340" y="730"/>
      <point x="344.392" y="723.057"/>
      <point x="344.392" y="714.305" type="curve" smooth="yes"/>
      <point x="344.392" y="706.305"/>
      <point x="340.397" y="698.305"/>
      <point x="340.397" y="698.305" type="curve"/>
      <point x="333.264" y="698" type="line" smooth="yes"/>
      <point x="309" y="697"/>
      <point x="288.682" y="685.294"/>
      <point x="288.264" y="661.952" type="curve" smooth="yes"/>
      <point x="284.404" y="460.321" type="line"/>
      <point x="299.884" y="467.572"/>
      <point x="300.693" y="465.257"/>
      <point x="323" y="495" type="curve"/>
      <point x="446.692" y="641.238" type="line" smooth="yes"/>
      <point x="461.043" y="660.099"/>
      <point x="465.243" y="669.513"/>
      <point x="465.243" y="674.752" type="curve" smooth="yes"/>
      <point x="465.243" y="685.8"/>
      <point x="438.608" y="697.695"/>
      <point x="427.872" y="697.695" type="curve" smooth="yes"/>
      <point x="421" y="698" type="line"/>
      <point x="421" y="698"/>
      <point x="416.392" y="704.553"/>
      <point x="416.392" y="713.305" type="curve" smooth="yes"/>
      <point x="416.392" y="721.305"/>
      <point x="421" y="730"/>
      <point x="421" y="730" type="curve"/>
      <point x="642" y="730" type="line"/>
      <point x="642" y="730"/>
      <point x="646.392" y="722.057"/>
      <point x="646.392" y="713.305" type="curve" smooth="yes"/>
      <point x="646.392" y="705.305"/>
      <point x="642" y="698"/>
      <point x="642" y="698" type="curve"/>
      <point x="629.866" y="697.695" type="line" smooth="yes"/>
      <point x="598.603" y="696.695"/>
      <point x="592.849" y="675.794"/>
      <point x="572.881" y="653.502" type="curve" smooth="yes"/>
      <point x="405" y="437" type="line"/>
      <point x="420.34" y="414.854" type="line"/>
      <point x="427.461" y="406.691" type="line" smooth="yes"/>
      <point x="524.885" y="270.537"/>
      <point x="627.198" y="123.085"/>
      <point x="670.94" y="63.6836" type="curve"/>
      <point x="684.264" y="46"/>
      <point x="704" y="33"/>
      <point x="714.264" y="33" type="curve" smooth="yes"/>
    </contour>
  </outline>
</glyph>
<glyph name="L" format="1">
  <advance width="669"/>
  <unicode hex="004C"/>
  <outline>
    <contour>
      <point x="358.047" y="730" type="line"/>
      <point x="358.047" y="730"/>
      <point x="361.392" y="723.057"/>
      <point x="361.392" y="714.305" type="curve" smooth="yes"/>
      <point x="361.392" y="706.305"/>
      <point x="358" y="697"/>
      <point x="358" y="697" type="curve"/>
      <point x="351.137" y="697.048" type="line" smooth="yes"/>
      <point x="334" y="697"/>
      <point x="306.101" y="682.981"/>
      <point x="305.824" y="661.888" type="curve" smooth="yes"/>
      <point x="303.808" y="570.193"/>
      <point x="302.961" y="492.501"/>
      <point x="302.961" y="400.639" type="curve" smooth="yes"/>
      <point x="304.662" y="286.884"/>
      <point x="303.891" y="187.121"/>
      <point x="305.663" y="73.085" type="curve"/>
      <point x="305.663" y="63.2803"/>
      <point x="311.516" y="44.1719"/>
      <point x="328.52" y="42.2793" type="curve" smooth="yes"/>
      <point x="349.509" y="39.9424"/>
      <point x="359.854" y="39"/>
      <point x="380.623" y="39" type="curve"/>
      <point x="445.279" y="39.3428"/>
      <point x="445.366" y="39.9268"/>
      <point x="488.993" y="49.999" type="curve" smooth="yes"/>
      <point x="548.142" y="64.2969"/>
      <point x="573.016" y="98.8965"/>
      <point x="585.146" y="157.434" type="curve" smooth="yes"/>
      <point x="586.23" y="162.671" type="line"/>
      <point x="619.963" y="164.504" type="line"/>
      <point x="601.201" y="0" type="line"/>
      <point x="56" y="0" type="line"/>
      <point x="56" y="0"/>
      <point x="51.3916" y="8.55273"/>
      <point x="51.3916" y="17.3047" type="curve" smooth="yes"/>
      <point x="51.3916" y="25.3047"/>
      <point x="56" y="33"/>
      <point x="56" y="33" type="curve"/>
      <point x="63.9248" y="33.3838" type="line" smooth="yes"/>
      <point x="89" y="35"/>
      <point x="109.241" y="50.7422"/>
      <point x="109.241" y="71.5234" type="curve" smooth="yes"/>
      <point x="110.899" y="187.628"/>
      <point x="111.116" y="286.467"/>
      <point x="111.116" y="402.288" type="curve" smooth="yes"/>
      <point x="111.116" y="493.949"/>
      <point x="110.301" y="569.908"/>
      <point x="109.244" y="662.471" type="curve" smooth="yes"/>
      <point x="109.049" y="679.619"/>
      <point x="87" y="697"/>
      <point x="63.9102" y="697.021" type="curve" smooth="yes"/>
      <point x="57" y="697" type="line"/>
      <point x="57" y="697"/>
      <point x="52.3916" y="705.553"/>
      <point x="52.3916" y="714.305" type="curve" smooth="yes"/>
      <point x="52.3916" y="722.305"/>
      <point x="57" y="730"/>
      <point x="57" y="730" type="curve"/>
    </contour>
  </outline>
</glyph>
<glyph name="M" format="1">
  <advance width="888"/>
  <unicode hex="004D"/>
  <outline>
    <contour>
      <point x="850.129" y="729.998" type="line"/>
      <point x="850.129" y="729.998"/>
      <point x="853.392" y="723.057"/>
      <point x="853.392" y="714.305" type="curve" smooth="yes"/>
      <point x="853.392" y="706.305"/>
      <point x="850" y="697"/>
      <point x="850" y="697" type="curve"/>
      <point x="843.214" y="697.021" type="line" smooth="yes"/>
      <point x="820" y="697"/>
      <point x="798.004" y="681.323"/>
      <point x="797.907" y="662.873" type="curve" smooth="yes"/>
      <point x="797.097" y="601.802"/>
      <point x="794.677" y="555.087"/>
      <point x="794.677" y="494.521" type="curve" smooth="yes"/>
      <point x="794.677" y="451.723"/>
      <point x="794.608" y="409.123"/>
      <point x="794.608" y="366.664" type="curve" smooth="yes"/>
      <point x="794.608" y="262.076"/>
      <point x="795.024" y="172.337"/>
      <point x="797.909" y="68.5742" type="curve" smooth="yes"/>
      <point x="798.295" y="50.1377"/>
      <point x="819.972" y="33.6699"/>
      <point x="843.219" y="33.3838" type="curve" smooth="yes"/>
      <point x="850.132" y="33.2988" type="line"/>
      <point x="850.132" y="33.2988"/>
      <point x="853.392" y="26.0566"/>
      <point x="853.392" y="17.3047" type="curve" smooth="yes"/>
      <point x="853.392" y="9.30469"/>
      <point x="850" y="0"/>
      <point x="850" y="0" type="curve"/>
      <point x="559" y="0" type="line"/>
      <point x="559" y="0"/>
      <point x="554.392" y="8.55273"/>
      <point x="554.392" y="17.3047" type="curve" smooth="yes"/>
      <point x="554.392" y="25.3047"/>
      <point x="559" y="34"/>
      <point x="559" y="34" type="curve"/>
      <point x="566.988" y="33.9463" type="line" smooth="yes"/>
      <point x="591" y="34"/>
      <point x="611.048" y="50.873"/>
      <point x="611.334" y="69.626" type="curve" smooth="yes"/>
      <point x="612.313" y="133.847"/>
      <point x="613.725" y="184.042"/>
      <point x="613.725" y="248" type="curve" smooth="yes"/>
      <point x="613.725" y="328.926"/>
      <point x="613.732" y="342.956"/>
      <point x="613.732" y="425" type="curve" smooth="yes"/>
      <point x="613.732" y="456.796"/>
      <point x="613.666" y="488.654"/>
      <point x="613.495" y="519.321" type="curve"/>
      <point x="425.306" y="173.829" type="line"/>
      <point x="422.088" y="167.671"/>
      <point x="412.384" y="153.276"/>
      <point x="401.993" y="153.276" type="curve" smooth="yes"/>
      <point x="394.794" y="153.276"/>
      <point x="389.693" y="158.756"/>
      <point x="386.13" y="165.999" type="curve" smooth="yes"/>
      <point x="386.13" y="165.999"/>
      <point x="243.477" y="410.632"/>
      <point x="194.151" y="513.842" type="curve"/>
      <point x="176.093" y="69.0693" type="line"/>
      <point x="177.827" y="50.4072"/>
      <point x="197.197" y="35.1064"/>
      <point x="221.378" y="33.9463" type="curve" smooth="yes"/>
      <point x="228.397" y="33.6094" type="line"/>
      <point x="228.397" y="33.6094"/>
      <point x="232.392" y="26.0566"/>
      <point x="232.392" y="17.3047" type="curve" smooth="yes"/>
      <point x="232.392" y="9.30469"/>
      <point x="229" y="0"/>
      <point x="229" y="0" type="curve"/>
      <point x="39" y="0" type="line"/>
      <point x="39" y="0"/>
      <point x="34.3916" y="8.55273"/>
      <point x="34.3916" y="17.3047" type="curve" smooth="yes"/>
      <point x="34.3916" y="25.3047"/>
      <point x="40" y="34"/>
      <point x="40" y="34" type="curve"/>
      <point x="47.1846" y="34.3838" type="line" smooth="yes"/>
      <point x="72" y="36"/>
      <point x="90.7061" y="50.1543"/>
      <point x="91.5234" y="70.6875" type="curve" smooth="yes"/>
      <point x="99.6416" y="274.613"/>
      <point x="106.75" y="452.241"/>
      <point x="111.536" y="659.082" type="curve"/>
      <point x="111.538" y="659.361"/>
      <point x="111.538" y="659.789"/>
      <point x="111.538" y="660.078" type="curve" smooth="yes"/>
      <point x="111.538" y="679.176"/>
      <point x="90" y="697"/>
      <point x="66.1875" y="697.022" type="curve" smooth="yes"/>
      <point x="59" y="697" type="line"/>
      <point x="59" y="697"/>
      <point x="54.3916" y="705.553"/>
      <point x="54.3916" y="714.305" type="curve" smooth="yes"/>
      <point x="54.3916" y="722.305"/>
      <point x="59" y="730"/>
      <point x="59" y="730" type="curve"/>
      <point x="294.641" y="730" type="line"/>
      <point x="454.707" y="420.253" type="line"/>
      <point x="616.948" y="729.998" type="line"/>
    </contour>
  </outline>
</glyph>
<glyph name="N" format="1">
  <advance width="881"/>
  <unicode hex="004E"/>
  <outline>
    <contour>
      <point x="54" y="0" type="line"/>
      <point x="54" y="0"/>
      <point x="49.3916" y="8.55273"/>
      <point x="49.3916" y="17.3047" type="curve" smooth="yes"/>
      <point x="49.3916" y="25.3047"/>
      <point x="54" y="33"/>
      <point x="54" y="33" type="curve"/>
      <point x="60.9062" y="33.3838" type="line" smooth="yes"/>
      <point x="86" y="35"/>
      <point x="106.24" y="50.2266"/>
      <point x="106.24" y="70.4551" type="curve" smooth="yes"/>
      <point x="107.873" y="398.75" type="line"/>
      <point x="106.258" y="659.939" type="line" smooth="yes"/>
      <point x="105.995" y="679.906"/>
      <point x="86" y="698"/>
      <point x="60.9092" y="698.022" type="curve" smooth="yes"/>
      <point x="55" y="698" type="line"/>
      <point x="55" y="698"/>
      <point x="50.3916" y="705.553"/>
      <point x="50.3916" y="714.305" type="curve" smooth="yes"/>
      <point x="50.3916" y="722.305"/>
      <point x="55" y="730"/>
      <point x="55" y="730" type="curve"/>
      <point x="268.133" y="730" type="line"/>
      <point x="672.066" y="308.81" type="line"/>
      <point x="672.066" y="478.894"/>
      <point x="671.751" y="488.72"/>
      <point x="671.751" y="661.009" type="curve" smooth="yes"/>
      <point x="671.751" y="679.828"/>
      <point x="646.948" y="695.936"/>
      <point x="626.299" y="697.461" type="curve" smooth="yes"/>
      <point x="619" y="698" type="line"/>
      <point x="619" y="698"/>
      <point x="614.392" y="705.553"/>
      <point x="614.392" y="714.305" type="curve" smooth="yes"/>
      <point x="614.392" y="722.305"/>
      <point x="619" y="730"/>
      <point x="619" y="730" type="curve"/>
      <point x="821" y="730" type="line"/>
      <point x="821" y="730"/>
      <point x="824.392" y="723.057"/>
      <point x="824.392" y="714.305" type="curve" smooth="yes"/>
      <point x="824.392" y="706.305"/>
      <point x="821" y="698"/>
      <point x="821" y="698" type="curve"/>
      <point x="813.979" y="698.016" type="line" smooth="yes"/>
      <point x="791" y="698"/>
      <point x="769.543" y="680.438"/>
      <point x="768.361" y="662.905" type="curve" smooth="yes"/>
      <point x="766.477" y="570.365"/>
      <point x="765.752" y="492.911"/>
      <point x="765.752" y="400.251" type="curve" smooth="yes"/>
      <point x="765.752" y="269.146"/>
      <point x="767.233" y="145.062"/>
      <point x="769" y="13.748" type="curve"/>
      <point x="769" y="0.728516"/>
      <point x="756.65" y="-8.99023"/>
      <point x="744" y="-8.99023" type="curve" smooth="yes"/>
      <point x="734.509" y="-8.99023"/>
      <point x="722.627" y="-4.62695"/>
      <point x="720" y="-2" type="curve" smooth="yes"/>
      <point x="714" y="5" type="line" smooth="yes"/>
      <point x="530.468" y="211.897"/>
      <point x="388.653" y="344.021"/>
      <point x="202.829" y="547.279" type="curve"/>
      <point x="202.79" y="497.426"/>
      <point x="201.778" y="450.642"/>
      <point x="201.778" y="402" type="curve" smooth="yes"/>
      <point x="201.778" y="301.999"/>
      <point x="201.832" y="274.059"/>
      <point x="201.832" y="174" type="curve" smooth="yes"/>
      <point x="201.832" y="138.437"/>
      <point x="202.825" y="104.423"/>
      <point x="203.807" y="69.123" type="curve" smooth="yes"/>
      <point x="204.317" y="50.7568"/>
      <point x="225" y="34"/>
      <point x="249.038" y="32.9463" type="curve" smooth="yes"/>
      <point x="256.397" y="32.6094" type="line"/>
      <point x="256.397" y="32.6094"/>
      <point x="260.392" y="26.0566"/>
      <point x="260.392" y="17.3047" type="curve" smooth="yes"/>
      <point x="260.392" y="9.30469"/>
      <point x="257" y="0"/>
      <point x="257" y="0" type="curve"/>
    </contour>
  </outline>
</glyph>
<glyph name="O" format="1">
  <advance width="908"/>
  <unicode hex="004F"/>
  <outline>
    <contour>
      <point x="451.302" y="733.809" type="curve" smooth="yes"/>
      <point x="669.64" y="733.809"/>
      <point x="843.572" y="617.613"/>
      <point x="843.572" y="360.783" type="curve" smooth="yes"/>
      <point x="843.572" y="113.736"/>
      <point x="637.115" y="-10"/>
      <point x="453.245" y="-10" type="curve" smooth="yes"/>
      <point x="314.433" y="-10"/>
      <point x="65" y="43.6592"/>
      <point x="65" y="351.949" type="curve" smooth="yes"/>
      <point x="65" y="609.623"/>
      <point x="237.102" y="733.809"/>
    </contour>
    <contour>
      <point x="443.976" y="680.77" type="curve" smooth="yes"/>
      <point x="300.148" y="680.77"/>
      <point x="263.326" y="462.104"/>
      <point x="263.326" y="384.293" type="curve" smooth="yes"/>
      <point x="263.326" y="83.9648"/>
      <point x="396.994" y="44.667"/>
      <point x="461.187" y="44.667" type="curve" smooth="yes"/>
      <point x="560.844" y="44.667"/>
      <point x="647.246" y="124.952"/>
      <point x="647.246" y="376.696" type="curve" smooth="yes"/>
      <point x="647.246" y="529.615"/>
      <point x="589.346" y="680.77"/>
    </contour>
  </outline>
</glyph>
<glyph name="P" format="1">
  <advance width="678"/>
  <unicode hex="0050"/>
  <outline>
    <contour>
      <point x="337.397" y="32.6094" type="line"/>
      <point x="337.397" y="32.6094"/>
      <point x="341.392" y="26.0566"/>
      <point x="341.392" y="17.3047" type="curve" smooth="yes"/>
      <point x="341.392" y="9.30469"/>
      <point x="338" y="0"/>
      <point x="338" y="0" type="curve"/>
      <point x="37" y="0" type="line"/>
      <point x="37" y="0"/>
      <point x="32.3916" y="8.55273"/>
      <point x="32.3916" y="17.3047" type="curve" smooth="yes"/>
      <point x="32.3916" y="25.3047"/>
      <point x="37" y="33"/>
      <point x="37" y="33" type="curve"/>
      <point x="44.0381" y="33.3838" type="line" smooth="yes"/>
      <point x="67" y="35"/>
      <point x="89.373" y="50.6104"/>
      <point x="89.373" y="67.8066" type="curve" smooth="yes"/>
      <point x="90.9727" y="184.92"/>
      <point x="91.2793" y="284.685"/>
      <point x="91.2793" y="400.326" type="curve" smooth="yes"/>
      <point x="91.2793" y="487.4"/>
      <point x="89.4941" y="568.247"/>
      <point x="89.4941" y="655.177" type="curve" smooth="yes"/>
      <point x="89.4941" y="683.557"/>
      <point x="66" y="697"/>
      <point x="45.042" y="697.021" type="curve" smooth="yes"/>
      <point x="37" y="697" type="line"/>
      <point x="37" y="697"/>
      <point x="32.3916" y="705.553"/>
      <point x="32.3916" y="714.305" type="curve" smooth="yes"/>
      <point x="32.3916" y="722.305"/>
      <point x="37" y="730"/>
      <point x="37" y="730" type="curve"/>
      <point x="347.759" y="732" type="line" smooth="yes"/>
      <point x="507.401" y="732"/>
      <point x="632.388" y="671.053"/>
      <point x="632.388" y="503.468" type="curve" smooth="yes"/>
      <point x="632.388" y="347.451"/>
      <point x="500.828" y="274.9"/>
      <point x="370.138" y="274.9" type="curve" smooth="yes"/>
      <point x="357.391" y="274.9"/>
      <point x="345.77" y="275.512"/>
      <point x="333.395" y="276.711" type="curve" smooth="yes"/>
      <point x="319.357" y="278.071"/>
      <point x="309.2" y="291.041"/>
      <point x="309.2" y="304" type="curve" smooth="yes"/>
      <point x="309.2" y="315.531"/>
      <point x="328.039" y="330"/>
      <point x="342.347" y="330" type="curve" smooth="yes"/>
      <point x="404.851" y="330"/>
      <point x="469.653" y="377.769"/>
      <point x="469.653" y="515.354" type="curve" smooth="yes"/>
      <point x="469.653" y="651.675"/>
      <point x="372.022" y="683.888"/>
      <point x="320.883" y="683.888" type="curve" smooth="yes"/>
      <point x="286.637" y="683.888" type="line"/>
      <point x="284.459" y="584.974"/>
      <point x="283.525" y="494.22"/>
      <point x="283.525" y="395.965" type="curve" smooth="yes"/>
      <point x="283.525" y="281.894"/>
      <point x="284.66" y="181.737"/>
      <point x="286.505" y="67.4375" type="curve" smooth="yes"/>
      <point x="286.702" y="49.7402"/>
      <point x="309" y="36"/>
      <point x="330.249" y="33.3506" type="curve" smooth="yes"/>
    </contour>
  </outline>
</glyph>
<glyph name="Q" format="1">
  <advance width="918"/>
  <unicode hex="0051"/>
  <outline>
    <contour>
      <point x="448.982" y="683.77" type="curve" smooth="yes"/>
      <point x="276.664" y="683.77"/>
      <point x="258.326" y="438.814"/>
      <point x="258.326" y="380.297" type="curve" smooth="yes"/>
      <point x="258.326" y="71.1904"/>
      <point x="411.543" y="33.667"/>
      <point x="466.182" y="33.667" type="curve" smooth="yes"/>
      <point x="557.46" y="33.667"/>
      <point x="662.246" y="118.61"/>
      <point x="662.246" y="372.699" type="curve" smooth="yes"/>
      <point x="662.246" y="517.134"/>
      <point x="612.104" y="683.77"/>
    </contour>
    <contour>
      <point x="456.303" y="732.809" type="curve" smooth="yes"/>
      <point x="657.238" y="732.809"/>
      <point x="853.572" y="605.609"/>
      <point x="853.572" y="356.808" type="curve" smooth="yes"/>
      <point x="853.572" y="136.992"/>
      <point x="670.598" y="6.99902"/>
      <point x="514.734" y="-13.2607" type="curve"/>
      <point x="523.951" y="-60.3271"/>
      <point x="550.965" y="-88.6182"/>
      <point x="659.803" y="-88.6182" type="curve" smooth="yes"/>
      <point x="667.592" y="-88.6182"/>
      <point x="675.706" y="-88.416"/>
      <point x="684.154" y="-88.0088" type="curve" smooth="yes"/>
      <point x="690.195" y="-87.7178" type="line"/>
      <point x="701.969" y="-149.42" type="line"/>
      <point x="693.76" y="-150.139" type="line" smooth="yes"/>
      <point x="665.898" y="-152.578"/>
      <point x="639.797" y="-153.864"/>
      <point x="615.476" y="-153.864" type="curve" smooth="yes"/>
      <point x="480.456" y="-153.864"/>
      <point x="365.033" y="-103.805"/>
      <point x="352" y="0" type="curve"/>
      <point x="235.336" y="17.3398"/>
      <point x="65" y="103.336"/>
      <point x="65" y="348.02" type="curve" smooth="yes"/>
      <point x="65" y="597.639"/>
      <point x="259.485" y="732.809"/>
    </contour>
  </outline>
</glyph>
<glyph name="R" format="1">
  <advance width="783"/>
  <unicode hex="0052"/>
  <outline>
    <contour>
      <point x="740" y="0" type="curve"/>
      <point x="577" y="0" type="line" smooth="yes"/>
      <point x="526.713" y="0"/>
      <point x="500.397" y="63.7803"/>
      <point x="488.153" y="77.4678" type="curve" smooth="yes"/>
      <point x="488.153" y="77.4678"/>
      <point x="333.174" y="293.288"/>
      <point x="320.871" y="311.006" type="curve"/>
      <point x="315.341" y="311.038"/>
      <point x="309.541" y="311.081"/>
      <point x="299.992" y="313.342" type="curve"/>
      <point x="302.829" y="67.5059" type="line" smooth="yes"/>
      <point x="303.012" y="49.7666"/>
      <point x="324.742" y="33.3135"/>
      <point x="348.144" y="32.9463" type="curve" smooth="yes"/>
      <point x="354.05" y="32.8535" type="line"/>
      <point x="354.05" y="32.8535"/>
      <point x="358.392" y="26.0566"/>
      <point x="358.392" y="17.3047" type="curve" smooth="yes"/>
      <point x="358.392" y="9.30469"/>
      <point x="355" y="0"/>
      <point x="355" y="0" type="curve"/>
      <point x="54" y="0" type="line"/>
      <point x="54" y="0"/>
      <point x="49.3916" y="8.55273"/>
      <point x="49.3916" y="17.3047" type="curve" smooth="yes"/>
      <point x="49.3916" y="25.3047"/>
      <point x="54" y="33"/>
      <point x="54" y="33" type="curve"/>
      <point x="60.9062" y="33.3838" type="line" smooth="yes"/>
      <point x="85" y="35"/>
      <point x="106.047" y="50.0957"/>
      <point x="106.242" y="68.5674" type="curve" smooth="yes"/>
      <point x="107.839" y="185.213"/>
      <point x="108.146" y="287.812"/>
      <point x="108.146" y="404.252" type="curve" smooth="yes"/>
      <point x="108.146" y="490.013"/>
      <point x="106.362" y="568.549"/>
      <point x="106.362" y="654.178" type="curve" smooth="yes"/>
      <point x="106.362" y="679.558"/>
      <point x="91" y="697"/>
      <point x="61.9102" y="697.022" type="curve" smooth="yes"/>
      <point x="54" y="697" type="line"/>
      <point x="54" y="697"/>
      <point x="49.3916" y="705.553"/>
      <point x="49.3916" y="714.305" type="curve" smooth="yes"/>
      <point x="49.3916" y="722.305"/>
      <point x="54" y="730"/>
      <point x="54" y="730" type="curve"/>
      <point x="62.1318" y="730.332" type="line" smooth="yes"/>
      <point x="70.749" y="730.173"/>
      <point x="78.3721" y="730.104"/>
      <point x="87" y="730.104" type="curve" smooth="yes"/>
      <point x="150.797" y="730.104"/>
      <point x="274.838" y="734"/>
      <point x="340.266" y="734" type="curve" smooth="yes"/>
      <point x="501.657" y="734"/>
      <point x="634.256" y="676.373"/>
      <point x="634.256" y="534.771" type="curve" smooth="yes"/>
      <point x="634.256" y="431.076"/>
      <point x="576.387" y="352.009"/>
      <point x="486.902" y="329.103" type="curve"/>
      <point x="574.21" y="207.066"/>
      <point x="643.452" y="117.711"/>
      <point x="683.497" y="64.3105" type="curve" smooth="yes"/>
      <point x="697.575" y="45.5381"/>
      <point x="706" y="36"/>
      <point x="733.656" y="34.083" type="curve" smooth="yes"/>
      <point x="740.397" y="33.6094" type="line"/>
      <point x="740.397" y="33.6094"/>
      <point x="744.392" y="27.0566"/>
      <point x="744.392" y="18.3047" type="curve" smooth="yes"/>
      <point x="744.392" y="10.3047"/>
      <point x="740" y="0"/>
    </contour>
    <contour>
      <point x="299.568" y="408.344" type="curve" smooth="yes"/>
      <point x="299.568" y="398.553"/>
      <point x="299.574" y="381.8"/>
      <point x="299.602" y="373.257" type="curve"/>
      <point x="309.294" y="373.109"/>
      <point x="314.667" y="373"/>
      <point x="324" y="373" type="curve" smooth="yes"/>
      <point x="388.599" y="373"/>
      <point x="461.53" y="443.598"/>
      <point x="461.53" y="531.491" type="curve" smooth="yes"/>
      <point x="461.53" y="630.22"/>
      <point x="392.757" y="683.888"/>
      <point x="339" y="683.888" type="curve" smooth="yes"/>
      <point x="303.031" y="683.888" type="line"/>
      <point x="302.102" y="585.007"/>
      <point x="299.568" y="506.332"/>
    </contour>
  </outline>
</glyph>
<glyph name="S" format="1">
  <advance width="683"/>
  <unicode hex="0053"/>
  <outline>
    <contour>
      <point x="159.044" y="208.32" type="curve"/>
      <point x="164.728" y="158.766"/>
      <point x="214.362" y="58.4434"/>
      <point x="302.371" y="58.4434" type="curve" smooth="yes"/>
      <point x="363.676" y="58.4434"/>
      <point x="409.308" y="101.717"/>
      <point x="409.308" y="174.49" type="curve" smooth="yes"/>
      <point x="409.308" y="248.498"/>
      <point x="335.277" y="295.261"/>
      <point x="247.211" y="345.998" type="curve" smooth="yes"/>
      <point x="154.449" y="399.44"/>
      <point x="96.5469" y="475.965"/>
      <point x="96.5469" y="558.514" type="curve" smooth="yes"/>
      <point x="96.5469" y="650.105"/>
      <point x="214.592" y="742.33"/>
      <point x="374.259" y="742.33" type="curve" smooth="yes"/>
      <point x="463.719" y="742.33"/>
      <point x="587.37" y="717.271"/>
      <point x="587.37" y="686" type="curve" smooth="yes"/>
      <point x="587.37" y="669.715"/>
      <point x="565.745" y="585.898"/>
      <point x="544" y="585.898" type="curve" smooth="yes"/>
      <point x="513.295" y="585.898"/>
      <point x="520.185" y="687.885"/>
      <point x="409.271" y="687.885" type="curve" smooth="yes"/>
      <point x="353.012" y="687.885"/>
      <point x="310.682" y="633.636"/>
      <point x="310.682" y="584.478" type="curve" smooth="yes"/>
      <point x="310.682" y="516.304"/>
      <point x="385.86" y="476.045"/>
      <point x="472.652" y="427.27" type="curve" smooth="yes"/>
      <point x="578.295" y="366.635"/>
      <point x="620.809" y="304.594"/>
      <point x="620.809" y="214.553" type="curve" smooth="yes"/>
      <point x="620.809" y="66.5847"/>
      <point x="484.812" y="-9.56348"/>
      <point x="337.998" y="-9.56348" type="curve" smooth="yes"/>
      <point x="185.957" y="-9.56348"/>
      <point x="68.002" y="74.9795"/>
      <point x="68.002" y="123" type="curve" smooth="yes"/>
      <point x="68.002" y="148.665"/>
      <point x="120.676" y="219.003"/>
      <point x="146" y="219.003" type="curve" smooth="yes"/>
      <point x="149.35" y="219.003"/>
      <point x="158.102" y="217.381"/>
    </contour>
  </outline>
</glyph>
<glyph name="T" format="1">
  <advance width="759"/>
  <unicode hex="0054"/>
  <outline>
    <contour>
      <point x="540" y="0" type="curve"/>
      <point x="239" y="0" type="line"/>
      <point x="239" y="0"/>
      <point x="234.392" y="8.55273"/>
      <point x="234.392" y="17.3047" type="curve" smooth="yes"/>
      <point x="234.392" y="25.3047"/>
      <point x="239" y="33"/>
      <point x="239" y="33" type="curve"/>
      <point x="246.005" y="33.2842" type="line" smooth="yes"/>
      <point x="258.364" y="33.4395"/>
      <point x="263.037" y="34.3623"/>
      <point x="272.262" y="39.3145" type="curve" smooth="yes"/>
      <point x="286.428" y="46.9189"/>
      <point x="290.024" y="59.0488"/>
      <point x="290.143" y="68.0576" type="curve" smooth="yes"/>
      <point x="291.539" y="132.843"/>
      <point x="293.023" y="264.542"/>
      <point x="293.023" y="329.221" type="curve" smooth="yes"/>
      <point x="293.023" y="467.991"/>
      <point x="291.791" y="513.669"/>
      <point x="291.534" y="652.898" type="curve" smooth="yes"/>
      <point x="291.534" y="668.686"/>
      <point x="285.636" y="680.237"/>
      <point x="274.637" y="681.815" type="curve" smooth="yes"/>
      <point x="268.879" y="682.642"/>
      <point x="257.482" y="683.114"/>
      <point x="243.636" y="683.114" type="curve" smooth="yes"/>
      <point x="208.809" y="683.114"/>
      <point x="192.43" y="680.118"/>
      <point x="163.299" y="675.104" type="curve" smooth="yes"/>
      <point x="121.049" y="667.722"/>
      <point x="103.326" y="640.478"/>
      <point x="93.9531" y="590.315" type="curve"/>
      <point x="58" y="590.339" type="line"/>
      <point x="77.2842" y="727.471" type="line"/>
      <point x="77.3984" y="727.881" type="line" smooth="yes"/>
      <point x="79.1357" y="734.109"/>
      <point x="85.2607" y="735.953"/>
      <point x="89.1406" y="735.953" type="curve" smooth="yes"/>
      <point x="97.0664" y="735.953"/>
      <point x="106.723" y="732.861"/>
      <point x="113.2" y="732.764" type="curve" smooth="yes"/>
      <point x="150.035" y="732.207"/>
      <point x="267.834" y="730"/>
      <point x="394.189" y="730" type="curve"/>
      <point x="505.101" y="730.999"/>
      <point x="590.114" y="732.756"/>
      <point x="679.89" y="734.753" type="curve" smooth="yes"/>
      <point x="683.141" y="734.825"/>
      <point x="697.814" y="737.774"/>
      <point x="704.512" y="737.774" type="curve" smooth="yes"/>
      <point x="709.469" y="737.774"/>
      <point x="713.141" y="737.121"/>
      <point x="713.141" y="725.884" type="curve"/>
      <point x="708.899" y="589.981" type="line"/>
      <point x="676.169" y="589.765" type="line"/>
      <point x="676.017" y="625.199"/>
      <point x="668.038" y="669.898"/>
      <point x="637.676" y="677.146" type="curve" smooth="yes"/>
      <point x="615.245" y="682.5"/>
      <point x="623.197" y="682.759"/>
      <point x="561.922" y="682.759" type="curve" smooth="yes"/>
      <point x="544.086" y="682.759"/>
      <point x="528.495" y="682.334"/>
      <point x="509.612" y="681.956" type="curve" smooth="yes"/>
      <point x="494.529" y="681.654"/>
      <point x="487.941" y="670.018"/>
      <point x="487.821" y="659.188" type="curve" smooth="yes"/>
      <point x="486.095" y="544.837"/>
      <point x="485.026" y="442.542"/>
      <point x="485.026" y="328.383" type="curve" smooth="yes"/>
      <point x="485.026" y="236.971"/>
      <point x="485.855" y="159.718"/>
      <point x="487.882" y="68.4688" type="curve"/>
      <point x="488.007" y="58.918"/>
      <point x="496.037" y="43.7441"/>
      <point x="512.155" y="37.5469" type="curve" smooth="yes"/>
      <point x="519.245" y="34.8213"/>
      <point x="525.286" y="33.3867"/>
      <point x="533.23" y="33.2842" type="curve" smooth="yes"/>
      <point x="539.397" y="32.6094" type="line"/>
      <point x="539.397" y="32.6094"/>
      <point x="543.392" y="26.0566"/>
      <point x="543.392" y="17.3047" type="curve" smooth="yes"/>
      <point x="543.392" y="9.30469"/>
      <point x="540" y="0"/>
    </contour>
  </outline>
</glyph>
<glyph name="U" format="1">
  <advance width="815"/>
  <unicode hex="0055"/>
  <outline>
    <contour>
      <point x="556.244" y="699.019" type="line"/>
      <point x="556.244" y="699.019"/>
      <point x="552" y="705.248"/>
      <point x="552" y="714" type="curve" smooth="yes"/>
      <point x="552" y="722"/>
      <point x="556" y="730"/>
      <point x="556" y="730" type="curve"/>
      <point x="776" y="730" type="line"/>
      <point x="776" y="730"/>
      <point x="779" y="722.752"/>
      <point x="779" y="714" type="curve" smooth="yes"/>
      <point x="779" y="706"/>
      <point x="776" y="699"/>
      <point x="776" y="699" type="curve"/>
      <point x="768.832" y="698.887" type="line" smooth="yes"/>
      <point x="749.922" y="698.588"/>
      <point x="723.278" y="682.535"/>
      <point x="723.219" y="664.168" type="curve" smooth="yes"/>
      <point x="723.195" y="656.831"/>
      <point x="723.186" y="643.747"/>
      <point x="723.186" y="643.747" type="curve"/>
      <point x="723.186" y="643.747"/>
      <point x="723.932" y="518.929"/>
      <point x="723.932" y="456.461" type="curve" smooth="yes"/>
      <point x="723.932" y="374.996"/>
      <point x="723.562" y="312.678"/>
      <point x="722.851" y="278.515" type="curve" smooth="yes"/>
      <point x="717.902" y="40.9238"/>
      <point x="566.086" y="-10.665"/>
      <point x="443.688" y="-10.665" type="curve" smooth="yes"/>
      <point x="289.335" y="-10.665"/>
      <point x="96.4824" y="41.8203"/>
      <point x="95.7393" y="291.442" type="curve" smooth="yes"/>
      <point x="94.6006" y="661.946" type="line" smooth="yes"/>
      <point x="94.6006" y="682.73"/>
      <point x="71" y="697"/>
      <point x="48.7666" y="698.534" type="curve" smooth="yes"/>
      <point x="42" y="699" type="line"/>
      <point x="42" y="699"/>
      <point x="37.3916" y="705.553"/>
      <point x="37.3916" y="714.305" type="curve" smooth="yes"/>
      <point x="37.3916" y="722.305"/>
      <point x="42" y="730"/>
      <point x="42" y="730" type="curve"/>
      <point x="352.92" y="730.005" type="line"/>
      <point x="352.92" y="730.005"/>
      <point x="356.392" y="723.057"/>
      <point x="356.392" y="714.305" type="curve" smooth="yes"/>
      <point x="356.392" y="706.305"/>
      <point x="353" y="699"/>
      <point x="353" y="699" type="curve"/>
      <point x="346.013" y="698.717" type="line" smooth="yes"/>
      <point x="321" y="698"/>
      <point x="301.075" y="683.649"/>
      <point x="300.717" y="662.113" type="curve" smooth="yes"/>
      <point x="299.47" y="587.143"/>
      <point x="298.065" y="324.372"/>
      <point x="298.065" y="318.538" type="curve" smooth="yes"/>
      <point x="298.065" y="107.192"/>
      <point x="351.248" y="36.002"/>
      <point x="448.458" y="36.002" type="curve" smooth="yes"/>
      <point x="533.227" y="36.002"/>
      <point x="608.919" y="99.0439"/>
      <point x="608.919" y="304.53" type="curve" smooth="yes"/>
      <point x="608.919" y="334.884"/>
      <point x="608.604" y="634.014"/>
      <point x="608.604" y="664.043" type="curve" smooth="yes"/>
      <point x="608.604" y="681.49"/>
      <point x="586.021" y="698.631"/>
      <point x="563.151" y="698.929" type="curve" smooth="yes"/>
    </contour>
  </outline>
</glyph>
<glyph name="V" format="1">
  <advance width="769"/>
  <unicode hex="0056"/>
  <outline>
    <contour>
      <point x="780" y="697" type="curve"/>
      <point x="772" y="697" type="line" smooth="yes"/>
      <point x="743" y="697"/>
      <point x="738.611" y="681.818"/>
      <point x="724.31" y="654.628" type="curve"/>
      <point x="443.109" y="24.9521" type="line"/>
      <point x="437.923" y="13.1201"/>
      <point x="434.835" y="6.26953"/>
      <point x="434.824" y="6.24512" type="curve" smooth="yes"/>
      <point x="434.739" y="6.05469" type="line"/>
      <point x="434.644" y="5.86914" type="line" smooth="yes"/>
      <point x="433.178" y="3.02539"/>
      <point x="428.18" y="-8"/>
      <point x="416.938" y="-8" type="curve" smooth="yes"/>
      <point x="407.444" y="-8"/>
      <point x="400.721" y="-0.759766"/>
      <point x="397.908" y="6.51465" type="curve" smooth="yes"/>
      <point x="303.951" y="228.435"/>
      <point x="201.316" y="435.225"/>
      <point x="110" y="661.552" type="curve" smooth="yes"/>
      <point x="100.252" y="685.712"/>
      <point x="93" y="697"/>
      <point x="67" y="697" type="curve" smooth="yes"/>
      <point x="60" y="697" type="line"/>
      <point x="60" y="697"/>
      <point x="55.3916" y="705.553"/>
      <point x="55.3916" y="714.305" type="curve" smooth="yes"/>
      <point x="55.3916" y="722.305"/>
      <point x="60" y="730"/>
      <point x="60" y="730" type="curve"/>
      <point x="375.5" y="730" type="line"/>
      <point x="375.5" y="730"/>
      <point x="378.392" y="723.057"/>
      <point x="378.392" y="714.305" type="curve" smooth="yes"/>
      <point x="378.392" y="706.305"/>
      <point x="375" y="697"/>
      <point x="375" y="697" type="curve"/>
      <point x="368.281" y="697" type="line" smooth="yes"/>
      <point x="346" y="697"/>
      <point x="323.229" y="679.776"/>
      <point x="323.229" y="665.516" type="curve" smooth="yes"/>
      <point x="323.229" y="661.904"/>
      <point x="323.849" y="655.178"/>
      <point x="326.659" y="648.182" type="curve"/>
      <point x="476" y="295" type="line"/>
      <point x="635.531" y="641.711" type="line"/>
      <point x="641.449" y="655.484"/>
      <point x="643.592" y="659.052"/>
      <point x="643.592" y="665.165" type="curve" smooth="yes"/>
      <point x="643.592" y="681.606"/>
      <point x="621" y="697"/>
      <point x="599.906" y="697" type="curve" smooth="yes"/>
      <point x="593" y="697" type="line"/>
      <point x="593" y="697"/>
      <point x="588.392" y="705.553"/>
      <point x="588.392" y="714.305" type="curve" smooth="yes"/>
      <point x="588.392" y="722.305"/>
      <point x="593" y="730"/>
      <point x="593" y="730" type="curve"/>
      <point x="779" y="730" type="line"/>
      <point x="779" y="730"/>
      <point x="783.392" y="723.057"/>
      <point x="783.392" y="714.305" type="curve" smooth="yes"/>
      <point x="783.392" y="706.305"/>
      <point x="780" y="697"/>
    </contour>
  </outline>
</glyph>
<glyph name="W" format="1">
  <advance width="1097"/>
  <unicode hex="0057"/>
  <outline>
    <contour>
      <point x="375" y="701" type="line"/>
      <point x="363.947" y="700.918" type="line" smooth="yes"/>
      <point x="342.001" y="700.832"/>
      <point x="317.865" y="686.48"/>
      <point x="317.865" y="665" type="curve" smooth="yes"/>
      <point x="317.865" y="660.38"/>
      <point x="318.502" y="658.486"/>
      <point x="321.344" y="651.509" type="curve" smooth="yes"/>
      <point x="470" y="286" type="line"/>
      <point x="534.101" y="404.893" type="line"/>
      <point x="427" y="665" type="line" smooth="yes"/>
      <point x="416.807" y="688.918"/>
      <point x="400.997" y="700.73"/>
      <point x="383.604" y="700.918" type="curve" smooth="yes"/>
    </contour>
    <contour>
      <point x="696.729" y="486" type="line"/>
      <point x="696.729" y="486"/>
      <point x="745.014" y="361.265"/>
      <point x="771" y="295" type="curve"/>
      <point x="824" y="405"/>
      <point x="903" y="566"/>
      <point x="934.398" y="640.554" type="curve" smooth="yes"/>
      <point x="937" y="648"/>
      <point x="939" y="661.157"/>
      <point x="939" y="668" type="curve" smooth="yes"/>
      <point x="939" y="686.315"/>
      <point x="915.984" y="700.687"/>
      <point x="896.058" y="700.918" type="curve" smooth="yes"/>
      <point x="889" y="701" type="line"/>
      <point x="889" y="701"/>
      <point x="885.392" y="707.553"/>
      <point x="885.392" y="716.305" type="curve" smooth="yes"/>
      <point x="885.392" y="724.305"/>
      <point x="889" y="730"/>
      <point x="889" y="730" type="curve"/>
      <point x="1084" y="730" type="line"/>
      <point x="1084" y="730"/>
      <point x="1087.39" y="724.057"/>
      <point x="1087.39" y="715.305" type="curve" smooth="yes"/>
      <point x="1087.39" y="707.305"/>
      <point x="1084" y="701"/>
      <point x="1084" y="701" type="curve"/>
      <point x="1077.09" y="700.486" type="line" smooth="yes"/>
      <point x="1046.23" y="698.481"/>
      <point x="1039.43" y="683.635"/>
      <point x="1027" y="656" type="curve" smooth="yes"/>
      <point x="1027" y="656"/>
      <point x="766.282" y="77.9092"/>
      <point x="743.326" y="23.2705" type="curve" smooth="yes"/>
      <point x="738.583" y="12.5498"/>
      <point x="735.118" y="5.03906"/>
      <point x="735.082" y="4.95996" type="curve" smooth="yes"/>
      <point x="731.247" y="-3.48633"/>
      <point x="721.216" y="-9.8291"/>
      <point x="712.973" y="-9.8291" type="curve" smooth="yes"/>
      <point x="704.474" y="-9.8291"/>
      <point x="695.588" y="-2.28516"/>
      <point x="692.56" y="4.73438" type="curve" smooth="yes"/>
      <point x="689.62" y="11.5459"/>
      <point x="652.369" y="149.615"/>
      <point x="588.976" y="316.579" type="curve"/>
      <point x="448.332" y="25.5645" type="line" smooth="yes"/>
      <point x="443.65" y="14.7744"/>
      <point x="440.132" y="7"/>
      <point x="440.114" y="6.96094" type="curve" smooth="yes"/>
      <point x="436.28" y="-1.48633"/>
      <point x="426.249" y="-7.8291"/>
      <point x="418.005" y="-7.8291" type="curve" smooth="yes"/>
      <point x="409.654" y="-7.8291"/>
      <point x="400.51" y="-0.483398"/>
      <point x="397.53" y="6.88086" type="curve" smooth="yes"/>
      <point x="392.507" y="19.0654"/>
      <point x="194.992" y="475.73"/>
      <point x="124.155" y="646.7" type="curve" smooth="yes"/>
      <point x="117.258" y="662.945" type="line" smooth="yes"/>
      <point x="106.129" y="689.717"/>
      <point x="101" y="698"/>
      <point x="72.9062" y="700.486" type="curve" smooth="yes"/>
      <point x="66" y="701" type="line"/>
      <point x="66" y="701"/>
      <point x="61.3916" y="707.553"/>
      <point x="61.3916" y="716.305" type="curve" smooth="yes"/>
      <point x="61.3916" y="724.305"/>
      <point x="66" y="730"/>
      <point x="66" y="730" type="curve"/>
      <point x="312.333" y="730"/>
      <point x="578.667" y="730"/>
      <point x="825" y="730" type="curve"/>
      <point x="825" y="730"/>
      <point x="829.392" y="725.057"/>
      <point x="829.392" y="716.305" type="curve" smooth="yes"/>
      <point x="829.392" y="708.305"/>
      <point x="826" y="701"/>
      <point x="826" y="701" type="curve"/>
      <point x="818.395" y="700.918" type="line" smooth="yes"/>
      <point x="789.993" y="700.611"/>
      <point x="784.588" y="687.194"/>
      <point x="772.767" y="662.131" type="curve" smooth="yes"/>
    </contour>
    <contour>
      <point x="670.338" y="703.078" type="curve"/>
      <point x="650" y="703.078"/>
      <point x="626.384" y="681.962"/>
      <point x="626.384" y="664.742" type="curve" smooth="yes"/>
      <point x="626.384" y="658.152"/>
      <point x="628.227" y="652.809"/>
      <point x="632.64" y="641.235" type="curve" smooth="yes"/>
      <point x="638.284" y="626.436"/>
      <point x="664.359" y="548.016"/>
      <point x="664.359" y="548.016" type="curve"/>
      <point x="664.359" y="548.016"/>
      <point x="695.69" y="622.938"/>
      <point x="701.343" y="635.955" type="curve" smooth="yes"/>
      <point x="709.168" y="653.371"/>
      <point x="710.875" y="657.577"/>
      <point x="710.875" y="666" type="curve" smooth="yes"/>
      <point x="710.875" y="683.324"/>
      <point x="686" y="703.078"/>
    </contour>
  </outline>
</glyph>
<glyph name="X" format="1">
  <advance width="869"/>
  <unicode hex="0058"/>
  <outline>
    <contour>
      <point x="825" y="0" type="curve"/>
      <point x="501" y="0" type="line"/>
      <point x="501" y="0"/>
      <point x="496.392" y="8.55273"/>
      <point x="496.392" y="17.3047" type="curve" smooth="yes"/>
      <point x="496.392" y="25.3047"/>
      <point x="501" y="33"/>
      <point x="501" y="33" type="curve"/>
      <point x="507.221" y="32.9473" type="line" smooth="yes"/>
      <point x="515.127" y="33.0518"/>
      <point x="520.692" y="34.0869"/>
      <point x="527.773" y="36.2422" type="curve" smooth="yes"/>
      <point x="538.722" y="39.5742"/>
      <point x="548.744" y="47.1279"/>
      <point x="548.744" y="56" type="curve" smooth="yes"/>
      <point x="548.744" y="63.8818"/>
      <point x="538.29" y="79.4424"/>
      <point x="529.371" y="93.4941" type="curve"/>
      <point x="382.187" y="303.347" type="line"/>
      <point x="318.029" y="218.838"/>
      <point x="275.353" y="174.528"/>
      <point x="213.344" y="91.2842" type="curve"/>
      <point x="198.067" y="70.7178"/>
      <point x="193.522" y="62.4844"/>
      <point x="193.522" y="57" type="curve" smooth="yes"/>
      <point x="193.522" y="51.7285"/>
      <point x="197.875" y="41.2705"/>
      <point x="208.728" y="37.2393" type="curve" smooth="yes"/>
      <point x="215.121" y="34.8643"/>
      <point x="222.777" y="33.0605"/>
      <point x="231.29" y="32.9473" type="curve" smooth="yes"/>
      <point x="237.98" y="33" type="line"/>
      <point x="237.98" y="33"/>
      <point x="241.392" y="26.0566"/>
      <point x="241.392" y="17.3047" type="curve" smooth="yes"/>
      <point x="241.392" y="9.30469"/>
      <point x="238" y="0"/>
      <point x="238" y="0" type="curve"/>
      <point x="36" y="0" type="line"/>
      <point x="36" y="0"/>
      <point x="31.3916" y="8.55273"/>
      <point x="31.3916" y="17.3047" type="curve" smooth="yes"/>
      <point x="31.3916" y="25.3047"/>
      <point x="36" y="33"/>
      <point x="36" y="33" type="curve"/>
      <point x="42.9082" y="33.3838" type="line" smooth="yes"/>
      <point x="51.0537" y="33.4893"/>
      <point x="59.1953" y="34.7568"/>
      <point x="66.5615" y="37.6201" type="curve" smooth="yes"/>
      <point x="78.4043" y="42.2236"/>
      <point x="89.2207" y="59.7305"/>
      <point x="101.002" y="75.7812" type="curve" smooth="yes"/>
      <point x="332.535" y="378.979" type="line"/>
      <point x="239.354" y="508.497"/>
      <point x="167.021" y="611.157"/>
      <point x="124.959" y="667.244" type="curve" smooth="yes"/>
      <point x="116.552" y="678.453"/>
      <point x="110.394" y="689.495"/>
      <point x="102.231" y="693.228" type="curve" smooth="yes"/>
      <point x="95.082" y="696.497"/>
      <point x="84.748" y="696.368"/>
      <point x="76.6562" y="696.473" type="curve" smooth="yes"/>
      <point x="70" y="697" type="line"/>
      <point x="70" y="697"/>
      <point x="65.3916" y="705.553"/>
      <point x="65.3916" y="714.305" type="curve" smooth="yes"/>
      <point x="65.3916" y="722.305"/>
      <point x="70" y="730"/>
      <point x="70" y="730" type="curve"/>
      <point x="404.98" y="730" type="line"/>
      <point x="404.98" y="730"/>
      <point x="408.392" y="723.057"/>
      <point x="408.392" y="714.305" type="curve" smooth="yes"/>
      <point x="408.392" y="706.305"/>
      <point x="405" y="697"/>
      <point x="405" y="697" type="curve"/>
      <point x="398.339" y="696.907" type="line" smooth="yes"/>
      <point x="390.421" y="696.801"/>
      <point x="380.613" y="696.181"/>
      <point x="373.927" y="693.613" type="curve" smooth="yes"/>
      <point x="362.228" y="689.121"/>
      <point x="356.518" y="675.78"/>
      <point x="356.518" y="669" type="curve" smooth="yes"/>
      <point x="356.518" y="663.786"/>
      <point x="359.166" y="656.74"/>
      <point x="368.387" y="643.025" type="curve" smooth="yes"/>
      <point x="451" y="528" type="line"/>
      <point x="547.421" y="647.278" type="line"/>
      <point x="558.858" y="662.904"/>
      <point x="566.754" y="672.277"/>
      <point x="566.754" y="679.168" type="curve" smooth="yes"/>
      <point x="566.754" y="690.969"/>
      <point x="553" y="696"/>
      <point x="532.952" y="696.831" type="curve" smooth="yes"/>
      <point x="526" y="697" type="line"/>
      <point x="526" y="697"/>
      <point x="521.392" y="705.553"/>
      <point x="521.392" y="714.305" type="curve" smooth="yes"/>
      <point x="521.392" y="722.305"/>
      <point x="526" y="730"/>
      <point x="526" y="730" type="curve"/>
      <point x="716.98" y="730" type="line"/>
      <point x="716.98" y="730"/>
      <point x="720.392" y="723.057"/>
      <point x="720.392" y="714.305" type="curve" smooth="yes"/>
      <point x="720.392" y="706.305"/>
      <point x="717" y="697"/>
      <point x="717" y="697" type="curve"/>
      <point x="709.337" y="697.397" type="line" smooth="yes"/>
      <point x="701.189" y="697.291"/>
      <point x="692.047" y="696.027"/>
      <point x="684.685" y="693.163" type="curve" smooth="yes"/>
      <point x="672.851" y="688.56"/>
      <point x="660.09" y="670.011"/>
      <point x="648.213" y="653.964" type="curve" smooth="yes"/>
      <point x="499.146" y="460.113" type="line"/>
      <point x="510.232" y="444.813" type="line"/>
      <point x="607.263" y="308.627"/>
      <point x="723.478" y="124.629"/>
      <point x="767.741" y="65.6104" type="curve" smooth="yes"/>
      <point x="776.146" y="54.4033"/>
      <point x="783.305" y="41.3662"/>
      <point x="791.47" y="38.6299" type="curve" smooth="yes"/>
      <point x="798.599" y="36.2402"/>
      <point x="810.817" y="33.4883"/>
      <point x="818.9" y="33.3838" type="curve" smooth="yes"/>
      <point x="824.98" y="33" type="line"/>
      <point x="824.98" y="33"/>
      <point x="828.392" y="26.0566"/>
      <point x="828.392" y="17.3047" type="curve" smooth="yes"/>
      <point x="828.392" y="9.30469"/>
      <point x="825" y="0"/>
    </contour>
  </outline>
</glyph>
<glyph name="Y" format="1">
  <advance width="802"/>
  <unicode hex="0059"/>
  <outline>
    <contour>
      <point x="552.98" y="33" type="line"/>
      <point x="552.98" y="33"/>
      <point x="556.392" y="26.0566"/>
      <point x="556.392" y="17.3047" type="curve" smooth="yes"/>
      <point x="556.392" y="9.30469"/>
      <point x="553" y="0"/>
      <point x="553" y="0" type="curve"/>
      <point x="252" y="0" type="line"/>
      <point x="252" y="0"/>
      <point x="247.392" y="8.55273"/>
      <point x="247.392" y="17.3047" type="curve" smooth="yes"/>
      <point x="247.392" y="25.3047"/>
      <point x="252" y="33"/>
      <point x="252" y="33" type="curve"/>
      <point x="258.964" y="33.3828" type="line" smooth="yes"/>
      <point x="283" y="35"/>
      <point x="303.71" y="50.1992"/>
      <point x="303.71" y="68.9951" type="curve" smooth="yes"/>
      <point x="304.968" y="139.229"/>
      <point x="305.812" y="191.127"/>
      <point x="305.812" y="259.031" type="curve" smooth="yes"/>
      <point x="305.812" y="300.252"/>
      <point x="305.961" y="343.72"/>
      <point x="306.084" y="382.946" type="curve"/>
      <point x="220.188" y="507.12"/>
      <point x="148.474" y="613.558"/>
      <point x="108.213" y="667.241" type="curve" smooth="yes"/>
      <point x="94.8594" y="685.045"/>
      <point x="76.7266" y="695.259"/>
      <point x="60.9102" y="696.471" type="curve" smooth="yes"/>
      <point x="54" y="697" type="line"/>
      <point x="54" y="697"/>
      <point x="49.3916" y="705.553"/>
      <point x="49.3916" y="714.305" type="curve" smooth="yes"/>
      <point x="49.3916" y="722.305"/>
      <point x="54" y="730"/>
      <point x="54" y="730" type="curve"/>
      <point x="362.98" y="730" type="line"/>
      <point x="362.98" y="730"/>
      <point x="361.392" y="723.057"/>
      <point x="361.392" y="714.305" type="curve" smooth="yes"/>
      <point x="361.392" y="706.305"/>
      <point x="363" y="697"/>
      <point x="363" y="697" type="curve"/>
      <point x="356.593" y="696.907" type="line" smooth="yes"/>
      <point x="340.99" y="696.682"/>
      <point x="315.822" y="683.22"/>
      <point x="315.822" y="670.558" type="curve" smooth="yes"/>
      <point x="315.822" y="665.491"/>
      <point x="317.636" y="658.503"/>
      <point x="326.651" y="645.009" type="curve" smooth="yes"/>
      <point x="457.44" y="466.902" type="line"/>
      <point x="594.675" y="639.278" type="line" smooth="yes"/>
      <point x="608.685" y="658.419"/>
      <point x="612.837" y="667.828"/>
      <point x="612.837" y="674.009" type="curve" smooth="yes"/>
      <point x="612.837" y="683.953"/>
      <point x="590.012" y="696.508"/>
      <point x="576.206" y="696.831" type="curve" smooth="yes"/>
      <point x="569" y="697" type="line"/>
      <point x="569" y="697"/>
      <point x="564.392" y="705.553"/>
      <point x="564.392" y="714.305" type="curve" smooth="yes"/>
      <point x="564.392" y="722.305"/>
      <point x="569" y="730"/>
      <point x="569" y="730" type="curve"/>
      <point x="757.98" y="730" type="line"/>
      <point x="757.98" y="730"/>
      <point x="761.392" y="723.057"/>
      <point x="761.392" y="714.305" type="curve" smooth="yes"/>
      <point x="761.392" y="706.305"/>
      <point x="758" y="697"/>
      <point x="758" y="697" type="curve"/>
      <point x="750.591" y="697.394" type="line" smooth="yes"/>
      <point x="727.137" y="697.089"/>
      <point x="710.052" y="678.292"/>
      <point x="702.707" y="667.883" type="curve"/>
      <point x="497.614" y="393.006" type="line"/>
      <point x="498.398" y="346.582"/>
      <point x="498.646" y="303.552"/>
      <point x="498.646" y="258.05" type="curve" smooth="yes"/>
      <point x="498.646" y="190.79"/>
      <point x="499.324" y="137.291"/>
      <point x="500.627" y="69.5205" type="curve" smooth="yes"/>
      <point x="500.627" y="49.1797"/>
      <point x="513" y="34"/>
      <point x="537.692" y="33.3828" type="curve" smooth="yes"/>
    </contour>
  </outline>
</glyph>
<glyph name="Z" format="1">
  <advance width="760"/>
  <unicode hex="005A"/>
  <outline>
    <contour>
      <point x="693.938" y="696.516" type="curve" smooth="yes"/>
      <point x="693.938" y="687.562"/>
      <point x="691.083" y="671.215"/>
      <point x="684.426" y="661.973" type="curve" smooth="yes"/>
      <point x="300.229" y="52.2832" type="line"/>
      <point x="335.876" y="47.9912"/>
      <point x="365.751" y="46"/>
      <point x="407.228" y="46" type="curve" smooth="yes"/>
      <point x="452.75" y="46"/>
      <point x="464.463" y="46.3848"/>
      <point x="516.223" y="53.1367" type="curve" smooth="yes"/>
      <point x="602.283" y="64.3623"/>
      <point x="630" y="146"/>
      <point x="641.059" y="176.721" type="curve"/>
      <point x="674.243" y="178.443" type="line"/>
      <point x="623.805" y="0" type="line"/>
      <point x="86.8877" y="0" type="line" smooth="yes"/>
      <point x="79.1328" y="0"/>
      <point x="54.0146" y="8.12598"/>
      <point x="54.0146" y="29.5059" type="curve" smooth="yes"/>
      <point x="54.0146" y="37.2178"/>
      <point x="57.1045" y="50.3262"/>
      <point x="61.0889" y="55.9932" type="curve"/>
      <point x="473.236" y="683.662" type="line"/>
      <point x="444.481" y="684.897"/>
      <point x="412.208" y="687.333"/>
      <point x="366.383" y="687.333" type="curve"/>
      <point x="304.875" y="687.021"/>
      <point x="297.333" y="685.871"/>
      <point x="255.442" y="677.291" type="curve" smooth="yes"/>
      <point x="187.546" y="663.217"/>
      <point x="160.104" y="631.044"/>
      <point x="146.71" y="572.752" type="curve" smooth="yes"/>
      <point x="145.539" y="567.654" type="line"/>
      <point x="113.045" y="565.774" type="line"/>
      <point x="146.092" y="725.021" type="line"/>
      <point x="146.14" y="725.194" type="line" smooth="yes"/>
      <point x="148.496" y="733.734"/>
      <point x="157.281" y="734.544"/>
      <point x="162" y="734.544" type="curve" smooth="yes"/>
      <point x="173.171" y="734.544"/>
      <point x="187.937" y="730"/>
      <point x="192.875" y="730" type="curve" smooth="yes"/>
      <point x="376.561" y="730.333" type="line" smooth="yes"/>
      <point x="686.742" y="730.333" type="line"/>
      <point x="688.443" y="725.786" type="line" smooth="yes"/>
      <point x="688.556" y="725.492"/>
      <point x="693.938" y="710.434"/>
    </contour>
  </outline>
</glyph>
<glyph name="bracketleft" format="1">
  <advance width="361"/>
  <unicode hex="005B"/>
  <outline>
    <contour>
      <point x="215" y="735" type="line"/>
      <point x="215" y="-74" type="line"/>
      <point x="298" y="-74" type="line" smooth="yes"/>
      <point x="311.694" y="-74"/>
      <point x="313.629" y="-91.3477"/>
      <point x="313.629" y="-100.284" type="curve" smooth="yes"/>
      <point x="313.629" y="-109.485"/>
      <point x="311.779" y="-128"/>
      <point x="298" y="-128" type="curve" smooth="yes"/>
      <point x="103" y="-128" type="line" smooth="yes"/>
      <point x="86.6279" y="-128"/>
      <point x="77" y="-117.958"/>
      <point x="77" y="-101" type="curve" smooth="yes"/>
      <point x="77" y="761" type="line" smooth="yes"/>
      <point x="77" y="778.853"/>
      <point x="88.6328" y="789"/>
      <point x="107" y="789" type="curve" smooth="yes"/>
      <point x="298" y="789" type="line" smooth="yes"/>
      <point x="311.694" y="789"/>
      <point x="313.629" y="771.652"/>
      <point x="313.629" y="762.716" type="curve" smooth="yes"/>
      <point x="313.629" y="753.515"/>
      <point x="311.779" y="735"/>
      <point x="298" y="735" type="curve" smooth="yes"/>
    </contour>
  </outline>
</glyph>
<glyph name="bracketright" format="1">
  <advance width="361"/>
  <unicode hex="005D"/>
  <outline>
    <contour>
      <point x="145" y="735" type="line"/>
      <point x="62" y="735" type="line" smooth="yes"/>
      <point x="48.2207" y="735"/>
      <point x="46.3711" y="752.515"/>
      <point x="46.3711" y="761.716" type="curve" smooth="yes"/>
      <point x="46.3711" y="770.652"/>
      <point x="48.3057" y="789"/>
      <point x="62" y="789" type="curve" smooth="yes"/>
      <point x="253" y="789" type="line" smooth="yes"/>
      <point x="271.367" y="789"/>
      <point x="283" y="778.853"/>
      <point x="283" y="761" type="curve" smooth="yes"/>
      <point x="283" y="-101" type="line" smooth="yes"/>
      <point x="283" y="-117.958"/>
      <point x="273.372" y="-128"/>
      <point x="257" y="-128" type="curve" smooth="yes"/>
      <point x="62" y="-128" type="line" smooth="yes"/>
      <point x="48.2207" y="-128"/>
      <point x="46.3711" y="-110.485"/>
      <point x="46.3711" y="-101.284" type="curve" smooth="yes"/>
      <point x="46.3711" y="-92.3477"/>
      <point x="48.3057" y="-74"/>
      <point x="62" y="-74" type="curve" smooth="yes"/>
      <point x="145" y="-74" type="line"/>
    </contour>
  </outline>
</glyph>
<glyph name="asciicircum" format="1">
  <advance width="537"/>
  <unicode hex="005E"/>
  <outline>
    <contour>
      <point x="461.388" y="584.475" type="line" smooth="yes"/>
      <point x="456.897" y="571.577"/>
      <point x="440.9" y="555.667"/>
      <point x="429.932" y="552.116" type="curve" smooth="yes"/>
      <point x="426.591" y="551.035" type="line"/>
      <point x="265" y="642.417" type="line"/>
      <point x="103.423" y="551.044" type="line"/>
      <point x="100.093" y="552.108" type="line" smooth="yes"/>
      <point x="87.5449" y="556.119"/>
      <point x="69.8008" y="577.99"/>
      <point x="66.4805" y="589.896" type="curve" smooth="yes"/>
      <point x="65.3828" y="593.835" type="line"/>
      <point x="265" y="785.453" type="line"/>
      <point x="464.831" y="593.621" type="line"/>
    </contour>
  </outline>
</glyph>
<glyph name="a" format="1">
  <advance width="598"/>
  <unicode hex="0061"/>
  <outline>
    <contour>
      <point x="556.566" y="62.1719" type="curve"/>
      <point x="559.755" y="20.9062" type="line"/>
      <point x="529.378" y="7.66602"/>
      <point x="475.059" y="-6.6084"/>
      <point x="439.349" y="-6.6084" type="curve" smooth="yes"/>
      <point x="405.298" y="-6.6084"/>
      <point x="356.35" y="22.7539"/>
      <point x="350.925" y="32.5" type="curve"/>
      <point x="303.12" y="2.71191"/>
      <point x="296.846" y="-10"/>
      <point x="230.068" y="-10" type="curve" smooth="yes"/>
      <point x="129.28" y="-10"/>
      <point x="37.8691" y="10.5215"/>
      <point x="37.8691" y="110.493" type="curve" smooth="yes"/>
      <point x="37.8691" y="230.021"/>
      <point x="220.114" y="288.722"/>
      <point x="351.148" y="326.756" type="curve"/>
      <point x="350.717" y="350.688"/>
      <point x="347.003" y="376.024"/>
      <point x="346.376" y="389.979" type="curve" smooth="yes"/>
      <point x="344.089" y="440.876"/>
      <point x="322.211" y="463.978"/>
      <point x="282.134" y="463.978" type="curve" smooth="yes"/>
      <point x="218.4" y="463.978"/>
      <point x="222.83" y="351.976"/>
      <point x="129" y="351.976" type="curve" smooth="yes"/>
      <point x="100.567" y="351.976"/>
      <point x="67.7119" y="389.294"/>
      <point x="67.7119" y="416" type="curve" smooth="yes"/>
      <point x="67.7119" y="421.853"/>
      <point x="71.833" y="433.436"/>
      <point x="75.1865" y="437.137" type="curve" smooth="yes"/>
      <point x="138.873" y="507.417"/>
      <point x="231.754" y="511.8"/>
      <point x="290.345" y="511.8" type="curve" smooth="yes"/>
      <point x="449.547" y="511.8"/>
      <point x="519.971" y="427.487"/>
      <point x="519.971" y="363.698" type="curve" smooth="yes"/>
      <point x="519.971" y="53.8203" type="line"/>
      <point x="531.458" y="56.084"/>
      <point x="545.713" y="59.0498"/>
    </contour>
    <contour>
      <point x="274.43" y="55.042" type="curve" smooth="yes"/>
      <point x="304.909" y="55.042"/>
      <point x="314.189" y="60.3662"/>
      <point x="346.028" y="85.292" type="curve"/>
      <point x="346.028" y="262.732" type="line"/>
      <point x="243" y="230"/>
      <point x="211.339" y="184.324"/>
      <point x="211.339" y="135" type="curve" smooth="yes"/>
      <point x="211.339" y="87.9248"/>
      <point x="241.458" y="55.042"/>
    </contour>
  </outline>
</glyph>
<glyph name="b" format="1">
  <advance width="649"/>
  <unicode hex="0062"/>
  <outline>
    <contour>
      <point x="241.049" y="721.269" type="curve" smooth="yes"/>
      <point x="241.014" y="478.947" type="line"/>
      <point x="274.855" y="499.85"/>
      <point x="306.895" y="512.002"/>
      <point x="356.047" y="512.002" type="curve" smooth="yes"/>
      <point x="504.334" y="512.002"/>
      <point x="612.173" y="430.873"/>
      <point x="612.173" y="244.945" type="curve" smooth="yes"/>
      <point x="612.173" y="57.8145"/>
      <point x="505.45" y="-10.1562"/>
      <point x="339.686" y="-10.1562" type="curve" smooth="yes"/>
      <point x="299.075" y="-10.1562"/>
      <point x="272.141" y="2.47949"/>
      <point x="230.078" y="26.0859" type="curve"/>
      <point x="208.944" y="6.98047"/>
      <point x="94.2383" y="-3.78906"/>
      <point x="38" y="-3.78906" type="curve" smooth="yes"/>
      <point x="31" y="-3.78906" type="line"/>
      <point x="31" y="34.0752" type="line"/>
      <point x="37.9072" y="34.165" type="line" smooth="yes"/>
      <point x="53.5947" y="34.3682"/>
      <point x="65.0244" y="47.8721"/>
      <point x="67.2266" y="59.2656" type="curve"/>
      <point x="67.2266" y="653.993" type="line" smooth="yes"/>
      <point x="67.2266" y="675.348"/>
      <point x="57.3926" y="685.34"/>
      <point x="40.4092" y="685.34" type="curve" smooth="yes"/>
      <point x="33.4092" y="685.34" type="line"/>
      <point x="33.4092" y="711.301" type="line"/>
      <point x="223.308" y="746.886" type="line" smooth="yes"/>
      <point x="225.012" y="747.34"/>
      <point x="226.621" y="747.506"/>
      <point x="228" y="747.506" type="curve" smooth="yes"/>
      <point x="240.768" y="747.506"/>
      <point x="241.012" y="731.086"/>
    </contour>
    <contour>
      <point x="241.008" y="427.318" type="curve"/>
      <point x="240.962" y="134.935" type="line"/>
      <point x="256.589" y="76.5938"/>
      <point x="283.684" y="39.9277"/>
      <point x="342.14" y="39.9277" type="curve" smooth="yes"/>
      <point x="402.453" y="39.9277"/>
      <point x="437.152" y="122.102"/>
      <point x="437.152" y="228.655" type="curve" smooth="yes"/>
      <point x="437.152" y="365.974"/>
      <point x="406.569" y="461.08"/>
      <point x="321.757" y="461.08" type="curve" smooth="yes"/>
      <point x="291.067" y="461.08"/>
      <point x="270.501" y="449.39"/>
    </contour>
  </outline>
</glyph>
<glyph name="c" format="1">
  <advance width="582"/>
  <unicode hex="0063"/>
  <outline>
    <contour>
      <point x="521.547" y="115.927" type="curve"/>
      <point x="549.798" y="76.5801" type="line"/>
      <point x="490.965" y="19.0664"/>
      <point x="429.288" y="-10"/>
      <point x="308.654" y="-10" type="curve" smooth="yes"/>
      <point x="181.304" y="-10"/>
      <point x="43.002" y="61.6201"/>
      <point x="43.002" y="265.711" type="curve" smooth="yes"/>
      <point x="43.002" y="359.693"/>
      <point x="100.87" y="512.857"/>
      <point x="324.243" y="512.857" type="curve" smooth="yes"/>
      <point x="384.069" y="512.857"/>
      <point x="489.497" y="495.875"/>
      <point x="544.002" y="430.656" type="curve" smooth="yes"/>
      <point x="547.527" y="426.438"/>
      <point x="550.523" y="421.711"/>
      <point x="550.523" y="416" type="curve" smooth="yes"/>
      <point x="550.523" y="388.042"/>
      <point x="501.752" y="353.485"/>
      <point x="479" y="353.485" type="curve" smooth="yes"/>
      <point x="395.716" y="353.485"/>
      <point x="401.009" y="478.075"/>
      <point x="333.031" y="478.075" type="curve" smooth="yes"/>
      <point x="273.911" y="478.075"/>
      <point x="215.057" y="393.786"/>
      <point x="215.057" y="278.516" type="curve" smooth="yes"/>
      <point x="215.057" y="187.32"/>
      <point x="245.89" y="44"/>
      <point x="345" y="44" type="curve" smooth="yes"/>
      <point x="421.59" y="44"/>
      <point x="467.044" y="60.624"/>
    </contour>
  </outline>
</glyph>
<glyph name="d" format="1">
  <advance width="665"/>
  <unicode hex="0064"/>
  <outline>
    <contour>
      <point x="616.932" y="61.9854" type="curve"/>
      <point x="621.404" y="21.4717" type="line"/>
      <point x="591.944" y="8.19824"/>
      <point x="550.719" y="-7.39941"/>
      <point x="511.31" y="-7.39941" type="curve" smooth="yes"/>
      <point x="469.249" y="-7.39941"/>
      <point x="410.639" y="10.9307"/>
      <point x="407.729" y="24.4404" type="curve"/>
      <point x="373.119" y="2.39551"/>
      <point x="354.842" y="-10"/>
      <point x="303.903" y="-10" type="curve" smooth="yes"/>
      <point x="162.617" y="-10"/>
      <point x="37.001" y="64.3496"/>
      <point x="37.001" y="264.028" type="curve" smooth="yes"/>
      <point x="37.001" y="427.936"/>
      <point x="151.71" y="513.166"/>
      <point x="300.838" y="513.166" type="curve" smooth="yes"/>
      <point x="354.85" y="513.166"/>
      <point x="365.999" y="505.953"/>
      <point x="406.408" y="490" type="curve"/>
      <point x="406.408" y="650.149" type="line" smooth="yes"/>
      <point x="406.408" y="671.746"/>
      <point x="395.612" y="681.496"/>
      <point x="377.979" y="681.496" type="curve" smooth="yes"/>
      <point x="370.559" y="681.496" type="line"/>
      <point x="370.559" y="711.457" type="line"/>
      <point x="562.542" y="747.041" type="line" smooth="yes"/>
      <point x="563.979" y="747.426"/>
      <point x="565.453" y="747.668"/>
      <point x="567" y="747.668" type="curve" smooth="yes"/>
      <point x="570.242" y="747.668"/>
      <point x="573.897" y="746.262"/>
      <point x="576.209" y="743.402" type="curve" smooth="yes"/>
      <point x="580.47" y="738.135"/>
      <point x="580.254" y="731.63"/>
      <point x="580.285" y="723.425" type="curve" smooth="yes"/>
      <point x="580.189" y="71.2822" type="line"/>
      <point x="580.189" y="71.2822"/>
      <point x="580.468" y="64.7002"/>
      <point x="580.468" y="63.1064" type="curve" smooth="yes"/>
      <point x="580.468" y="53.6729" type="line"/>
      <point x="591.047" y="55.918"/>
      <point x="606.628" y="58.9238"/>
    </contour>
    <contour>
      <point x="406.408" y="69.1406" type="curve"/>
      <point x="406.408" y="388.743" type="line"/>
      <point x="392.793" y="449.66"/>
      <point x="375.599" y="477"/>
      <point x="313.897" y="477" type="curve" smooth="yes"/>
      <point x="252.217" y="477"/>
      <point x="210.023" y="385.882"/>
      <point x="210.023" y="274.884" type="curve" smooth="yes"/>
      <point x="210.023" y="132.408"/>
      <point x="256.677" y="38.8711"/>
      <point x="322.037" y="38.8711" type="curve" smooth="yes"/>
      <point x="353.591" y="38.8711"/>
      <point x="377.07" y="45.7539"/>
    </contour>
  </outline>
</glyph>
<glyph name="e" format="1">
  <advance width="615"/>
  <unicode hex="0065"/>
  <outline>
    <contour>
      <point x="580.562" y="301.553" type="curve"/>
      <point x="239.734" y="302.634" type="line"/>
      <point x="235.021" y="282.668"/>
      <point x="232.764" y="262.175"/>
      <point x="232.764" y="241.863" type="curve" smooth="yes"/>
      <point x="232.764" y="138.287"/>
      <point x="301.47" y="43.4512"/>
      <point x="372.585" y="43.4512" type="curve" smooth="yes"/>
      <point x="429.437" y="43.4512"/>
      <point x="497.596" y="72.7529"/>
      <point x="547.428" y="117.306" type="curve"/>
      <point x="570.692" y="85.9365" type="line"/>
      <point x="517.309" y="25.8301"/>
      <point x="475.025" y="-10.7041"/>
      <point x="350.417" y="-10.7041" type="curve" smooth="yes"/>
      <point x="168.187" y="-10.7041"/>
      <point x="40.9697" y="70.8994"/>
      <point x="40.9697" y="256.025" type="curve" smooth="yes"/>
      <point x="40.9697" y="427.751"/>
      <point x="171.016" y="511.682"/>
      <point x="343.468" y="511.682" type="curve" smooth="yes"/>
      <point x="484.501" y="511.682"/>
      <point x="581.478" y="415.132"/>
      <point x="581.478" y="318.472" type="curve" smooth="yes"/>
      <point x="581.478" y="311.512"/>
      <point x="581.017" y="308.262"/>
    </contour>
    <contour>
      <point x="342.681" y="469.908" type="curve" smooth="yes"/>
      <point x="292.544" y="469.908"/>
      <point x="257.935" y="411.554"/>
      <point x="251.829" y="368.622" type="curve"/>
      <point x="286.407" y="364.982"/>
      <point x="307.39" y="361.541"/>
      <point x="338.875" y="361.541" type="curve" smooth="yes"/>
      <point x="371.442" y="361.541"/>
      <point x="396.196" y="362.75"/>
      <point x="424.795" y="364.711" type="curve"/>
      <point x="420.148" y="423.439"/>
      <point x="384.89" y="469.908"/>
    </contour>
  </outline>
</glyph>
<glyph name="f" format="1">
  <advance width="591"/>
  <unicode hex="0066"/>
  <outline>
    <contour>
      <point x="379.246" y="766.188" type="curve" smooth="yes"/>
      <point x="442.683" y="766.188"/>
      <point x="507" y="750"/>
      <point x="547.507" y="683.662" type="curve" smooth="yes"/>
      <point x="550.242" y="679.183"/>
      <point x="553.28" y="669.146"/>
      <point x="553.28" y="664.143" type="curve" smooth="yes"/>
      <point x="553.28" y="639.611"/>
      <point x="522.195" y="608.628"/>
      <point x="482.757" y="608.628" type="curve" smooth="yes"/>
      <point x="394.785" y="608.628"/>
      <point x="430.37" y="721.104"/>
      <point x="368.694" y="721.104" type="curve" smooth="yes"/>
      <point x="314.602" y="721.104"/>
      <point x="290.217" y="676.162"/>
      <point x="290.217" y="585.434" type="curve"/>
      <point x="290.719" y="504.654" type="line"/>
      <point x="379.597" y="504.654" type="line" smooth="yes"/>
      <point x="402.313" y="504.654"/>
      <point x="416.929" y="499.588"/>
      <point x="416.929" y="485.53" type="curve" smooth="yes"/>
      <point x="416.929" y="478.766"/>
      <point x="411.129" y="453.914"/>
      <point x="408.444" y="448.57" type="curve"/>
      <point x="402.683" y="448.57" type="line" smooth="yes"/>
      <point x="396.415" y="448.57"/>
      <point x="343.076" y="451.996"/>
      <point x="296.303" y="452.386" type="curve"/>
      <point x="295.833" y="57.4805" type="line"/>
      <point x="298.222" y="45.7988"/>
      <point x="309.671" y="32.9629"/>
      <point x="325.096" y="32.7627" type="curve" smooth="yes"/>
      <point x="332.004" y="32.6738" type="line"/>
      <point x="332.004" y="0" type="line"/>
      <point x="80.8809" y="0" type="line"/>
      <point x="80.8809" y="32.668" type="line"/>
      <point x="87.7881" y="32.7568" type="line" smooth="yes"/>
      <point x="103.434" y="32.957"/>
      <point x="114.913" y="46.4238"/>
      <point x="117.107" y="57.7568" type="curve"/>
      <point x="117.107" y="452.249" type="line"/>
      <point x="80.7881" y="451.396"/>
      <point x="77.0342" y="449.261"/>
      <point x="62" y="447.102" type="curve"/>
      <point x="70.3311" y="500.703" type="line"/>
      <point x="117.104" y="500.703" type="line"/>
      <point x="117.1" y="512.754"/>
      <point x="117.093" y="543.113"/>
      <point x="117.093" y="556" type="curve" smooth="yes"/>
      <point x="117.093" y="704.113"/>
      <point x="254.975" y="766.188"/>
    </contour>
  </outline>
</glyph>
<glyph name="g" format="1">
  <advance width="604"/>
  <unicode hex="0067"/>
  <outline>
    <contour>
      <point x="290.616" y="-201.951" type="curve" smooth="yes"/>
      <point x="366.049" y="-201.951"/>
      <point x="418.966" y="-149.183"/>
      <point x="418.966" y="-99.9512" type="curve" smooth="yes"/>
      <point x="418.966" y="-50.3232"/>
      <point x="366.693" y="-29.3311"/>
      <point x="307.529" y="-26.4502" type="curve"/>
      <point x="303.595" y="-26.3135"/>
      <point x="278.296" y="-24.8359"/>
      <point x="274.944" y="-24.5996" type="curve"/>
      <point x="219.059" y="-42.5713"/>
      <point x="199.096" y="-80.9531"/>
      <point x="199.096" y="-120.655" type="curve" smooth="yes"/>
      <point x="199.096" y="-167.891"/>
      <point x="246.399" y="-201.951"/>
    </contour>
    <contour>
      <point x="214.041" y="319.6" type="curve" smooth="yes"/>
      <point x="214.041" y="216.462"/>
      <point x="253.437" y="152.16"/>
      <point x="299.312" y="152.16" type="curve" smooth="yes"/>
      <point x="341.979" y="152.16"/>
      <point x="358.938" y="228.315"/>
      <point x="358.938" y="298.33" type="curve" smooth="yes"/>
      <point x="358.938" y="390.123"/>
      <point x="325.414" y="453.089"/>
      <point x="275.644" y="453.089" type="curve" smooth="yes"/>
      <point x="245.854" y="453.089"/>
      <point x="214.041" y="382.651"/>
    </contour>
    <contour>
      <point x="513.329" y="296.173" type="curve" smooth="yes"/>
      <point x="513.329" y="124.467"/>
      <point x="391.334" y="102.133"/>
      <point x="270.604" y="66.835" type="curve" smooth="yes"/>
      <point x="266.432" y="65.6152"/>
      <point x="259.943" y="60.5371"/>
      <point x="259.943" y="56.1104" type="curve" smooth="yes"/>
      <point x="259.943" y="49.6768"/>
      <point x="270.943" y="45.6914"/>
      <point x="275.628" y="44.9932" type="curve" smooth="yes"/>
      <point x="289" y="43"/>
      <point x="302.854" y="40.9268"/>
      <point x="313.181" y="39.9268" type="curve"/>
      <point x="383.354" y="30.5283" type="line" smooth="yes"/>
      <point x="482.31" y="21.3359"/>
      <point x="570.154" y="13.8311"/>
      <point x="570.154" y="-72.9111" type="curve" smooth="yes"/>
      <point x="570.154" y="-186.104"/>
      <point x="405.876" y="-242.607"/>
      <point x="280.281" y="-242.607" type="curve" smooth="yes"/>
      <point x="174.597" y="-242.607"/>
      <point x="30.126" y="-224.129"/>
      <point x="30.126" y="-135.368" type="curve" smooth="yes"/>
      <point x="30.126" y="-59.624"/>
      <point x="127.889" y="-30.6729"/>
      <point x="197.306" y="-10.9766" type="curve"/>
      <point x="173.075" y="-8.60645"/>
      <point x="154.797" y="-5.91211"/>
      <point x="139.76" y="-2.86035" type="curve" smooth="yes"/>
      <point x="111.018" y="2.81348"/>
      <point x="74.7812" y="15.3936"/>
      <point x="74.7812" y="41.1318" type="curve" smooth="yes"/>
      <point x="74.7812" y="79.8955"/>
      <point x="162.168" y="101.177"/>
      <point x="207.683" y="113.346" type="curve"/>
      <point x="134.355" y="128.987"/>
      <point x="60.7754" y="184.804"/>
      <point x="60.7754" y="312.19" type="curve" smooth="yes"/>
      <point x="60.7754" y="429.479"/>
      <point x="157.878" y="485.887"/>
      <point x="244.621" y="497.924" type="curve" smooth="yes"/>
      <point x="258.177" y="499.82"/>
      <point x="272.258" y="500.067"/>
      <point x="285.607" y="500.067" type="curve" smooth="yes"/>
      <point x="327.247" y="500.067"/>
      <point x="397.791" y="489.751"/>
      <point x="432.404" y="466.489" type="curve"/>
      <point x="463.927" y="485.613"/>
      <point x="476.894" y="504.46"/>
      <point x="535.988" y="504.46" type="curve" smooth="yes"/>
      <point x="552.154" y="504.46"/>
      <point x="564.46" y="491.395"/>
      <point x="564.46" y="476.147" type="curve" smooth="yes"/>
      <point x="564.46" y="435.529"/>
      <point x="540.409" y="407.532"/>
      <point x="499.538" y="407.532" type="curve" smooth="yes"/>
      <point x="496.529" y="407.532"/>
      <point x="489.686" y="407.862"/>
      <point x="488.21" y="407.99" type="curve"/>
      <point x="506" y="385"/>
      <point x="513.329" y="352.012"/>
    </contour>
  </outline>
</glyph>
<glyph name="h" format="1">
  <advance width="679"/>
  <unicode hex="0068"/>
  <outline>
    <contour>
      <point x="266.04" y="58.0869" type="line"/>
      <point x="268.244" y="45.7871"/>
      <point x="279.632" y="32.9014"/>
      <point x="295.435" y="32.6963" type="curve" smooth="yes"/>
      <point x="302.342" y="32.6084" type="line"/>
      <point x="302.342" y="0" type="line"/>
      <point x="56" y="0" type="line"/>
      <point x="56" y="32.8584" type="line"/>
      <point x="62.9072" y="32.9482" type="line" smooth="yes"/>
      <point x="78.8857" y="33.1523"/>
      <point x="90.2461" y="46.7148"/>
      <point x="92.3184" y="58.5586" type="curve"/>
      <point x="92.3184" y="648.213" type="line" smooth="yes"/>
      <point x="92.3184" y="669.565"/>
      <point x="82.4824" y="679.56"/>
      <point x="65.498" y="679.56" type="curve" smooth="yes"/>
      <point x="58.498" y="679.56" type="line"/>
      <point x="58.498" y="709.521" type="line"/>
      <point x="248.397" y="745.105" type="line" smooth="yes"/>
      <point x="249.999" y="745.532"/>
      <point x="251.554" y="745.729"/>
      <point x="253" y="745.729" type="curve" smooth="yes"/>
      <point x="265.749" y="745.729"/>
      <point x="266.101" y="727.454"/>
      <point x="266.139" y="717.488" type="curve" smooth="yes"/>
      <point x="266.104" y="478.479" type="line"/>
      <point x="304.669" y="502.579"/>
      <point x="330.791" y="511.935"/>
      <point x="381.164" y="511.935" type="curve" smooth="yes"/>
      <point x="478.801" y="511.935"/>
      <point x="591.926" y="458.677"/>
      <point x="591.926" y="348.729" type="curve" smooth="yes"/>
      <point x="591.858" y="57.3477" type="line"/>
      <point x="594.281" y="45.8037"/>
      <point x="605.748" y="32.9668"/>
      <point x="621.094" y="32.7705" type="curve" smooth="yes"/>
      <point x="628.001" y="32.6816" type="line"/>
      <point x="628.001" y="0" type="line"/>
      <point x="391.862" y="0" type="line"/>
      <point x="391.862" y="32.6084" type="line"/>
      <point x="398.77" y="32.6963" type="line" smooth="yes"/>
      <point x="414.533" y="32.9004"/>
      <point x="425.989" y="46.375"/>
      <point x="428.131" y="57.8926" type="curve"/>
      <point x="428.131" y="347.898" type="line" smooth="yes"/>
      <point x="428.131" y="413.997"/>
      <point x="413.488" y="463.364"/>
      <point x="351.289" y="463.364" type="curve" smooth="yes"/>
      <point x="322.399" y="463.364"/>
      <point x="310.073" y="455.375"/>
      <point x="266.097" y="428.14" type="curve"/>
    </contour>
  </outline>
</glyph>
<glyph name="i" format="1">
  <advance width="375"/>
  <unicode hex="0069"/>
  <outline>
    <contour>
      <point x="180.816" y="549.884" type="curve" smooth="yes"/>
      <point x="127.476" y="549.884"/>
      <point x="84.2314" y="592.133"/>
      <point x="84.2314" y="644.245" type="curve" smooth="yes"/>
      <point x="84.2314" y="696.358"/>
      <point x="127.475" y="738.608"/>
      <point x="180.816" y="738.608" type="curve" smooth="yes"/>
      <point x="234.157" y="738.608"/>
      <point x="277.403" y="696.358"/>
      <point x="277.403" y="644.245" type="curve" smooth="yes"/>
      <point x="277.403" y="592.133"/>
      <point x="234.157" y="549.884"/>
    </contour>
    <contour>
      <point x="276.933" y="57.4766" type="line"/>
      <point x="279.324" y="45.8066"/>
      <point x="290.776" y="32.9668"/>
      <point x="306.193" y="32.7695" type="curve" smooth="yes"/>
      <point x="313.101" y="32.6807" type="line"/>
      <point x="313.101" y="0" type="line"/>
      <point x="67" y="0" type="line"/>
      <point x="67" y="32.6797" type="line"/>
      <point x="73.9072" y="32.7686" type="line" smooth="yes"/>
      <point x="89.5615" y="32.9688"/>
      <point x="101.034" y="46.4365"/>
      <point x="103.229" y="57.7812" type="curve"/>
      <point x="103.229" y="413.724" type="line" smooth="yes"/>
      <point x="103.229" y="433.844"/>
      <point x="92.9854" y="442.613"/>
      <point x="76.4092" y="442.613" type="curve" smooth="yes"/>
      <point x="69.4092" y="442.613" type="line"/>
      <point x="69.4092" y="472.801" type="line"/>
      <point x="259.188" y="508.675" type="line" smooth="yes"/>
      <point x="260.912" y="509.162"/>
      <point x="262.56" y="509.353"/>
      <point x="264" y="509.353" type="curve" smooth="yes"/>
      <point x="276.768" y="509.353"/>
      <point x="276.989" y="495.244"/>
      <point x="277.027" y="485.733" type="curve" smooth="yes"/>
    </contour>
  </outline>
</glyph>
<glyph name="j" format="1">
  <advance width="352"/>
  <unicode hex="006A"/>
  <outline>
    <contour>
      <point x="189.816" y="549.884" type="curve" smooth="yes"/>
      <point x="136.476" y="549.884"/>
      <point x="93.2314" y="592.133"/>
      <point x="93.2314" y="644.245" type="curve" smooth="yes"/>
      <point x="93.2314" y="696.358"/>
      <point x="136.475" y="738.608"/>
      <point x="189.816" y="738.608" type="curve" smooth="yes"/>
      <point x="243.157" y="738.608"/>
      <point x="286.403" y="696.358"/>
      <point x="286.403" y="644.245" type="curve" smooth="yes"/>
      <point x="286.403" y="592.133"/>
      <point x="243.157" y="549.884"/>
    </contour>
    <contour>
      <point x="272" y="505.725" type="curve" smooth="yes"/>
      <point x="285.689" y="505.725"/>
      <point x="286.345" y="493.102"/>
      <point x="286.383" y="483.03" type="curve" smooth="yes"/>
      <point x="286.283" y="93.2793" type="line" smooth="yes"/>
      <point x="286.236" y="78.7939"/>
      <point x="286.161" y="64.3193"/>
      <point x="286.161" y="49.8691" type="curve" smooth="yes"/>
      <point x="286.161" y="-3.1582"/>
      <point x="283" y="-38"/>
      <point x="219.597" y="-91.707" type="curve" smooth="yes"/>
      <point x="161.911" y="-140.571"/>
      <point x="73.7715" y="-153.523"/>
      <point x="-6" y="-153.523" type="curve" smooth="yes"/>
      <point x="-28.4502" y="-153.523"/>
      <point x="-58.2627" y="-148.948"/>
      <point x="-82.9756" y="-140.635" type="curve" smooth="yes"/>
      <point x="-93.6006" y="-137.061"/>
      <point x="-104.956" y="-114.888"/>
      <point x="-104.956" y="-101" type="curve" smooth="yes"/>
      <point x="-104.956" y="-72.0107"/>
      <point x="-60.5977" y="-49.2393"/>
      <point x="-32" y="-49.2393" type="curve" smooth="yes"/>
      <point x="3.19531" y="-49.2393"/>
      <point x="18.0967" y="-73.6143"/>
      <point x="43" y="-73.6143" type="curve" smooth="yes"/>
      <point x="51.0928" y="-73.6143"/>
      <point x="59.2718" y="-70.9351"/>
      <point x="69.5889" y="-66.708" type="curve" smooth="yes"/>
      <point x="111.295" y="-49.6201"/>
      <point x="112.586" y="-14.2803"/>
      <point x="112.586" y="52.6406" type="curve" smooth="yes"/>
      <point x="112.586" y="412.813" type="line" smooth="yes"/>
      <point x="112.586" y="432.999"/>
      <point x="102.368" y="443.783"/>
      <point x="85.7646" y="443.783" type="curve" smooth="yes"/>
      <point x="78.7646" y="443.783" type="line"/>
      <point x="78.7646" y="470.067" type="line"/>
      <point x="267.544" y="505.043" type="line" smooth="yes"/>
      <point x="268.859" y="505.414"/>
      <point x="270.301" y="505.725"/>
    </contour>
  </outline>
</glyph>
<glyph name="k" format="1">
  <advance width="701"/>
  <unicode hex="006B"/>
  <outline>
    <contour>
      <point x="271" y="722" type="curve" smooth="yes"/>
      <point x="271" y="363.862" type="line" smooth="yes"/>
      <point x="271.768" y="348.038"/>
      <point x="277.244" y="343"/>
      <point x="282" y="343" type="curve" smooth="yes"/>
      <point x="287.452" y="343"/>
      <point x="298" y="351.172"/>
      <point x="364.7" y="398.021" type="curve"/>
      <point x="414.341" y="432.258"/>
      <point x="415.62" y="447.011"/>
      <point x="415.62" y="457.697" type="curve" smooth="yes"/>
      <point x="415.62" y="468.392"/>
      <point x="407.021" y="473"/>
      <point x="397.151" y="473" type="curve" smooth="yes"/>
      <point x="391.534" y="473" type="line"/>
      <point x="391.534" y="506.515" type="line"/>
      <point x="597" y="506.515" type="line"/>
      <point x="597" y="473" type="line"/>
      <point x="590" y="473" type="line" smooth="yes"/>
      <point x="571.709" y="473"/>
      <point x="553.841" y="461.701"/>
      <point x="544.131" y="454.991" type="curve" smooth="yes"/>
      <point x="505.36" y="428.199"/>
      <point x="486.964" y="388.685"/>
      <point x="392" y="318" type="curve"/>
      <point x="397.195" y="305.041"/>
      <point x="417.494" y="286.864"/>
      <point x="484.089" y="208.611" type="curve"/>
      <point x="556.601" y="117.443"/>
      <point x="582.531" y="89.7178"/>
      <point x="596.6" y="70.3682" type="curve" smooth="yes"/>
      <point x="612.188" y="48.9287"/>
      <point x="624.114" y="33"/>
      <point x="647" y="33" type="curve" smooth="yes"/>
      <point x="654" y="33" type="line"/>
      <point x="654" y="0" type="line"/>
      <point x="390" y="0" type="line"/>
      <point x="390" y="33" type="line"/>
      <point x="397" y="33" type="line" smooth="yes"/>
      <point x="405.229" y="33"/>
      <point x="416" y="42.1348"/>
      <point x="416" y="53" type="curve" smooth="yes"/>
      <point x="416" y="80.0859"/>
      <point x="312.423" y="204"/>
      <point x="285" y="204" type="curve" smooth="yes"/>
      <point x="280.99" y="204"/>
      <point x="273.263" y="200.358"/>
      <point x="271" y="199.315" type="curve"/>
      <point x="271" y="57.418" type="line"/>
      <point x="274.051" y="46.3398"/>
      <point x="284.318" y="33"/>
      <point x="300" y="33" type="curve" smooth="yes"/>
      <point x="307" y="33" type="line"/>
      <point x="307" y="0" type="line"/>
      <point x="61" y="0" type="line"/>
      <point x="61" y="33" type="line"/>
      <point x="68" y="33" type="line" smooth="yes"/>
      <point x="84.7461" y="33"/>
      <point x="95.3164" y="47.1719"/>
      <point x="97" y="58.0674" type="curve"/>
      <point x="97" y="654" type="line" smooth="yes"/>
      <point x="97" y="678.494"/>
      <point x="88.3701" y="688"/>
      <point x="70" y="688" type="curve" smooth="yes"/>
      <point x="63" y="688" type="line"/>
      <point x="63" y="707.399" type="line"/>
      <point x="242.081" y="742.733" type="line"/>
      <point x="245.627" y="743.824"/>
      <point x="253.495" y="745.612"/>
      <point x="258" y="745.612" type="curve" smooth="yes"/>
      <point x="270.06" y="745.612"/>
      <point x="271" y="734.622"/>
    </contour>
  </outline>
</glyph>
<glyph name="l" format="1">
  <advance width="365"/>
  <unicode hex="006C"/>
  <outline>
    <contour>
      <point x="269.954" y="57.8564" type="line"/>
      <point x="272.342" y="46.0967"/>
      <point x="283.74" y="33.2158"/>
      <point x="299.216" y="33.0156" type="curve" smooth="yes"/>
      <point x="306.123" y="32.9258" type="line"/>
      <point x="306.123" y="0" type="line"/>
      <point x="60" y="0" type="line"/>
      <point x="60" y="32.8799" type="line"/>
      <point x="66.9072" y="32.9697" type="line" smooth="yes"/>
      <point x="82.6025" y="33.1699"/>
      <point x="94.0264" y="46.6797"/>
      <point x="96.2266" y="58.0762" type="curve"/>
      <point x="96.2266" y="669.57" type="line" smooth="yes"/>
      <point x="96.2266" y="690.928"/>
      <point x="86.3926" y="700.916"/>
      <point x="69.4092" y="700.916" type="curve" smooth="yes"/>
      <point x="62.4092" y="700.916" type="line"/>
      <point x="62.4092" y="730.877" type="line"/>
      <point x="252.308" y="768.461" type="line" smooth="yes"/>
      <point x="254.011" y="768.915"/>
      <point x="255.62" y="769.081"/>
      <point x="257" y="769.081" type="curve" smooth="yes"/>
      <point x="269.768" y="769.081"/>
      <point x="270.012" y="751.661"/>
      <point x="270.049" y="741.844" type="curve" smooth="yes"/>
    </contour>
  </outline>
</glyph>
<glyph name="m" format="1">
  <advance width="973"/>
  <unicode hex="006D"/>
  <outline>
    <contour>
      <point x="246.91" y="57.3652" type="line"/>
      <point x="249.305" y="45.7275"/>
      <point x="260.771" y="32.8984"/>
      <point x="276.17" y="32.7012" type="curve" smooth="yes"/>
      <point x="283.077" y="32.6123" type="line"/>
      <point x="283.077" y="0" type="line"/>
      <point x="37" y="0" type="line"/>
      <point x="37" y="32.6016" type="line"/>
      <point x="43.9072" y="32.6904" type="line" smooth="yes"/>
      <point x="59.541" y="32.8906"/>
      <point x="71.0322" y="46.3447"/>
      <point x="73.2275" y="57.6582" type="curve"/>
      <point x="73.2275" y="417.467" type="line" smooth="yes"/>
      <point x="73.2275" y="438.32"/>
      <point x="61.2158" y="447.892"/>
      <point x="44.4092" y="447.892" type="curve" smooth="yes"/>
      <point x="39.4092" y="447.892" type="line"/>
      <point x="39.4092" y="477.911" type="line"/>
      <point x="229.332" y="512.456" type="line" smooth="yes"/>
      <point x="231" y="513"/>
      <point x="233.414" y="513"/>
      <point x="234.381" y="513" type="curve" smooth="yes"/>
      <point x="247.231" y="513"/>
      <point x="246.968" y="498.932"/>
      <point x="247.002" y="489.821" type="curve" smooth="yes"/>
      <point x="247.002" y="482.669"/>
      <point x="246.999" y="473.956"/>
      <point x="246.997" y="467.792" type="curve"/>
      <point x="285.393" y="495.193"/>
      <point x="305.305" y="511.255"/>
      <point x="365.564" y="511.255" type="curve" smooth="yes"/>
      <point x="428.515" y="511.255"/>
      <point x="478.71" y="487.418"/>
      <point x="512.082" y="431.502" type="curve"/>
      <point x="553.541" y="492.947"/>
      <point x="635.271" y="508.255"/>
      <point x="703.413" y="508.255" type="curve" smooth="yes"/>
      <point x="801.147" y="508.255"/>
      <point x="901.208" y="455.988"/>
      <point x="901.208" y="346.091" type="curve" smooth="yes"/>
      <point x="901.141" y="57.4707" type="line"/>
      <point x="903.53" y="45.8086"/>
      <point x="914.984" y="32.9648"/>
      <point x="930.401" y="32.7676" type="curve" smooth="yes"/>
      <point x="937.309" y="32.6787" type="line"/>
      <point x="937.309" y="0" type="line"/>
      <point x="707.186" y="0" type="line"/>
      <point x="707.186" y="32.6113" type="line"/>
      <point x="714.093" y="32.6992" type="line" smooth="yes"/>
      <point x="729.729" y="32.8994"/>
      <point x="741.221" y="46.3564"/>
      <point x="743.413" y="57.6758" type="curve"/>
      <point x="743.413" y="336.447" type="line" smooth="yes"/>
      <point x="743.413" y="413.107"/>
      <point x="698.946" y="446.936"/>
      <point x="666.635" y="446.936" type="curve" smooth="yes"/>
      <point x="637.698" y="446.936"/>
      <point x="602" y="427"/>
      <point x="577.83" y="374.262" type="curve"/>
      <point x="579.094" y="368.044"/>
      <point x="579.34" y="365.353"/>
      <point x="579.34" y="359.859" type="curve" smooth="yes"/>
      <point x="579.271" y="57.3809" type="line"/>
      <point x="581.661" y="45.7295"/>
      <point x="593.125" y="32.8965"/>
      <point x="608.534" y="32.6992" type="curve" smooth="yes"/>
      <point x="615.441" y="32.6113" type="line"/>
      <point x="615.441" y="0" type="line"/>
      <point x="373.32" y="0" type="line"/>
      <point x="373.32" y="32.6123" type="line"/>
      <point x="380.228" y="32.7012" type="line" smooth="yes"/>
      <point x="395.864" y="32.9014"/>
      <point x="407.341" y="46.3584"/>
      <point x="409.545" y="57.668" type="curve"/>
      <point x="409.545" y="333.265" type="line" smooth="yes"/>
      <point x="409.545" y="399.315"/>
      <point x="370.392" y="446.936"/>
      <point x="333.225" y="446.936" type="curve" smooth="yes"/>
      <point x="301.185" y="446.936"/>
      <point x="284.319" y="441.345"/>
      <point x="246.989" y="415.393" type="curve"/>
    </contour>
  </outline>
</glyph>
<glyph name="n" format="1">
  <advance width="658"/>
  <unicode hex="006E"/>
  <outline>
    <contour>
      <point x="246.91" y="55.3643" type="line"/>
      <point x="249.304" y="43.7275"/>
      <point x="260.771" y="32.8984"/>
      <point x="276.171" y="32.6992" type="curve" smooth="yes"/>
      <point x="283.077" y="32.6094" type="line"/>
      <point x="283.077" y="0" type="line"/>
      <point x="37" y="0" type="line"/>
      <point x="37" y="32.5977" type="line"/>
      <point x="43.9062" y="32.6875" type="line" smooth="yes"/>
      <point x="59.5439" y="32.8906"/>
      <point x="71.0332" y="46.3418"/>
      <point x="73.2285" y="57.6621" type="curve"/>
      <point x="73.2285" y="415.092" type="line" smooth="yes"/>
      <point x="73.2285" y="435.943"/>
      <point x="63.2158" y="445.516"/>
      <point x="46.4092" y="445.516" type="curve" smooth="yes"/>
      <point x="39.4092" y="445.516" type="line"/>
      <point x="39.4092" y="475.535" type="line"/>
      <point x="228.331" y="513.081" type="line" smooth="yes"/>
      <point x="228.829" y="513.208"/>
      <point x="230.846" y="514"/>
      <point x="234" y="514" type="curve" smooth="yes"/>
      <point x="244.983" y="514"/>
      <point x="247.002" y="503.517"/>
      <point x="247.002" y="489.446" type="curve" smooth="yes"/>
      <point x="247.002" y="483.802"/>
      <point x="247" y="483.819"/>
      <point x="246.998" y="478.393" type="curve"/>
      <point x="286.577" y="504.037"/>
      <point x="319.527" y="512.336"/>
      <point x="377.74" y="512.336" type="curve" smooth="yes"/>
      <point x="485.374" y="512.336"/>
      <point x="582.499" y="459.078"/>
      <point x="582.499" y="349.129" type="curve" smooth="yes"/>
      <point x="582.432" y="56.75" type="line"/>
      <point x="584.993" y="45.7539"/>
      <point x="596.537" y="32.9629"/>
      <point x="611.535" y="32.7686" type="curve" smooth="yes"/>
      <point x="618.441" y="32.6787" type="line"/>
      <point x="618.441" y="0" type="line"/>
      <point x="383.32" y="0" type="line"/>
      <point x="383.32" y="32.6094" type="line"/>
      <point x="390.227" y="32.6992" type="line" smooth="yes"/>
      <point x="406.398" y="32.9092"/>
      <point x="417.646" y="46.3223"/>
      <point x="419.704" y="58.584" type="curve"/>
      <point x="419.704" y="338.346" type="line" smooth="yes"/>
      <point x="419.704" y="404.396"/>
      <point x="383.565" y="457.017"/>
      <point x="346.399" y="457.017" type="curve" smooth="yes"/>
      <point x="315.226" y="457.017"/>
      <point x="286.085" y="448.833"/>
      <point x="246.99" y="421.681" type="curve"/>
    </contour>
  </outline>
</glyph>
<glyph name="o" format="1">
  <advance width="637"/>
  <unicode hex="006F"/>
  <outline>
    <contour>
      <point x="323" y="-10.3389" type="curve" smooth="yes"/>
      <point x="162.309" y="-10.3389"/>
      <point x="44.9424" y="62.8125"/>
      <point x="44.9424" y="253.925" type="curve" smooth="yes"/>
      <point x="44.9424" y="439.155"/>
      <point x="152.747" y="512.426"/>
      <point x="313" y="512.426" type="curve" smooth="yes"/>
      <point x="462.146" y="512.426"/>
      <point x="593.081" y="438.779"/>
      <point x="593.081" y="253.85" type="curve" smooth="yes"/>
      <point x="593.081" y="57.7432"/>
      <point x="486.943" y="-10.3389"/>
    </contour>
    <contour>
      <point x="215.237" y="275.402" type="curve" smooth="yes"/>
      <point x="215.237" y="134.356"/>
      <point x="246.274" y="45.4287"/>
      <point x="330.292" y="45.4287" type="curve" smooth="yes"/>
      <point x="398.566" y="45.4287"/>
      <point x="422.789" y="153.397"/>
      <point x="422.789" y="235.684" type="curve" smooth="yes"/>
      <point x="422.789" y="376.96"/>
      <point x="389.736" y="471.658"/>
      <point x="309.734" y="471.658" type="curve" smooth="yes"/>
      <point x="250.557" y="471.658"/>
      <point x="215.237" y="381.979"/>
    </contour>
  </outline>
</glyph>
<glyph name="p" format="1">
  <advance width="669"/>
  <unicode hex="0070"/>
  <outline>
    <contour>
      <point x="262.954" y="-174.317" type="line"/>
      <point x="265.37" y="-186.441"/>
      <point x="277.661" y="-199.233"/>
      <point x="293.777" y="-199.438" type="curve" smooth="yes"/>
      <point x="299.111" y="-199.53" type="line"/>
      <point x="299.111" y="-232" type="line"/>
      <point x="53" y="-232" type="line"/>
      <point x="53" y="-199.53" type="line"/>
      <point x="59.9062" y="-199.438" type="line" smooth="yes"/>
      <point x="75.7227" y="-199.225"/>
      <point x="87.0322" y="-185.611"/>
      <point x="89.2266" y="-174.021" type="curve"/>
      <point x="89.2266" y="413.517" type="line" smooth="yes"/>
      <point x="89.2266" y="434.506"/>
      <point x="79.2646" y="444.2"/>
      <point x="62.4092" y="444.2" type="curve" smooth="yes"/>
      <point x="55.4092" y="444.2" type="line"/>
      <point x="55.4092" y="475.162" type="line"/>
      <point x="245.308" y="512.746" type="line" smooth="yes"/>
      <point x="247.011" y="513.2"/>
      <point x="249.62" y="513.366"/>
      <point x="251" y="513.366" type="curve" smooth="yes"/>
      <point x="262.768" y="513.366"/>
      <point x="263.012" y="493.946"/>
      <point x="263.049" y="484.13" type="curve" smooth="yes"/>
      <point x="263.049" y="484.748"/>
      <point x="263.048" y="485.414"/>
      <point x="263.047" y="486" type="curve"/>
      <point x="296.877" y="499.777"/>
      <point x="313.912" y="512.063"/>
      <point x="363.047" y="512.063" type="curve" smooth="yes"/>
      <point x="498.123" y="512.063"/>
      <point x="619.173" y="432.145"/>
      <point x="619.173" y="249.925" type="curve" smooth="yes"/>
      <point x="619.173" y="64.6895"/>
      <point x="534.995" y="-12.7969"/>
      <point x="365.933" y="-12.7969" type="curve" smooth="yes"/>
      <point x="328.321" y="-12.7969"/>
      <point x="304.884" y="-7.60156"/>
      <point x="262.982" y="12" type="curve"/>
    </contour>
    <contour>
      <point x="344.818" y="458.146" type="curve" smooth="yes"/>
      <point x="315.872" y="458.146"/>
      <point x="290.968" y="440.664"/>
      <point x="263.041" y="423.397" type="curve"/>
      <point x="262.997" y="118.896" type="line"/>
      <point x="276.632" y="69.6025"/>
      <point x="311.729" y="30.9893"/>
      <point x="349.14" y="30.9893" type="curve" smooth="yes"/>
      <point x="402.453" y="30.9893"/>
      <point x="458.152" y="109.162"/>
      <point x="458.152" y="225.717" type="curve" smooth="yes"/>
      <point x="458.152" y="380.362"/>
      <point x="413.609" y="458.146"/>
    </contour>
  </outline>
</glyph>
<glyph name="q" format="1">
  <advance width="722"/>
  <unicode hex="0071"/>
  <outline>
    <contour>
      <point x="239.544" y="274.396" type="curve" smooth="yes"/>
      <point x="239.544" y="153.192"/>
      <point x="282.259" y="38.0117"/>
      <point x="362.158" y="38.0117" type="curve" smooth="yes"/>
      <point x="389.52" y="38.0117"/>
      <point x="428.027" y="46.3506"/>
      <point x="460.046" y="73.0859" type="curve"/>
      <point x="460.195" y="399.908" type="line" smooth="yes"/>
      <point x="460.195" y="401.364"/>
      <point x="459.952" y="402.279"/>
      <point x="459.946" y="402.298" type="curve"/>
      <point x="428.582" y="435.725"/>
      <point x="400.84" y="470.217"/>
      <point x="359.677" y="470.217" type="curve" smooth="yes"/>
      <point x="319.646" y="470.217"/>
      <point x="239.544" y="421.654"/>
    </contour>
    <contour>
      <point x="461.1" y="480" type="curve"/>
      <point x="613.752" y="508.219" type="line" smooth="yes"/>
      <point x="616.831" y="509.123"/>
      <point x="618.984" y="509.771"/>
      <point x="621" y="509.771" type="curve" smooth="yes"/>
      <point x="633.669" y="509.771"/>
      <point x="633.869" y="494.727"/>
      <point x="633.869" y="485.615" type="curve" smooth="yes"/>
      <point x="633.772" y="-173.324" type="line"/>
      <point x="636.152" y="-185.256"/>
      <point x="647.452" y="-198.229"/>
      <point x="663.035" y="-198.438" type="curve" smooth="yes"/>
      <point x="669.941" y="-198.53" type="line"/>
      <point x="669.941" y="-232" type="line"/>
      <point x="423.92" y="-232" type="line"/>
      <point x="423.92" y="-198.53" type="line"/>
      <point x="431.234" y="-198.438" type="line" smooth="yes"/>
      <point x="447.559" y="-198.23"/>
      <point x="457.828" y="-184.803"/>
      <point x="460.045" y="-173.017" type="curve"/>
      <point x="460.045" y="20.7559" type="line"/>
      <point x="422.605" y="4.05469"/>
      <point x="396.175" y="-13.1143"/>
      <point x="349.327" y="-13.1143" type="curve" smooth="yes"/>
      <point x="199.941" y="-13.1143"/>
      <point x="73.9961" y="76.9316"/>
      <point x="73.9961" y="249.761" type="curve" smooth="yes"/>
      <point x="73.9961" y="438.353"/>
      <point x="179.599" y="511.807"/>
      <point x="343.149" y="511.807" type="curve" smooth="yes"/>
      <point x="381.961" y="511.807"/>
      <point x="417.937" y="499.319"/>
    </contour>
  </outline>
</glyph>
